<svg version="1.1" id="Layer_1" xmlns="http://www.w3.org/2000/svg" xmlns:xlink="http://www.w3.org/1999/xlink" x="0px" y="0px"
	 width="100%" viewBox="0 0 1024 1024" enable-background="new 0 0 1024 1024" xml:space="preserve">
<path fill="#000000" opacity="1.000000" stroke="none" 
	d="
M823.194092,514.000488 
	C823.168762,583.163513 823.144714,651.826599 823.119019,720.489746 
	C823.118469,721.989624 823.072998,723.489807 823.092834,724.989258 
	C823.195984,732.788635 817.529846,739.427307 808.289368,739.556091 
	C754.129639,740.310303 699.970215,739.767639 645.811707,739.923950 
	C590.815002,740.082642 535.817444,739.955627 480.820221,739.945557 
	C478.821808,739.945190 476.813202,739.971558 474.826721,739.792542 
	C465.349884,738.938354 460.790009,733.994568 460.744263,724.491272 
	C460.705750,716.491943 460.777740,708.492188 460.778412,700.492615 
	C460.790161,563.166199 460.799683,425.839783 460.805573,288.513367 
	C460.806122,275.723358 466.674774,269.726593 479.345367,269.725128 
	C587.673340,269.712677 696.001343,269.709686 804.329346,269.715424 
	C817.285217,269.716125 823.090759,275.374817 823.098755,288.165314 
	C823.127869,334.496155 822.999634,380.827423 823.205994,427.157288 
	C823.235107,433.691742 821.053833,438.533142 816.702759,443.170959 
	C784.902954,477.066528 753.115356,510.978210 723.126770,546.514648 
	C721.323181,548.651855 718.913086,550.286621 717.496460,553.246765 
	C725.008118,560.204895 732.529053,567.171570 740.511658,574.565979 
	C746.129761,568.290649 751.579895,562.302368 756.921265,556.218628 
	C775.060120,535.558777 793.358215,515.042908 812.087036,494.914337 
	C812.540894,494.426514 812.997864,493.938751 813.485901,493.485992 
	C815.348328,491.758301 817.307434,489.870483 820.071472,491.131592 
	C822.680725,492.322113 823.148132,494.945587 823.185913,497.502289 
	C823.264893,502.833923 823.200623,508.167725 823.194092,514.000488 
M696.820801,618.359497 
	C693.349915,620.339905 689.920349,622.397949 686.394287,624.274658 
	C683.839111,625.634583 681.196655,625.640869 678.950562,623.592468 
	C676.884705,621.708435 676.520935,619.333862 677.520569,616.729736 
	C677.877747,615.799316 678.125916,614.826965 678.484436,613.897095 
	C685.314514,596.183044 692.163269,578.476196 698.978149,560.756287 
	C699.797058,558.627136 701.022766,556.607361 700.069702,554.073853 
	C698.871582,550.888733 700.214844,548.401184 702.439270,545.988159 
	C711.132324,536.558228 719.720398,527.030334 728.253540,517.455139 
	C729.971619,515.527222 732.274902,513.966370 733.037109,511.176727 
	C731.165161,509.803833 729.098755,510.387848 727.191101,510.404022 
	C698.699280,510.645050 670.207703,510.422363 641.713013,510.757996 
	C608.071472,511.154266 574.418335,510.572327 540.770264,510.411743 
	C539.770630,510.406982 538.769470,510.401459 537.771790,510.346497 
	C533.664429,510.120239 531.023621,507.938385 530.953491,503.868561 
	C530.884521,499.862396 533.504822,497.509430 537.395081,496.782440 
	C538.688293,496.540833 540.053284,496.654358 541.385498,496.654358 
	C606.879211,496.654205 672.373169,496.571564 737.866028,496.812469 
	C743.805420,496.834320 747.754150,495.029205 751.615540,490.731323 
	C768.426575,472.019714 785.462952,453.509003 802.554260,435.052032 
	C805.464478,431.909302 806.766785,428.699951 806.753723,424.365417 
	C806.622559,380.869995 806.677124,337.374054 806.677368,293.878235 
	C806.677368,286.199127 806.672913,286.219269 799.149475,286.219604 
	C694.326233,286.224396 589.502991,286.226532 484.679749,286.216553 
	C477.230194,286.215820 477.219910,286.169556 477.218292,293.458099 
	C477.205383,351.952362 477.184052,410.446625 477.189789,468.940887 
	C477.197906,551.766113 477.240387,634.591309 477.205231,717.416504 
	C477.203552,721.356995 477.393921,723.837830 482.675049,723.830078 
	C588.831360,723.674744 694.987915,723.685974 801.144348,723.786743 
	C805.649841,723.791016 806.763916,722.179993 806.757385,717.945984 
	C806.659180,654.785583 806.702881,591.624939 806.663574,528.464355 
	C806.662720,527.144104 807.393005,525.507019 805.285522,524.082581 
	C804.349670,525.189514 803.409363,526.342896 802.426270,527.458374 
	C786.678345,545.327698 770.861389,563.136841 755.210571,581.090759 
	C750.341431,586.676392 745.056396,591.513489 738.466858,595.083130 
	C724.699219,602.541077 711.118896,610.344666 696.820801,618.359497 
M728.237549,584.197876 
	C728.959351,583.646362 729.533691,582.852417 728.767151,582.140991 
	C723.372864,577.134155 717.911194,572.199768 711.939819,566.758240 
	C706.908936,579.085510 702.311707,590.350281 697.118042,603.076355 
	C707.764648,595.651367 717.963074,590.493103 728.237549,584.197876 
z"/>
<path fill="#000000" opacity="1.000000" stroke="none" 
	d="
M259.441620,403.150513 
	C229.964096,396.804260 211.301270,379.227295 204.403992,350.507874 
	C195.440079,313.183289 220.158142,275.725891 257.712616,268.284851 
	C260.137299,267.804413 262.667358,267.693329 265.149017,267.687897 
	C292.293884,267.628510 319.472290,268.463074 346.574982,267.382904 
	C377.195984,266.162506 408.650452,293.080322 413.605621,326.438568 
	C419.033752,362.980957 392.233521,397.487366 358.271179,402.825104 
	C356.958954,403.031311 355.632721,403.287628 354.313080,403.287384 
	C322.839661,403.281708 291.366272,403.244049 259.441620,403.150513 
M269.546783,285.045349 
	C266.063721,285.284973 262.481079,285.080170 259.113373,285.834686 
	C232.654770,291.762787 214.826599,320.314819 220.922668,346.737335 
	C226.615875,371.413757 245.511368,386.437164 271.474274,386.598297 
	C294.639130,386.742065 317.806519,386.702271 340.971069,386.522858 
	C346.940582,386.476624 353.029877,386.207336 358.847046,384.996979 
	C380.087097,380.577698 397.663147,359.803162 397.220123,334.865662 
	C396.765259,309.259430 374.093536,284.068817 346.526794,284.815338 
	C321.212311,285.500824 295.865997,285.010498 269.546783,285.045349 
z"/>
<path fill="#000000" opacity="1.000000" stroke="none" 
	d="
M402.763672,624.323853 
	C430.412170,668.252319 405.692078,717.628845 361.817322,728.786377 
	C352.474640,731.162292 342.898193,730.817078 333.487061,730.662354 
	C311.659241,730.303589 289.836914,730.568604 268.013275,730.442688 
	C233.020935,730.240723 203.910278,700.395081 202.406860,665.436035 
	C200.896225,630.308899 225.547546,605.106873 247.524963,598.122986 
	C253.744049,596.146667 260.053314,594.772522 266.622101,594.770020 
	C292.616364,594.759949 318.616699,595.064026 344.603088,594.598694 
	C369.330750,594.155884 388.298004,604.252136 402.763672,624.323853 
M392.509583,684.028870 
	C396.718964,675.540466 397.271790,666.466614 396.844025,657.223022 
	C395.740112,633.367615 374.225037,612.391296 350.369476,612.262817 
	C322.547516,612.112915 294.724121,612.212708 266.901428,612.249573 
	C264.416534,612.252869 261.879425,612.327942 259.455475,612.813477 
	C231.531219,618.406860 214.332474,645.501404 220.888458,673.451050 
	C226.744568,698.416931 245.966675,713.654358 271.660583,713.665161 
	C297.151001,713.675842 322.653137,714.135254 348.128113,713.505981 
	C368.350555,713.006470 382.884125,702.555298 392.509583,684.028870 
z"/>
<path fill="#000000" opacity="1.000000" stroke="none" 
	d="
M379.835327,440.069519 
	C402.428955,454.564026 414.621887,474.586243 414.220337,501.425934 
	C413.728668,534.288879 383.846405,564.906067 351.146301,566.366455 
	C323.161682,567.616272 295.150757,567.199097 267.171967,566.782227 
	C233.057297,566.274048 203.521790,534.288147 202.422028,500.140686 
	C201.421051,469.059082 224.891235,437.228088 257.663971,432.242371 
	C259.957336,431.893463 262.297455,431.696930 264.616241,431.693420 
	C292.949188,431.650482 321.282959,431.773071 349.614868,431.591461 
	C360.460541,431.521973 370.300934,434.427277 379.835327,440.069519 
M371.191315,542.737732 
	C372.442902,541.912903 373.725983,541.131897 374.941345,540.256775 
	C393.866608,526.630493 401.418335,505.065002 395.065460,484.020630 
	C389.921204,466.980011 371.853882,448.713959 346.953003,448.663208 
	C320.136780,448.608551 293.319336,449.167908 266.518219,448.827393 
	C245.742798,448.563416 218.908783,468.961853 219.573654,499.539001 
	C220.193497,528.045349 242.814102,549.616577 271.291565,549.679199 
	C295.282715,549.731873 319.275055,549.561646 343.264832,549.750732 
	C353.004333,549.827454 362.090668,547.912964 371.191315,542.737732 
z"/>
<path fill="#000000" opacity="1.000000" stroke="none" 
	d="
M537.745117,628.620850 
	C539.107849,628.268921 540.052185,627.902588 541.030518,627.734863 
	C555.721313,625.215454 567.485168,619.358398 574.469910,604.706909 
	C579.177551,594.831970 587.436157,586.983459 597.466797,581.701782 
	C599.651917,580.551270 602.048340,579.589111 604.460144,579.121216 
	C612.260437,577.607910 617.954773,583.816467 615.741333,591.433289 
	C613.007996,600.839417 606.329773,607.436096 599.050415,613.357178 
	C592.471008,618.708984 585.631165,623.734924 578.007019,627.645508 
	C573.830261,629.787781 570.694336,633.351074 567.139160,638.172302 
	C574.685425,635.503235 580.444031,631.856262 586.087891,628.101624 
	C594.823608,622.289856 603.365662,616.187866 612.042053,610.285767 
	C617.184326,606.787720 622.770569,604.264343 628.932007,603.101990 
	C634.175293,602.112793 639.102295,602.538879 642.365051,607.285889 
	C645.646301,612.059753 643.715271,616.600281 640.599487,620.610535 
	C634.433411,628.546936 627.071899,635.284180 619.004211,641.248901 
	C617.675537,642.231445 616.232178,643.084534 614.497681,643.279053 
	C611.925110,643.567627 609.903198,642.696533 608.522644,640.509583 
	C607.086975,638.235291 608.025024,636.282410 609.689697,634.693542 
	C614.626892,629.981079 619.697571,625.408081 624.613220,620.673767 
	C625.729370,619.598694 627.269287,618.730835 627.784729,616.049316 
	C622.408020,619.635437 617.625183,622.847290 612.820374,626.025879 
	C598.080872,635.776733 583.197998,645.271179 566.552856,651.569946 
	C565.153015,652.099731 563.762390,652.725952 562.309448,653.030640 
	C556.124573,654.327637 552.296143,650.889038 552.592896,644.580078 
	C552.714905,641.985474 554.076538,639.850830 554.848999,637.273621 
	C553.272827,636.766541 551.993652,637.512390 550.685364,637.981323 
	C538.429199,642.374023 525.713074,645.018250 513.052673,647.871948 
	C512.245239,648.053955 511.403778,648.199524 510.581940,648.182251 
	C507.160736,648.110474 504.063904,647.087463 503.340454,643.371094 
	C502.666595,639.909790 504.869324,637.547485 507.954315,636.570007 
	C513.654419,634.763916 519.466675,633.307190 525.247986,631.763733 
	C529.265930,630.691101 533.310120,629.716980 537.745117,628.620850 
M598.293396,596.177185 
	C594.067322,599.536804 590.202576,603.216675 587.450745,607.887634 
	C592.951721,604.373596 597.603149,600.076355 600.653564,594.240295 
	C600.024536,594.758789 599.395508,595.277283 598.293396,596.177185 
z"/>
<path fill="#000000" opacity="1.000000" stroke="none" 
	d="
M754.449768,360.781708 
	C758.837341,361.940338 760.840576,364.504089 760.201904,368.610443 
	C759.600098,372.479553 756.848755,374.169434 753.173584,374.506073 
	C750.855652,374.718414 748.523682,374.887482 746.197937,374.889252 
	C678.904663,374.940186 611.611389,374.973083 544.318115,374.976746 
	C541.831787,374.976898 539.306641,374.870392 536.868347,374.431641 
	C533.336182,373.796082 531.201477,371.419952 531.129822,367.864929 
	C531.057312,364.266815 533.315552,362.026337 536.676208,361.053925 
	C537.926086,360.692230 539.311035,360.703033 540.634399,360.703003 
	C611.758667,360.702393 682.882935,360.718811 754.449768,360.781708 
z"/>
<path fill="#000000" opacity="1.000000" stroke="none" 
	d="
M667.000000,443.070679 
	C625.837280,443.055695 585.174500,443.050476 544.511780,443.001190 
	C541.858948,442.997955 539.176514,442.843445 536.561279,442.425049 
	C533.169250,441.882385 531.226990,439.544586 531.046692,436.234283 
	C530.876221,433.103912 532.747192,430.953949 535.590820,429.699890 
	C537.634705,428.798492 539.808533,428.832611 541.979065,428.832214 
	C611.139221,428.819855 680.299438,428.798004 749.459595,428.800140 
	C757.016785,428.800385 760.217712,430.846405 760.302490,435.507751 
	C760.390808,440.369965 756.682373,443.062927 749.492554,443.072021 
	C722.161743,443.106598 694.830872,443.076263 667.000000,443.070679 
z"/>
<path fill="#000000" opacity="1.000000" stroke="none" 
	d="
M716.000000,631.705566 
	C730.165222,631.710510 743.830505,631.694153 757.495605,631.744446 
	C759.476562,631.751709 761.539612,631.787048 763.417786,632.323547 
	C766.433044,633.184937 768.325928,635.373291 767.958313,638.630676 
	C767.607971,641.735107 765.712402,643.783630 762.455383,644.203308 
	C761.304443,644.351685 760.127502,644.330933 758.962402,644.331055 
	C719.633240,644.334717 680.304077,644.339783 640.974915,644.321594 
	C634.313782,644.318481 631.560303,642.673645 631.469116,638.817871 
	C631.363892,634.373779 634.718567,631.777527 641.007874,631.762573 
	C665.838501,631.703552 690.669250,631.718323 716.000000,631.705566 
z"/>
<path fill="#000000" opacity="1.000000" stroke="none" 
	d="
M279.787842,326.402649 
	C284.372131,324.858948 287.219543,327.003387 289.636108,330.026093 
	C292.931915,334.148621 296.135742,338.344666 299.725555,342.954224 
	C308.645996,333.442352 317.152679,324.363281 325.669769,315.294037 
	C329.089447,311.652740 332.345123,307.829102 336.017548,304.461517 
	C339.588898,301.186584 344.873932,301.767426 348.117218,305.289215 
	C351.166473,308.600342 351.153839,312.760101 347.453430,316.395966 
	C333.894379,329.718597 321.587189,344.195435 308.625702,358.066833 
	C301.531372,365.659241 296.262573,365.264130 289.792999,357.033020 
	C285.263397,351.270111 280.710724,345.522614 276.309174,339.662445 
	C271.805817,333.666748 272.672974,330.288940 279.787842,326.402649 
z"/>
<path fill="#000000" opacity="1.000000" stroke="none" 
	d="
M277.437775,506.433899 
	C272.975647,500.401550 272.438690,496.357483 275.481262,493.136139 
	C279.528015,488.851501 285.255402,489.214722 289.297394,494.250122 
	C292.705627,498.496033 295.848022,502.955261 299.312653,507.593872 
	C308.460663,497.691284 317.242798,488.168854 326.044861,478.664948 
	C329.212799,475.244354 332.297363,471.731140 335.659058,468.509735 
	C339.112732,465.200256 343.921753,465.390015 347.275360,468.612030 
	C350.592865,471.799255 350.911621,476.716705 347.460510,480.221771 
	C333.318237,494.585022 319.895630,509.611542 306.223480,524.409729 
	C301.223480,529.821594 296.204956,529.654419 291.315857,523.952759 
	C286.550140,518.395020 282.199860,512.481079 277.437775,506.433899 
z"/>
</svg>