<?xml version="1.0" standalone="no"?>
<!DOCTYPE svg PUBLIC "-//W3C//DTD SVG 20010904//EN"
 "http://www.w3.org/TR/2001/REC-SVG-20010904/DTD/svg10.dtd">
<svg version="1.0" xmlns="http://www.w3.org/2000/svg"
 width="1024.000000pt" height="1024.000000pt" viewBox="0 0 1024.000000 1024.000000"
 preserveAspectRatio="xMidYMid meet">

<g transform="translate(0.000000,1024.000000) scale(0.100000,-0.100000)"
fill="#000000" stroke="none">
<path d="M4915 8984 c-454 -45 -773 -118 -1135 -261 -781 -309 -1400 -815
-1887 -1543 -273 -408 -478 -916 -572 -1415 -52 -279 -65 -424 -65 -740 0
-325 12 -470 59 -716 152 -787 503 -1455 1063 -2022 320 -323 622 -542 1038
-753 520 -263 1002 -394 1595 -435 347 -23 806 23 1189 121 1508 383 2658
1624 2915 3145 38 223 46 315 52 571 7 282 -5 458 -49 719 -78 470 -236 921
-463 1320 -75 133 -162 265 -173 265 -4 -1 -28 -31 -55 -69 -26 -37 -87 -116
-136 -176 l-88 -109 50 -85 c229 -397 379 -827 447 -1283 70 -467 40 -929 -91
-1423 -30 -111 -116 -363 -129 -378 -4 -5 -149 -8 -321 -8 -173 1 -319 -2
-325 -6 -6 -5 -30 -45 -53 -91 l-42 -83 326 3 c374 3 340 16 276 -107 l-36
-70 -341 -5 -342 -5 -47 -65 c-26 -36 -52 -71 -58 -78 -8 -10 57 -12 334 -12
274 0 343 -2 341 -12 -2 -7 -17 -37 -35 -66 l-31 -52 -958 0 c-527 0 -958 3
-958 8 1 4 51 48 112 97 61 50 174 144 252 210 78 67 272 230 431 364 160 134
291 247 293 250 1 3 -454 6 -1010 6 l-1013 0 -3 123 c-2 94 0 122 10 122 7 0
121 12 253 26 293 31 710 42 920 25 206 -17 391 -46 562 -89 l152 -37 -6 25
c-29 124 -118 395 -196 600 -300 786 -881 1805 -1483 2600 -118 157 -268 352
-304 397 l-25 31 -350 -89 c-192 -49 -451 -115 -575 -146 l-225 -57 70 -32
c255 -119 628 -187 910 -166 72 6 131 9 133 7 6 -6 -55 -183 -125 -360 -175
-443 -447 -940 -720 -1315 -140 -192 -241 -310 -422 -490 -237 -236 -455 -407
-705 -551 l-98 -58 38 -10 c108 -28 441 -96 647 -130 348 -59 655 -101 1180
-162 l197 -23 0 -123 0 -123 -1065 2 c-586 2 -1064 0 -1063 -4 5 -13 262 -295
607 -666 130 -140 237 -257 239 -260 1 -4 -341 -6 -760 -5 l-763 2 -36 53
c-61 91 -88 83 279 80 l326 -3 -20 23 c-12 13 -39 49 -62 82 l-41 58 -313 2
-313 1 -43 75 c-23 41 -42 80 -42 87 0 10 65 13 295 13 162 0 295 3 294 8 0 4
-19 43 -42 87 l-42 80 -295 2 c-281 1 -296 2 -308 21 -42 63 -162 465 -201
672 -148 785 1 1663 399 2355 182 316 374 560 649 827 492 477 1144 809 1822
927 238 41 299 46 614 45 285 0 324 -2 485 -27 405 -62 799 -189 1126 -363
180 -96 459 -274 554 -352 l35 -29 75 67 c41 37 116 97 165 134 50 37 90 72
90 77 0 16 -190 163 -340 263 -530 353 -1067 554 -1718 642 -107 15 -683 28
-782 18z m610 -2101 c453 -674 799 -1285 1048 -1848 81 -184 184 -447 193
-493 l6 -29 -74 12 c-157 28 -323 39 -573 39 -247 0 -337 -6 -660 -40 -77 -8
-151 -15 -164 -17 l-23 -2 -4 1374 -4 1373 57 -78 c31 -44 120 -174 198 -291z
m-419 -2380 c-4 -4 -633 75 -926 116 -113 16 -262 37 -332 47 -71 10 -128 21
-128 24 0 3 15 17 33 30 185 136 495 458 698 725 141 185 349 526 472 770 60
122 176 375 179 397 2 7 4 -464 5 -1046 2 -583 1 -1061 -1 -1063z m-786 -845
c124 -85 69 -278 -79 -278 -134 0 -204 157 -114 253 35 37 57 46 114 46 32 1
56 -6 79 -21z m518 2 c130 -79 74 -280 -78 -280 -88 0 -150 64 -150 155 0 64
31 111 90 137 32 14 105 8 138 -12z m522 -2 c129 -88 69 -278 -88 -278 -51 0
-57 3 -97 43 -57 57 -67 108 -33 174 40 81 146 110 218 61z m-2875 -792 c11 1
31 3 45 4 120 7 5440 -3 5440 -10 0 -11 -107 -136 -136 -161 -21 -17 -144 -16
-1444 12 -782 17 -1777 14 -2880 -9 -795 -16 -897 -17 -915 -4 -22 17 -115
123 -142 163 -13 18 -13 21 -3 13 8 -5 24 -9 35 -8z m3730 -366 c303 -5 683
-10 845 -10 326 0 550 -9 550 -21 0 -5 -36 -37 -80 -73 l-80 -65 -163 5 c-488
13 -884 26 -1227 41 -589 24 -1232 21 -2000 -10 -355 -14 -743 -28 -862 -30
l-218 -5 -84 72 c-47 39 -85 74 -86 77 0 3 199 7 443 8 243 2 746 9 1117 16
671 13 790 13 1845 -5z m-525 -335 c201 -8 460 -19 575 -25 116 -5 332 -14
480 -20 149 -5 290 -11 316 -12 25 -1 51 2 59 7 9 6 11 4 5 -4 -4 -7 -35 -31
-68 -52 l-60 -39 -107 0 c-136 0 -473 14 -1140 46 -547 27 -544 27 -1105 -1
-329 -16 -694 -31 -995 -41 l-205 -6 -72 43 c-39 24 -71 44 -70 45 1 1 139 7
307 13 168 6 458 18 645 27 630 28 709 31 890 32 99 1 344 -5 545 -13z m-35
-311 c321 -19 772 -54 815 -63 l34 -7 -49 -24 c-48 -24 -57 -25 -260 -25 -115
0 -391 6 -613 14 -332 12 -464 12 -760 2 -791 -27 -718 -27 -811 4 -46 15 -79
31 -74 35 14 14 838 73 1143 83 122 4 300 -2 575 -19z"/>
<path d="M8740 8259 c-504 -116 -925 -355 -1282 -728 -151 -157 -253 -297
-382 -524 -16 -27 -31 -45 -35 -40 -4 4 -20 40 -36 78 -16 39 -49 106 -73 150
-160 290 -419 418 -693 344 l-77 -21 82 -126 c236 -362 398 -754 533 -1293
l57 -227 110 81 c106 76 284 217 391 308 28 24 133 124 233 224 421 414 723
801 1014 1300 178 304 288 498 286 500 -2 1 -59 -10 -128 -26z"/>
<path d="M1990 4045 c0 -3 12 -42 26 -85 l27 -80 209 0 209 0 -7 23 c-4 12
-17 49 -29 82 l-23 60 -206 3 c-113 1 -206 0 -206 -3z"/>
<path d="M7946 3972 c-14 -42 -26 -81 -26 -85 0 -6 374 -4 441 3 11 1 23 25
38 75 11 40 21 76 21 79 0 3 -101 6 -224 6 l-224 0 -26 -78z"/>
</g>
</svg>
