<?xml version="1.0" standalone="no"?>
<!DOCTYPE svg PUBLIC "-//W3C//DTD SVG 20010904//EN"
 "http://www.w3.org/TR/2001/REC-SVG-20010904/DTD/svg10.dtd">
<svg version="1.0" xmlns="http://www.w3.org/2000/svg"
 width="1792.000000pt" height="1024.000000pt" viewBox="0 0 1792.000000 1024.000000"
 preserveAspectRatio="xMidYMid meet">

<g transform="translate(0.000000,1024.000000) scale(0.100000,-0.100000)"
fill="#000000" stroke="none">
<path d="M9030 8589 c-259 -31 -487 -101 -726 -219 l-161 -80 -569 0 c-547 1
-571 0 -628 -20 -64 -22 -116 -56 -156 -101 l-25 -29 -55 15 c-30 8 -92 16
-138 17 -45 2 -82 5 -82 8 0 9 151 107 205 133 28 13 79 34 115 47 130 44 181
50 475 50 154 0 286 4 293 9 9 5 12 28 10 77 l-3 69 -250 3 c-138 1 -287 -2
-332 -8 -292 -38 -563 -178 -712 -368 -55 -70 -77 -89 -131 -117 -133 -67
-251 -179 -323 -305 -45 -81 -45 -86 12 -115 28 -14 56 -25 64 -25 7 0 39 38
71 85 87 128 198 222 315 266 148 55 294 60 416 14 37 -14 79 -25 94 -25 37 0
68 24 76 59 9 41 57 82 112 95 34 9 156 11 417 8 l369 -4 -37 -37 -36 -36
-271 -5 c-229 -4 -272 -7 -282 -20 -9 -12 -35 -17 -102 -19 -96 -3 -125 -16
-125 -55 1 -49 5 -50 252 -61 l233 -10 3 -42 3 -43 -240 0 c-272 0 -356 13
-486 75 -126 61 -199 68 -289 26 -23 -10 -61 -24 -86 -31 -69 -19 -115 -71
-131 -149 -11 -50 -19 -65 -39 -76 -14 -7 -38 -27 -55 -45 l-30 -31 -5 -257
c-3 -141 -7 -248 -8 -236 -4 43 -67 149 -127 213 l-61 66 12 70 c6 39 11 70
10 71 0 0 -28 19 -60 42 -43 30 -63 39 -72 32 -12 -11 -41 -111 -46 -160 -3
-22 -7 -25 -39 -22 -155 14 -329 -89 -397 -236 -24 -50 -27 -69 -27 -157 1
-81 5 -111 24 -160 41 -102 168 -211 272 -232 27 -5 29 -9 29 -49 0 -42 -1
-43 -37 -50 -59 -11 -99 -31 -122 -60 -27 -34 -26 -42 5 -75 24 -25 28 -26 52
-13 20 10 70 14 190 14 89 0 162 -2 162 -5 0 -10 30 -211 36 -237 l6 -28 -199
0 c-141 0 -202 3 -211 12 -7 7 -12 45 -12 97 0 48 -4 91 -8 96 -4 6 -32 9 -63
7 l-56 -4 -6 -111 c-10 -163 -8 -640 3 -721 16 -128 122 -285 213 -315 l37
-13 -58 -38 c-66 -42 -102 -84 -129 -150 -16 -40 -18 -75 -18 -295 1 -235 2
-253 22 -297 46 -100 147 -176 245 -186 l48 -5 0 -44 c0 -99 76 -148 135 -88
21 20 25 34 25 80 l0 55 81 0 81 0 48 -43 c119 -107 227 -157 290 -135 36 12
50 35 50 81 0 19 3 49 6 66 6 30 9 31 55 31 27 0 49 -1 50 -2 0 -2 4 -56 9
-120 12 -175 50 -245 138 -262 38 -7 39 -2 17 71 -22 76 -36 201 -29 261 l6
52 50 0 c47 0 50 -1 44 -22 -19 -68 -18 -136 3 -212 27 -100 45 -134 89 -171
76 -65 106 -69 175 -25 26 16 61 30 77 30 29 0 30 -2 30 -45 0 -38 3 -45 20
-45 12 0 20 -7 20 -17 0 -10 3 -28 6 -40 l6 -23 -203 -2 -204 -3 -6 -100 c-4
-55 -8 -309 -9 -565 -1 -256 -4 -457 -7 -448 -2 10 -9 18 -15 18 -5 0 -7 -8
-4 -17 9 -26 -29 23 -58 74 -14 24 -21 43 -16 43 5 0 12 16 16 35 3 19 10 35
15 35 5 0 9 122 8 278 -1 316 -6 351 -56 365 -57 17 -80 3 -92 -53 -6 -27 -8
-56 -5 -64 3 -9 -2 -23 -12 -33 -12 -13 -19 -14 -22 -5 -2 6 -12 12 -22 12
-24 0 -29 8 -36 62 -6 40 -3 48 40 104 67 90 86 136 86 219 0 91 -12 133 -58
194 -73 97 -161 145 -289 157 -53 5 -81 14 -127 42 -45 26 -63 33 -75 25 -20
-13 -66 -129 -82 -210 -7 -35 -16 -63 -20 -63 -4 0 -39 41 -78 90 -75 96 -88
102 -141 75 -33 -17 -49 -59 -32 -86 6 -9 45 -60 86 -114 42 -53 76 -100 76
-105 0 -5 -12 -17 -26 -27 -15 -9 -40 -35 -55 -57 -42 -56 -38 -108 16 -238 6
-16 -1 -18 -73 -18 -92 0 -87 4 -119 -125 -22 -91 -24 -369 -4 -470 69 -346
345 -730 696 -966 153 -104 354 -195 525 -239 231 -59 61 -54 2125 -58 1270
-2 1922 1 1988 8 485 51 898 282 1184 662 182 240 262 448 278 721 7 115 8
118 35 132 38 20 90 81 91 108 0 12 0 73 -1 134 -1 62 2 151 6 197 l7 85 38 6
c75 13 151 82 193 177 21 46 25 72 28 188 l3 135 -135 5 -135 5 -3 107 c-2 96
-5 109 -23 118 -13 8 -197 10 -577 8 -511 -3 -560 -4 -585 -20 -53 -35 -52
-24 -54 -588 l-1 -525 -36 -3 c-34 -3 -35 -2 -40 40 -3 24 -7 201 -10 393 -5
346 10 735 30 767 5 7 7 37 5 67 -2 37 0 51 8 47 7 -5 9 -22 5 -48 -7 -39 -6
-40 16 -28 12 7 20 7 16 2 -3 -6 12 -3 34 5 22 9 38 19 35 22 -2 4 4 8 13 10
9 2 275 5 590 7 l572 4 0 590 0 590 -22 14 c-13 7 -35 16 -50 20 l-27 6 30 45
c16 24 40 70 52 102 20 55 22 75 25 460 2 277 0 409 -8 423 -9 16 -21 20 -65
20 l-54 0 30 65 c52 116 73 222 73 380 0 109 -5 159 -22 227 -29 117 -79 238
-135 326 l-47 73 -48 -27 c-91 -53 -87 -43 -47 -115 117 -210 149 -314 149
-484 0 -199 -42 -298 -152 -358 -140 -76 -282 -100 -471 -78 -211 24 -366 152
-417 345 -21 79 -18 105 12 116 38 15 41 13 47 -27 18 -108 125 -241 242 -299
61 -30 87 -37 157 -41 155 -10 270 30 359 124 148 156 158 414 22 591 -40 53
-139 120 -202 138 -31 8 -90 26 -131 39 -86 29 -142 31 -193 10 -37 -15 -87
-61 -87 -80 0 -5 -4 -16 -9 -24 -7 -11 -16 -6 -40 22 l-32 35 -114 4 c-125 3
-138 9 -154 66 l-10 32 148 0 c168 0 176 3 175 71 -1 22 2 39 7 39 5 0 9 -13
9 -30 0 -66 86 -95 135 -45 14 13 25 30 25 38 0 34 -24 79 -49 92 -24 12 -32
11 -67 -4 -33 -14 -63 -16 -191 -13 -138 4 -152 6 -156 23 -3 11 -1 17 4 13 5
-3 9 1 9 8 0 8 6 23 14 34 12 16 30 20 124 24 100 5 113 7 138 30 54 50 67
116 34 179 -32 63 -95 108 -220 154 -52 20 -81 21 -480 27 l-425 5 -80 41
c-222 115 -446 193 -669 235 -127 24 -458 34 -586 18z m462 -154 c43 -4 76
-10 74 -14 -2 -3 16 -6 40 -7 25 0 55 -6 67 -12 12 -6 40 -14 62 -18 22 -4 43
-8 48 -9 4 -2 11 -3 16 -4 4 0 6 -12 4 -25 -6 -28 -22 -33 -105 -28 -49 3 -58
7 -58 23 0 10 -4 19 -10 19 -5 0 -10 -9 -10 -20 0 -18 -7 -20 -70 -20 -56 0
-70 3 -70 15 0 8 -4 15 -10 15 -5 0 -10 -7 -10 -15 0 -13 -39 -15 -290 -15
-257 0 -290 2 -290 16 0 18 -17 37 -45 48 -20 8 -20 8 1 16 12 5 43 7 69 5 32
-2 43 0 34 7 -11 7 -9 8 6 6 15 -3 19 -10 17 -31 -3 -25 -1 -27 37 -27 34 0
41 3 41 19 0 11 6 22 13 25 10 5 10 7 0 12 -7 3 -13 10 -13 16 0 7 21 9 63 5
41 -5 57 -4 47 3 -17 11 212 7 342 -5z m-717 -54 c3 -5 2 -12 -3 -15 -5 -3 -9
1 -9 9 0 17 3 19 12 6z m1090 -35 c12 -12 12 -15 -1 -20 -24 -9 -41 -6 -19 4
11 5 14 9 8 9 -7 1 -13 6 -13 11 0 14 9 12 25 -4z m-1155 -16 c0 -5 -8 -10
-17 -10 -15 0 -16 2 -3 10 19 12 20 12 20 0z m1220 2 c0 -5 -7 -9 -15 -9 -8 0
-15 4 -15 9 0 4 7 8 15 8 8 0 15 -4 15 -8z m71 -22 c20 0 8 -26 -13 -27 -18
-2 -20 0 -8 7 14 9 7 14 -12 11 -5 0 -8 4 -8 10 0 6 7 8 16 5 9 -3 20 -6 25
-6z m214 -108 c-3 -3 -11 0 -18 7 -9 10 -8 11 6 5 10 -3 15 -9 12 -12z m1010
-85 c41 -16 95 -50 95 -59 0 -4 -105 -8 -232 -8 -213 0 -236 2 -265 20 -17 10
-37 28 -43 39 -11 21 -10 21 202 20 138 0 224 -5 243 -12z m-112 -234 c-29 -2
-77 -2 -105 0 -29 2 -6 3 52 3 58 0 81 -1 53 -3z m-803 -278 l0 -225 -158 0
c-176 0 -239 -12 -292 -56 -60 -51 -65 -70 -65 -274 l0 -185 260 -5 261 -5
-52 -240 c-29 -132 -53 -243 -53 -247 -1 -4 -94 -9 -208 -10 l-208 -3 -3 -448
-2 -447 -278 2 -277 3 -3 448 -2 447 -230 0 -230 0 0 250 0 250 229 0 229 0 5
238 c3 180 8 251 21 296 67 239 246 395 491 429 17 2 150 5 298 6 l267 1 0
-225z m-3626 100 c19 -10 59 -15 127 -15 116 0 120 -4 129 -109 l5 -63 43 -2
c29 -2 50 -10 65 -24 21 -22 22 -32 27 -265 3 -133 2 -244 -1 -247 -4 -3 -206
-5 -450 -5 l-443 0 -3 235 -4 235 29 34 c24 29 36 35 73 37 l44 2 3 101 3 101
162 0 c124 0 169 -4 191 -15z m726 -60 c0 -3 -9 -23 -20 -44 -14 -28 -27 -40
-48 -44 -22 -4 -33 -15 -41 -38 -18 -51 -13 -78 19 -111 17 -16 30 -34 30 -40
0 -30 -94 -326 -109 -341 -16 -16 -17 -4 -16 236 l0 253 -28 43 c-16 24 -42
50 -58 59 -16 10 -29 20 -29 25 0 4 68 7 150 7 83 0 150 -2 150 -5z m3898
-241 c39 -4 72 -9 72 -12 0 -4 -15 -34 -32 -69 -31 -59 -35 -63 -69 -63 -31 0
-37 5 -53 38 -48 99 -49 127 -6 117 8 -2 48 -7 88 -11z m558 -1 c66 -22 145
-101 167 -167 40 -117 10 -236 -79 -315 -55 -49 -118 -71 -199 -71 -88 0 -148
24 -205 81 -146 146 -104 377 84 465 62 29 159 32 232 7z m-6135 -206 c40 -22
109 -96 109 -118 0 -5 -28 -9 -61 -9 -53 0 -65 4 -85 25 -15 16 -34 25 -54 25
-20 0 -38 -9 -52 -25 -19 -22 -30 -25 -84 -25 -59 0 -62 1 -56 22 8 33 86 106
124 117 58 16 112 12 159 -12z m363 -336 c18 -20 29 -21 280 -22 280 -2 827
-14 761 -17 -49 -3 -67 -13 -56 -31 6 -9 23 -12 50 -9 22 2 41 0 41 -4 0 -5
-21 -9 -47 -10 l-48 -1 45 -6 c49 -7 -515 -21 -836 -21 -226 0 -214 4 -214
-75 l0 -43 -28 13 c-15 8 -58 15 -95 17 l-67 2 29 23 c75 59 149 217 153 327
1 35 3 25 7 -36 5 -65 11 -91 25 -107z m-517 49 c20 -54 103 -49 128 8 9 20
17 22 77 22 45 0 68 -4 68 -12 0 -26 -52 -96 -91 -124 -38 -26 -51 -29 -118
-29 -67 0 -81 3 -119 29 -42 28 -73 70 -87 114 -6 21 -4 22 62 22 67 0 69 -1
80 -30z m1438 -330 l50 -29 -266 -3 c-207 -2 -270 -6 -282 -17 -15 -12 -17
-62 -17 -527 l0 -514 138 0 c77 0 173 -3 215 -6 l77 -7 0 -43 0 -44 -209 0
c-232 0 -235 -1 -235 -66 0 -61 29 -78 137 -82 96 -4 117 -12 117 -43 0 -18
-11 -19 -200 -19 -110 0 -200 4 -200 9 0 5 7 14 15 21 8 6 23 36 35 66 19 53
20 76 20 618 l0 563 -26 26 c-19 19 -25 33 -20 49 18 70 49 77 351 77 l250 1
50 -30z m-1223 -1 c11 -6 14 -16 10 -31 -8 -34 -27 -48 -61 -48 -30 0 -31 1
-31 50 l0 50 33 -7 c17 -3 39 -10 49 -14z m338 6 c16 -9 37 -29 45 -45 l16
-30 -44 0 c-25 0 -58 -3 -76 -6 -39 -8 -48 10 -27 60 17 40 38 46 86 21z
m1004 -161 c14 -13 16 -59 17 -342 1 -382 3 -360 -20 -391 -17 -24 -19 -25
-190 -26 l-174 -1 -22 -28 c-20 -24 -25 -27 -44 -16 -12 6 -31 26 -41 43 -19
30 -20 53 -20 389 0 223 4 359 10 363 25 16 110 23 282 24 157 1 189 -1 202
-15z m4282 -4 c9 0 14 -11 14 -30 0 -22 5 -30 18 -30 15 0 18 -6 14 -29 -2
-17 1 -32 9 -37 7 -4 76 -8 153 -8 109 0 118 0 39 -3 -95 -3 -103 -5 -103 -23
0 -21 -2 -22 -65 -22 -51 0 -58 -5 -44 -30 8 -15 8 -19 0 -14 -6 4 -11 1 -11
-6 0 -16 -47 -39 -66 -31 -11 4 -14 31 -14 127 0 70 5 127 11 136 9 13 10 12
5 -2 -4 -14 0 -18 22 -18 23 1 24 2 10 11 -10 5 -18 15 -17 22 0 9 2 9 6 0 2
-7 11 -13 19 -13z m49 -299 c-6 -5 -25 10 -25 20 0 5 6 4 14 -3 8 -7 12 -15
11 -17z m-17 -99 c-4 -12 1 -18 14 -19 10 -1 16 3 12 9 -4 6 1 6 14 -1 12 -6
23 -7 26 -3 4 7 177 6 182 -1 0 -1 -3 -17 -8 -34 l-9 -33 -144 0 c-136 0 -145
1 -159 21 -17 25 -10 35 39 62 38 21 38 21 33 -1z m-5388 -290 c0 -180 -3
-251 -12 -260 -9 -9 -88 -12 -295 -12 l-283 0 -10 26 c-6 14 -10 131 -10 260
l0 234 305 0 305 0 0 -248z m6260 48 c0 -6 -7 -27 -15 -47 -14 -34 -16 -35
-33 -19 -16 14 -54 16 -323 16 -322 0 -329 -1 -329 -46 0 -43 25 -54 115 -54
l83 0 4 -45 3 -45 -80 0 -80 0 3 -525 2 -525 -182 0 c-157 0 -184 -2 -200 -17
-17 -15 -20 -15 -28 -3 -6 8 -10 13 -11 10 0 -3 -2 -17 -4 -32 -2 -16 -6 -38
-10 -50 -5 -18 -4 -20 4 -8 9 12 11 11 11 -7 0 -31 -38 -18 -48 16 -8 29 -6
328 3 376 4 27 11 33 51 43 25 7 50 10 55 6 5 -3 9 -2 7 3 -1 4 15 26 36 49
l37 41 2 234 1 234 6 -230 c3 -126 7 -232 8 -234 1 -2 8 -1 16 2 33 13 20 -59
-18 -102 -25 -28 -91 -60 -123 -61 -20 0 -23 -5 -23 -35 0 -21 -5 -35 -12 -36
-9 0 -9 -2 -2 -5 7 -3 10 -21 7 -48 l-5 -43 168 -5 c93 -3 172 -3 177 -1 4 2
7 274 7 604 l0 599 360 0 c241 0 360 -3 360 -10z m-212 -192 l-3 -43 -57 -3
-58 -3 0 46 0 45 61 0 60 0 -3 -42z m-4664 -54 c-6 -3 -9 -15 -7 -28 4 -18 15
-26 46 -34 35 -8 20 -10 -91 -11 -101 -1 -142 -5 -168 -17 -63 -30 -64 -35
-64 -285 0 -218 1 -227 23 -260 34 -52 97 -79 183 -79 l72 0 6 -42 c3 -24 13
-207 21 -408 8 -201 17 -385 20 -410 2 -25 2 -37 -1 -27 -8 25 -42 22 -46 -5
-6 -36 -17 74 -24 245 l-6 157 -382 0 c-209 0 -472 -3 -583 -7 l-202 -6 -3
-81 -3 -80 -97 81 -96 81 -209 4 c-207 3 -210 3 -250 30 -67 44 -72 64 -75
319 -3 256 1 272 77 309 40 19 64 20 708 20 l667 0 0 -81 c0 -165 50 -251 168
-290 37 -12 75 -28 84 -37 17 -14 41 -72 52 -124 6 -27 9 -28 71 -28 l65 0 -1
88 c-1 48 -4 116 -8 152 -6 60 -8 65 -31 68 -133 14 -235 81 -259 169 -6 21
-11 136 -11 263 0 214 1 227 23 264 36 63 67 80 160 87 105 7 185 9 171 3z
m141 -33 c0 -6 7 -16 15 -21 12 -7 10 -9 -7 -7 -12 0 -20 3 -18 5 2 3 0 14 -6
24 -9 16 -8 19 3 16 7 -3 13 -10 13 -17z m3366 -15 c-11 -12 -5 -15 31 -19 39
-4 38 -4 -9 -4 -51 1 -52 1 -36 19 19 21 31 25 14 4z m1377 -512 c2 -413 2
-422 -19 -448 l-20 -26 -173 0 c-160 0 -174 -1 -191 -20 -24 -27 -33 -25 -72
12 l-33 32 0 438 0 438 253 -2 252 -3 3 -421z m-1095 179 c-3 -87 -7 -159 -8
-161 -1 -1 -880 -5 -1953 -9 l-1952 -6 0 166 0 167 1960 0 1960 0 -7 -157z
m224 5 c-3 -7 -5 -2 -5 12 0 14 2 19 5 13 2 -7 2 -19 0 -25z m0 -80 c-2 -13
-4 -5 -4 17 -1 22 1 32 4 23 2 -10 2 -28 0 -40z m0 -150 c-3 -8 -6 -5 -6 6 -1
11 2 17 5 13 3 -3 4 -12 1 -19z m-421 -160 c-3 -29 -15 -186 -26 -348 -11
-162 -27 -383 -35 -490 -18 -240 -38 -562 -65 -1040 -11 -201 -25 -419 -30
-485 -6 -66 -16 -210 -24 -320 -15 -214 -27 -267 -78 -348 -45 -70 -108 -121
-206 -164 l-87 -38 -1158 -3 -1158 -2 -92 30 c-143 48 -234 116 -281 208 -48
96 -43 40 -86 922 -10 228 -22 476 -25 550 -5 127 -44 909 -65 1325 -5 105
-10 205 -10 223 l0 32 1716 0 1716 0 -6 -52z m151 -380 c-3 -7 -5 -2 -5 12 0
14 2 19 5 13 2 -7 2 -19 0 -25z m-4107 -293 c31 -16 42 -59 18 -67 -17 -6 40
-58 63 -58 10 0 29 21 47 54 38 67 54 73 94 37 l32 -28 -28 -47 c-42 -72 -85
-116 -112 -116 -35 0 -97 34 -127 69 l-25 30 -32 -50 c-18 -27 -42 -56 -53
-64 -28 -19 -81 -19 -97 0 -15 18 10 70 82 168 68 91 84 100 138 72z m5248
-117 l3 -48 -60 0 c-116 0 -147 -34 -139 -155 8 -114 77 -223 176 -274 22 -12
22 -14 22 -222 0 -126 -4 -218 -10 -230 -10 -18 -26 -19 -448 -19 -240 0 -442
4 -448 8 -32 21 -34 53 -34 509 0 346 3 462 12 471 9 9 122 12 468 10 l455 -3
3 -47z m267 -210 c-17 -82 -93 -198 -130 -198 -17 0 -118 84 -148 123 -19 26
-47 87 -47 103 0 2 75 4 166 4 l166 0 -7 -32z m-6347 0 c61 -15 124 -77 141
-140 21 -74 8 -126 -50 -204 -31 -43 -49 -77 -49 -95 0 -15 16 -72 36 -126 44
-118 61 -204 47 -236 -9 -21 -11 -20 -27 15 -10 20 -39 61 -64 91 -26 29 -82
95 -125 145 -42 51 -83 92 -89 92 -28 0 -178 52 -199 69 l-23 18 34 32 c19 17
42 31 50 31 9 0 56 -13 105 -30 138 -47 165 -42 228 42 41 53 40 117 -2 159
-43 43 -108 39 -164 -9 -29 -25 -57 -23 -57 5 0 61 53 129 112 143 47 11 44
11 96 -2z m1189 -60 c-3 -8 -6 -5 -6 6 -1 11 2 17 5 13 3 -3 4 -12 1 -19z m70
-240 c-3 -7 -5 -2 -5 12 0 14 2 19 5 13 2 -7 2 -19 0 -25z m-1580 -258 l82
-22 116 -139 c64 -77 128 -144 141 -149 28 -11 84 11 84 32 0 7 6 4 14 -7 7
-11 19 -54 25 -95 6 -41 19 -99 27 -129 17 -59 77 -185 101 -212 14 -17 14
-39 0 -50 -5 -3 -2 -9 6 -12 11 -4 15 0 12 14 -5 25 11 25 18 -1 3 -11 1 -20
-5 -20 -5 0 -6 -5 -3 -11 4 -6 -11 -1 -33 10 -29 15 -58 20 -101 20 -34 -1
-58 -5 -55 -10 3 -5 -4 -9 -15 -9 -13 0 -21 -7 -21 -17 0 -9 -3 -13 -7 -10 -3
4 -12 -1 -19 -11 -12 -16 -12 -16 -11 3 2 16 -4 20 -28 19 l-29 -2 29 25 c17
14 25 22 18 19 -7 -4 -6 5 4 24 43 87 37 231 -13 327 -107 202 -350 272 -538
153 l-48 -31 7 58 c7 61 48 212 66 245 13 25 52 22 176 -12z m1343 -219 l0
-60 33 -4 c27 -3 25 -4 -13 -6 -25 -2 -39 -5 -32 -8 6 -2 12 -11 12 -19 0 -16
-26 -19 -35 -4 -3 6 -14 10 -23 10 -13 0 -14 -2 -4 -9 10 -6 8 -10 -10 -14
-12 -4 -26 -7 -30 -7 -5 0 -8 41 -8 90 l0 90 55 0 55 0 0 -59z m158 -68 c-10
-2 -26 -2 -35 0 -10 3 -2 5 17 5 19 0 27 -2 18 -5z m4325 -104 c9 -17 17 -35
17 -40 0 -5 -22 -9 -50 -9 -46 0 -50 2 -50 24 0 41 11 56 39 56 19 0 31 -9 44
-31z m-5734 -18 c131 -68 157 -239 50 -336 -50 -45 -76 -55 -142 -55 -117 0
-210 115 -192 235 20 135 167 215 284 156z m1259 -48 l3 -33 -79 0 c-69 0 -80
2 -85 19 -10 41 10 52 86 49 l72 -3 3 -32z m259 5 c-3 -8 -6 -5 -6 6 -1 11 2
17 5 13 3 -3 4 -12 1 -19z m-97 -58 c0 -17 7 -20 47 -20 46 0 46 0 27 -21 -17
-19 -19 -19 -25 -2 -6 14 -8 14 -8 3 -1 -9 4 -21 11 -28 7 -7 8 -12 2 -12 -6
0 -11 -6 -11 -12 0 -7 -26 -58 -57 -114 l-57 -101 -3 -284 -3 -284 29 -77 c16
-42 40 -93 54 -113 15 -23 24 -48 22 -64 -3 -26 -4 -26 -95 -29 l-93 -3 0 329
c0 412 0 416 -54 449 -23 14 -42 27 -44 28 -6 5 82 153 107 180 26 27 29 35
25 93 -3 60 -2 62 21 62 22 0 30 9 26 33 0 4 17 7 39 7 33 0 40 -3 40 -20z
m100 10 c0 -5 -2 -10 -4 -10 -3 0 -8 5 -11 10 -3 6 -1 10 4 10 6 0 11 -4 11
-10z m-270 -95 l0 -35 -74 0 c-67 0 -75 2 -81 21 -10 30 2 37 65 42 30 2 63 4
73 5 13 2 17 -6 17 -33z m4895 -17 c-23 -116 -94 -274 -176 -393 -82 -118 -73
-111 -114 -89 -42 22 -43 33 -9 65 37 34 122 161 150 225 31 70 31 99 -1 120
-23 15 -27 15 -49 0 -14 -8 -59 -67 -101 -131 -86 -131 -193 -243 -265 -280
-61 -31 -139 -34 -163 -7 -15 16 -12 20 51 52 81 41 195 151 239 230 29 51 64
148 78 213 l5 27 181 0 181 0 -7 -32z m-598 -65 c-8 -44 -50 -130 -87 -175
-37 -45 -129 -91 -164 -82 -14 3 -29 10 -32 16 -3 5 25 41 63 81 37 40 91 100
118 135 40 50 56 62 79 62 27 0 28 -2 23 -37z m-4574 -47 c10 -21 16 -48 13
-60 -7 -25 -61 -86 -98 -110 l-28 -18 0 110 c0 107 1 111 23 115 52 11 71 3
90 -37z m-918 -226 c3 -5 0 -7 -8 -4 -8 3 -18 1 -22 -5 -3 -7 3 -11 17 -12 13
0 17 -3 9 -6 -10 -4 -10 -7 -1 -13 8 -5 9 -13 4 -23 -5 -9 -7 -49 -4 -90 6
-85 2 -86 -55 -17 -20 25 -44 54 -53 65 -10 11 -27 34 -39 51 l-22 31 60 7
c33 3 68 10 77 16 22 12 29 12 37 0z m302 -145 c28 -30 55 -55 60 -55 4 0 30
18 57 40 49 41 81 55 111 48 9 -1 76 -68 149 -148 174 -191 226 -219 249 -131
11 46 -7 94 -49 126 -41 31 -42 44 -8 76 21 20 38 24 100 27 l74 4 0 -281 0
-281 -22 0 c-30 0 -36 5 -93 70 -99 113 -419 440 -430 440 -6 0 -26 -15 -44
-34 -40 -41 -82 -60 -114 -52 -30 7 -146 124 -153 154 -4 12 -1 29 6 37 24 29
55 17 107 -40z"/>
<path d="M9130 8410 c-12 -8 -11 -10 8 -10 12 0 22 5 22 10 0 13 -11 13 -30 0z"/>
<path d="M9480 8416 c0 -2 9 -6 20 -9 11 -3 18 -1 14 4 -5 9 -34 13 -34 5z"/>
<path d="M9240 8375 c0 -8 9 -15 20 -15 11 0 20 7 20 15 0 8 -9 15 -20 15 -11
0 -20 -7 -20 -15z"/>
<path d="M6449 7543 c-6 -17 -8 -56 -4 -100 6 -70 7 -72 38 -79 l30 -6 -24
-19 c-49 -39 -127 -79 -153 -79 -26 0 -26 -1 -26 -71 0 -54 3 -70 13 -66 7 2
75 44 152 92 93 58 149 88 167 87 17 0 69 -29 135 -75 60 -40 125 -84 146 -96
l37 -23 0 76 c0 75 0 76 -25 76 -29 0 -75 21 -122 58 -38 28 -41 38 -13 47 19
6 21 13 18 103 l-3 97 -178 3 -177 2 -11 -27z"/>
<path d="M11685 7296 c-62 -28 -105 -94 -105 -161 0 -70 37 -125 105 -156 157
-72 308 98 220 248 -43 73 -141 104 -220 69z"/>
<path d="M6732 6348 c-7 -7 -12 -19 -12 -28 0 -35 21 -40 156 -40 73 0 144 4
158 10 31 11 35 45 7 60 -28 15 -294 13 -309 -2z"/>
<path d="M6720 6185 c-6 -8 -10 -22 -8 -32 3 -16 16 -18 102 -21 55 -1 104 2
109 7 5 5 7 21 3 35 -6 26 -8 26 -100 26 -70 0 -97 -4 -106 -15z"/>
<path d="M6987 6193 c-4 -3 -7 -19 -7 -34 0 -41 42 -52 80 -21 19 16 21 22 11
40 -8 16 -21 22 -45 22 -18 0 -36 -3 -39 -7z"/>
<path d="M6722 6028 c-16 -16 -15 -33 4 -52 13 -13 42 -16 164 -16 131 0 150
2 171 19 20 16 22 23 13 38 -10 16 -29 18 -175 21 -120 2 -168 -1 -177 -10z"/>
<path d="M6722 5848 c-7 -7 -12 -19 -12 -28 0 -35 21 -40 173 -40 152 0 187 7
187 38 0 38 -19 42 -180 42 -108 0 -160 -4 -168 -12z"/>
<path d="M11650 5990 c0 -5 5 -10 10 -10 6 0 10 5 10 10 0 6 -4 10 -10 10 -5
0 -10 -4 -10 -10z"/>
<path d="M11648 5953 c7 -3 16 -2 19 1 4 3 -2 6 -13 5 -11 0 -14 -3 -6 -6z"/>
<path d="M5660 5865 l0 -35 90 0 90 0 0 35 0 35 -90 0 -90 0 0 -35z"/>
<path d="M5660 5725 l0 -35 90 0 90 0 0 35 0 35 -90 0 -90 0 0 -35z"/>
<path d="M5654 5605 c-15 -38 2 -45 101 -45 l95 0 0 30 0 30 -95 0 c-76 0 -97
-3 -101 -15z"/>
<path d="M11375 4820 c3 -5 8 -10 11 -10 2 0 4 5 4 10 0 6 -5 10 -11 10 -5 0
-7 -4 -4 -10z"/>
<path d="M7388 5523 c7 -3 16 -2 19 1 4 3 -2 6 -13 5 -11 0 -14 -3 -6 -6z"/>
<path d="M5630 4823 c-19 -24 -21 -37 -17 -91 5 -72 22 -97 75 -112 51 -14 63
0 59 69 l-2 56 30 0 c30 0 30 0 33 -62 3 -60 4 -63 28 -63 15 0 38 12 55 29
26 26 29 36 29 93 0 103 -7 108 -150 108 -117 0 -119 0 -140 -27z"/>
<path d="M5994 4795 c-19 -30 -11 -63 19 -70 12 -3 202 -4 422 -3 l400 3 3 33
c6 64 20 62 -424 62 l-404 0 -16 -25z"/>
<path d="M5996 4544 c-21 -21 -20 -57 2 -77 17 -15 73 -17 598 -17 438 0 583
3 592 12 13 13 16 56 6 82 -6 14 -67 16 -594 16 -522 0 -590 -2 -604 -16z"/>
<path d="M5667 4543 c-24 -6 -40 -49 -27 -73 12 -23 52 -33 84 -20 21 8 26 16
26 45 0 29 -5 37 -26 45 -27 10 -28 11 -57 3z"/>
<path d="M5828 4543 c-20 -5 -33 -44 -24 -68 8 -22 52 -36 80 -26 29 12 38 34
26 65 -12 32 -37 41 -82 29z"/>
<path d="M11892 5268 c-18 -18 -14 -56 7 -68 11 -5 84 -10 166 -10 152 0 185
7 185 40 0 44 -22 50 -189 50 -109 0 -161 -4 -169 -12z"/>
<path d="M11887 5093 c-11 -11 -8 -48 5 -61 8 -8 61 -12 174 -12 134 0 165 3
178 16 19 18 19 20 6 45 -10 18 -23 19 -184 19 -95 0 -176 -3 -179 -7z"/>
<path d="M11900 4912 c-22 -17 -23 -23 -12 -46 l12 -26 163 0 c167 0 187 4
187 41 0 35 -27 42 -178 47 -136 4 -149 3 -172 -16z"/>
<path d="M11892 4708 c-18 -18 -14 -56 7 -68 11 -5 87 -10 174 -10 136 0 156
2 170 18 21 23 21 36 1 56 -13 13 -44 16 -178 16 -113 0 -166 -4 -174 -12z"/>
<path d="M8675 4676 c-42 -18 -93 -79 -100 -118 -3 -18 -4 -652 -3 -1408 l3
-1375 23 -32 c33 -47 82 -73 136 -73 68 0 122 34 155 97 15 30 16 2769 0 2810
-33 87 -134 134 -214 99z"/>
<path d="M9460 4668 c-25 -14 -58 -44 -75 -67 l-30 -43 0 -1382 0 -1382 25
-36 c79 -116 234 -119 289 -4 21 42 21 47 21 1432 0 1303 -1 1391 -18 1423
-39 77 -131 102 -212 59z"/>
<path d="M10010 4679 c-52 -16 -95 -53 -119 -102 l-21 -44 2 -1380 3 -1380 28
-36 c40 -53 79 -70 147 -65 68 5 112 33 140 88 20 39 20 64 20 1432 0 1364 0
1394 -20 1425 -33 55 -112 82 -180 62z"/>
<path d="M10538 4680 c-15 -4 -41 -18 -57 -29 -62 -45 -59 31 -65 -1514 l-6
-1409 29 -29 c26 -25 37 -29 86 -29 30 0 70 6 88 13 44 19 104 88 116 134 5
21 12 245 15 498 4 253 11 654 16 890 5 237 10 646 12 910 3 452 2 482 -15
507 -38 55 -140 82 -219 58z"/>
<path d="M7864 4642 c-62 -40 -63 -54 -34 -827 5 -137 14 -488 20 -780 19
-976 26 -1149 48 -1197 29 -65 66 -104 134 -137 163 -82 357 -3 403 164 7 28
16 74 20 103 5 47 4 52 -14 52 -17 0 -20 10 -25 92 -4 51 -8 597 -9 1213 -1
860 -5 1125 -14 1140 -12 19 -12 19 -13 -3 0 -13 -4 -20 -10 -17 -5 3 -10 -2
-10 -11 0 -10 -10 -28 -22 -42 l-23 -24 -2 -726 c-6 -1708 -7 -1724 -26 -1760
-16 -29 -61 -62 -71 -51 -8 9 -28 1899 -25 2347 l4 472 -46 0 c-25 0 -93 3
-150 6 -93 5 -107 3 -135 -14z"/>
<path d="M9036 4638 c11 -29 12 -2882 1 -2925 l-9 -33 84 0 83 0 0 1462 c0
805 3 1475 8 1491 l7 27 -91 0 c-91 0 -91 0 -83 -22z"/>
<path d="M11497 3892 c-21 -23 -22 -56 -1 -76 13 -14 51 -16 255 -16 147 0
248 4 260 10 23 13 26 62 3 84 -13 14 -51 16 -258 16 -223 0 -244 -2 -259 -18z"/>
<path d="M11484 3645 c-15 -23 -15 -27 0 -50 l16 -25 258 -1 c141 -1 264 -1
272 0 16 2 50 37 50 52 0 5 -9 18 -20 29 -19 19 -33 20 -290 20 l-270 0 -16
-25z"/>
<path d="M11492 3438 c-7 -7 -12 -21 -12 -33 0 -40 18 -45 155 -45 137 0 155
5 155 45 0 12 -5 26 -12 33 -17 17 -269 17 -286 0z"/>
<path d="M11897 3432 c-36 -40 -5 -82 60 -82 61 0 94 48 57 84 -22 23 -96 21
-117 -2z"/>
<path d="M11490 3222 c-29 -24 -21 -64 15 -80 18 -8 122 -12 344 -12 294 0
321 1 341 18 30 24 21 68 -16 82 -14 6 -163 10 -344 10 -293 0 -320 -1 -340
-18z"/>
<path d="M6460 2500 c0 -5 7 -10 15 -10 8 0 15 5 15 10 0 6 -7 10 -15 10 -8 0
-15 -4 -15 -10z"/>
<path d="M5895 2701 c-46 -19 -72 -72 -56 -115 25 -63 133 -85 173 -36 38 47
14 129 -44 149 -36 13 -45 13 -73 2z"/>
<path d="M8251 8564 c-25 -32 -25 -33 -5 -62 33 -47 112 -14 98 42 -12 50 -61
60 -93 20z"/>
<path d="M10217 8572 c-21 -23 -22 -56 -1 -76 39 -40 105 4 85 56 -15 40 -57
50 -84 20z"/>
<path d="M7770 8490 l0 -80 155 0 155 0 0 80 0 80 -155 0 -155 0 0 -80z"/>
<path d="M10460 8490 l0 -81 158 3 157 3 0 75 0 75 -157 3 -158 3 0 -81z"/>
<path d="M10972 8558 c-7 -7 -12 -36 -12 -64 0 -74 13 -84 108 -84 193 -1 385
-86 565 -251 l59 -54 -11 -63 c-28 -150 43 -285 181 -347 126 -57 255 -30 348
72 139 152 91 389 -98 479 -78 38 -182 39 -262 3 l-55 -25 -79 68 c-173 149
-338 231 -540 267 -80 15 -189 14 -204 -1z m1066 -472 c98 -51 108 -172 19
-226 -66 -41 -158 -14 -191 54 -32 67 -12 132 52 165 44 24 83 26 120 7z"/>
<path d="M5495 6266 c-20 -30 -7 -62 31 -76 37 -14 207 -13 222 2 18 18 14 56
-8 78 -17 17 -33 20 -125 20 -100 0 -105 -1 -120 -24z"/>
</g>
</svg>
