<?xml version="1.0" standalone="no"?>
<!DOCTYPE svg PUBLIC "-//W3C//DTD SVG 20010904//EN"
 "http://www.w3.org/TR/2001/REC-SVG-20010904/DTD/svg10.dtd">
<svg version="1.0" xmlns="http://www.w3.org/2000/svg"
 width="1018.000000pt" height="632.000000pt" viewBox="0 0 1018.000000 632.000000"
 preserveAspectRatio="xMidYMid meet">

<g transform="translate(0.000000,632.000000) scale(0.100000,-0.100000)"
fill="#000000" stroke="none">
<path d="M4880 5818 c-14 -12 -32 -34 -40 -47 l-15 -23 -112 25 c-118 27 -159
25 -208 -7 -81 -53 -66 -194 26 -241 16 -9 66 -22 111 -30 138 -25 128 -20
128 -68 0 -48 22 -77 72 -96 28 -11 333 -46 493 -57 99 -6 135 -15 213 -52
l52 -24 0 -50 c0 -56 8 -75 56 -135 19 -23 34 -46 34 -51 0 -15 -157 -107
-286 -168 -227 -109 -507 -183 -824 -220 -128 -15 -303 -18 -1467 -21 l-1322
-4 34 -51 c19 -28 35 -54 35 -58 0 -7 -207 -377 -269 -481 l-22 -37 50 -36
c27 -20 56 -36 66 -36 15 0 251 55 347 80 31 9 45 23 98 105 33 52 63 95 65
95 2 0 20 -9 39 -21 30 -17 34 -24 26 -39 -38 -71 -31 -198 13 -253 12 -16 65
-50 116 -75 92 -46 94 -48 113 -100 28 -77 68 -111 199 -169 63 -28 244 -113
403 -188 298 -142 340 -156 410 -137 l38 11 78 -162 c107 -223 105 -202 16
-216 -42 -6 -79 -12 -83 -13 -4 -1 -57 48 -116 109 -127 129 -163 154 -201
133 -23 -12 -29 -11 -63 14 -68 47 -91 73 -95 102 -3 26 -12 33 -88 66 -96 42
-116 45 -141 22 -16 -15 -26 -15 -81 -4 -52 10 -68 18 -93 48 l-31 35 -171
-22 c-168 -21 -259 -42 -358 -80 -47 -18 -50 -21 -48 -53 2 -31 -2 -36 -68
-75 -39 -24 -77 -43 -84 -43 -6 0 -20 9 -30 20 -19 21 -19 20 -98 -57 -98 -97
-102 -104 -78 -134 18 -24 18 -24 -24 -84 -40 -58 -44 -60 -86 -60 l-43 0 -47
-85 c-63 -114 -65 -124 -34 -138 30 -14 30 -16 5 -101 -20 -64 -23 -68 -58
-77 -34 -8 -37 -13 -48 -60 -6 -29 -13 -77 -16 -109 -5 -57 -5 -57 29 -71 33
-14 33 -14 33 -84 l0 -70 -36 -15 -37 -15 7 -83 c10 -119 13 -127 45 -127 38
0 55 -17 80 -82 l23 -57 -33 -29 c-39 -35 -38 -37 38 -160 33 -54 50 -72 62
-68 9 2 25 7 36 11 16 5 31 -7 73 -59 l52 -65 -150 -3 -151 -3 85 -101 85
-101 3424 -1 3424 -1 77 102 78 102 -166 3 -165 2 -27 36 -27 35 58 59 59 60
41 -25 42 -24 44 47 c25 26 62 67 83 91 l38 43 -40 42 -41 41 41 68 c37 61 44
68 66 62 81 -20 73 -26 119 90 l42 107 -30 16 c-65 36 -64 34 -50 98 20 93 18
91 62 97 23 3 46 10 51 15 6 6 13 62 16 125 l5 114 -47 5 c-26 3 -49 8 -52 11
-3 3 -8 42 -11 86 l-6 81 42 17 c33 13 41 21 41 42 0 22 -20 105 -45 191 -4
11 -17 14 -53 12 l-47 -4 -31 76 -31 75 39 31 39 31 -21 37 c-12 21 -43 68
-71 105 l-49 67 -30 -15 c-44 -23 -54 -19 -102 38 -43 50 -44 53 -32 82 7 17
13 37 14 46 0 17 -51 56 -138 108 l-53 31 -27 -28 -27 -28 -72 35 c-71 35 -73
36 -73 73 0 35 -3 38 -37 47 -21 6 -78 17 -127 24 l-89 15 -15 -39 -15 -39
-66 0 -66 0 -23 41 c-16 27 -28 39 -40 36 -9 -3 -59 -13 -110 -23 -93 -18 -94
-18 -90 -46 3 -15 3 -28 1 -28 -9 0 -257 439 -251 446 12 11 168 46 253 55
208 25 531 -28 838 -137 37 -13 67 -20 67 -15 0 5 -23 45 -52 88 -61 93 -239
273 -322 328 -216 140 -511 225 -785 225 l-97 0 -44 75 -43 76 17 82 c9 45 16
91 16 102 0 22 -32 75 -134 225 -38 55 -66 103 -63 106 3 3 26 -11 52 -30 55
-43 54 -42 224 -56 210 -16 208 -16 252 29 29 32 40 55 53 110 9 38 16 95 16
126 0 51 -3 60 -34 91 -40 40 -49 41 -231 18 -183 -23 -200 -29 -256 -81 l-49
-46 -88 7 c-48 4 -256 27 -462 51 -464 55 -596 85 -672 151 -66 59 -105 80
-328 175 -220 93 -271 104 -310 67z m-115 -149 c56 -14 85 -26 85 -36 0 -24
-28 -26 -120 -8 -91 18 -95 20 -84 49 8 21 18 20 119 -5z m343 -48 c38 -15
110 -48 160 -71 l93 -43 -3 -36 -3 -36 -55 1 c-30 1 -113 7 -183 15 -122 12
-128 13 -123 33 3 12 11 54 18 94 6 39 16 72 20 72 5 0 39 -13 76 -29z m545
-246 c56 -14 112 -30 125 -35 22 -9 22 -11 7 -40 -9 -16 -17 -30 -19 -30 -8 0
-161 67 -204 89 -43 22 -55 41 -26 41 8 0 61 -11 117 -25z m1501 -52 c-4 -21
-9 -41 -11 -45 -5 -10 -123 -10 -187 -2 -42 6 -46 9 -46 34 0 28 0 28 88 35
48 3 94 8 102 9 8 2 25 4 38 5 21 1 22 -2 16 -36z m-630 -148 c113 -139 205
-285 206 -324 0 -16 -44 -14 -346 16 l-170 16 -74 135 c-40 75 -90 163 -111
195 -22 33 -39 63 -39 66 0 4 113 -9 251 -29 l250 -35 33 -40z m-605 -117 l26
-46 -25 -27 c-14 -15 -33 -25 -44 -23 -20 3 -65 70 -66 96 0 14 60 54 74 49 5
-2 21 -24 35 -49z m123 -215 c46 -77 208 -371 208 -377 0 -3 -143 14 -145 17
-5 8 -150 285 -171 327 -14 28 -22 55 -18 59 26 22 68 51 73 51 4 0 28 -35 53
-77z m-207 -124 c41 -79 43 -71 -34 -121 l-33 -21 -92 23 c-50 12 -109 27
-130 32 l-39 10 139 73 c76 41 142 74 145 74 4 1 23 -31 44 -70z m667 -29
c101 -11 192 -22 203 -25 21 -5 92 -122 80 -133 -3 -4 -87 -8 -184 -10 l-178
-4 -53 88 c-65 108 -62 104 -56 104 3 0 88 -9 188 -20z m-927 -243 c132 -40
293 -89 357 -108 112 -33 117 -35 122 -64 13 -69 -45 -205 -287 -665 -72 -137
-91 -164 -162 -235 -82 -82 -162 -131 -231 -142 -38 -6 -41 -2 -19 31 27 40
55 158 55 227 0 36 -7 90 -16 119 l-16 54 25 21 c13 11 50 40 82 63 32 24 53
47 49 52 -13 12 -189 30 -290 30 -51 0 -84 4 -78 9 11 11 256 99 389 140 124
38 135 45 106 60 -12 7 -113 35 -224 62 -257 63 -466 128 -447 139 8 4 44 13
80 19 36 7 74 15 85 18 34 11 -49 22 -175 23 l-115 0 220 109 c121 60 227 110
235 110 8 1 123 -32 255 -72z m-881 -53 c-72 -34 -175 -42 -704 -54 -245 -5
-515 -12 -600 -16 l-155 -6 -50 34 -50 33 705 7 c388 4 732 12 765 16 33 5 78
9 100 10 l40 0 -51 -24z m2570 -24 c64 -16 160 -46 213 -66 97 -36 326 -145
319 -152 -2 -2 -28 4 -57 12 -30 9 -131 34 -226 55 -407 94 -553 94 -816 0
-61 -21 -112 -39 -113 -39 -5 0 -76 131 -73 134 6 4 295 65 359 75 30 5 105 9
167 10 94 1 130 -4 227 -29z m-4659 9 l320 -1 -47 -22 c-39 -19 -71 -24 -186
-29 -158 -7 -224 -24 -280 -73 l-39 -33 -139 60 c-215 94 -227 115 -61 106 61
-4 256 -7 432 -8z m777 -278 c421 -187 436 -195 444 -225 8 -35 -13 -76 -133
-262 -60 -93 -123 -193 -139 -223 -15 -29 -39 -60 -51 -69 -50 -32 -63 -27
-700 279 -115 55 -122 60 -132 95 -13 46 3 87 76 195 28 41 85 133 128 204 42
72 84 136 93 143 34 26 83 10 414 -137z m-701 84 l50 -26 -42 -57 c-22 -31
-71 -99 -107 -149 -71 -101 -79 -105 -141 -73 -44 22 -51 35 -51 91 0 68 79
192 145 228 34 18 93 12 146 -14z m2155 16 c-7 -11 -135 -85 -224 -130 -50
-25 -70 -30 -97 -25 -19 3 -35 9 -35 13 0 13 287 133 358 150 2 1 1 -3 -2 -8z
m1647 -279 c118 -216 139 -262 123 -262 -7 0 -27 -3 -43 -6 -29 -6 -31 -3 -95
113 -85 154 -92 176 -84 246 4 32 11 55 16 52 5 -3 42 -67 83 -143z m-1603
134 c0 -5 -148 -100 -208 -132 l-53 -29 36 -10 35 -10 -27 -17 c-27 -15 -33
-14 -148 21 -115 36 -198 71 -209 89 -3 5 43 2 102 -6 59 -8 121 -15 137 -15
17 0 95 25 175 55 145 56 160 61 160 54z m149 -168 c-86 -93 -785 -781 -906
-893 -29 -26 -53 -53 -53 -60 0 -13 194 -422 250 -527 l31 -57 307 6 307 5 30
29 c17 15 73 98 125 184 l95 155 38 0 c20 0 37 -2 37 -4 0 -3 -41 -92 -91
-198 -94 -199 -142 -276 -188 -299 -20 -11 -103 -15 -349 -17 l-323 -3 -72 73
c-65 66 -78 86 -136 213 -35 77 -97 211 -138 297 -41 87 -73 164 -71 171 2 8
46 54 98 102 111 103 595 528 725 637 101 84 364 288 372 288 3 0 -37 -46 -88
-102z m-871 -29 c86 -39 194 -84 240 -101 66 -25 80 -34 71 -44 -17 -21 -38
-18 -176 30 -71 24 -154 49 -186 56 -57 13 -59 15 -88 72 -16 32 -27 58 -24
58 4 0 77 -32 163 -71z m2824 -86 c106 -189 100 -170 73 -233 -18 -42 -33 -61
-67 -82 -23 -15 -48 -28 -55 -28 -6 0 -28 30 -49 68 -20 37 -57 100 -81 140
l-44 72 33 48 c36 52 107 132 117 132 4 0 37 -53 73 -117z m-2918 -101 c3 -5
56 -28 118 -52 62 -23 116 -46 121 -50 4 -3 -3 -12 -17 -19 -21 -12 -38 -9
-138 24 -62 21 -117 41 -122 46 -6 5 -5 18 2 34 12 25 26 32 36 17z m2624
-111 c61 -65 602 -1049 602 -1093 0 -7 -13 -40 -28 -73 l-29 -60 -49 93 c-27
51 -75 141 -108 200 -518 944 -508 924 -491 951 3 6 22 11 42 11 26 0 42 -7
61 -29z m-2618 -120 l84 -28 -33 -17 c-31 -17 -34 -16 -102 10 -63 25 -80 40
-62 57 10 11 23 9 113 -22z m891 -43 c44 -25 73 -65 113 -158 35 -83 68 -125
123 -160 59 -38 127 -52 423 -91 135 -17 250 -36 257 -41 22 -17 -12 -73 -54
-89 -14 -5 -70 -3 -140 6 -65 7 -179 19 -253 25 -179 15 -223 24 -297 60 -91
45 -160 124 -209 241 -31 72 -47 99 -73 116 -40 27 -98 30 -142 7 -44 -23 -48
-9 -8 32 70 74 182 96 260 52z m1575 -106 c22 -37 57 -97 77 -133 l37 -67 -29
-5 c-22 -5 -40 -24 -80 -86 -68 -107 -68 -107 -35 -142 31 -32 30 -37 -18
-146 -19 -43 -21 -44 -60 -42 -27 2 -42 -1 -48 -11 -13 -25 -51 -202 -46 -215
2 -7 21 -19 41 -26 l37 -14 -7 -62 c-11 -102 -17 -117 -54 -124 -18 -4 -37
-11 -42 -16 -4 -4 -5 -60 -1 -123 l7 -115 42 -6 c24 -3 44 -7 47 -10 4 -4 46
-142 46 -151 0 -3 -18 -18 -39 -33 l-40 -27 20 -51 c11 -29 34 -78 51 -109
l30 -57 42 5 41 6 48 -68 48 -67 -32 -33 c-38 -39 -40 -33 60 -136 l65 -68
-1762 0 -1762 0 62 74 c50 59 66 72 80 65 37 -20 53 -9 116 84 34 50 62 98 62
105 0 6 -11 22 -24 33 l-24 21 34 72 c32 66 37 71 71 76 l37 5 23 90 c30 118
29 131 -3 139 -24 6 -26 10 -20 44 3 20 6 46 6 58 0 21 69 45 440 147 l86 23
69 -63 c82 -75 164 -118 255 -133 41 -7 201 -10 440 -8 l375 3 72 26 c92 34
192 105 244 174 22 29 88 155 148 279 l108 226 53 33 c111 66 143 202 71 304
-25 36 -30 48 -19 54 23 16 220 76 325 100 l101 24 36 72 c20 40 39 73 43 73
5 -1 26 -31 49 -68z m1200 -115 c2 -7 -7 -84 -21 -171 -30 -186 -31 -214 -9
-223 29 -11 41 22 74 195 18 92 34 170 37 175 9 15 149 -69 210 -127 35 -32
63 -63 63 -68 0 -8 -100 -133 -200 -251 l-26 -29 -62 31 c-34 17 -70 31 -80
31 -31 0 -28 -5 -215 338 -21 40 -37 75 -35 77 2 3 29 11 59 19 71 19 198 21
205 3z m-2953 -175 c86 -38 152 -131 151 -212 -1 -45 -33 -119 -73 -170 -24
-30 -25 -27 -6 25 27 76 9 184 -37 223 -14 11 -16 5 -20 -50 -5 -78 -38 -149
-85 -185 -51 -39 -144 -44 -193 -11 -124 84 -134 259 -19 351 20 16 54 35 75
43 50 18 149 12 207 -14z m3424 -207 c32 -61 73 -181 73 -210 0 -19 -13 -27
-102 -55 -130 -40 -147 -51 -140 -85 6 -32 16 -31 161 16 75 24 96 28 102 17
18 -27 5 -325 -14 -344 -2 -2 -42 9 -89 25 -131 44 -144 46 -151 21 -3 -12 -3
-28 0 -35 2 -8 54 -30 113 -50 l109 -36 -14 -42 c-25 -82 -46 -132 -70 -172
-45 -74 -39 -72 -92 -28 -102 84 -141 107 -158 93 -8 -7 -15 -18 -15 -25 0 -7
38 -48 85 -90 77 -70 84 -79 73 -99 -28 -53 -216 -213 -231 -196 -2 3 -24 57
-48 120 -43 111 -46 115 -74 115 -17 0 -29 -4 -29 -10 1 -5 17 -59 37 -120 19
-60 38 -120 41 -132 6 -20 0 -24 -76 -48 -99 -31 -248 -46 -248 -24 0 8 6 52
14 99 8 47 18 113 21 147 7 61 6 62 -20 69 -14 4 -30 3 -34 -2 -5 -5 -14 -49
-20 -99 -7 -49 -17 -118 -23 -153 -10 -62 -11 -63 -37 -57 -45 10 -164 74
-205 109 l-40 34 88 121 c48 67 86 129 84 138 -5 27 -35 40 -50 22 -7 -9 -49
-62 -93 -119 -73 -93 -80 -100 -93 -83 -40 53 -116 238 -106 255 5 8 198 108
207 108 3 0 16 -17 29 -37 166 -249 470 -290 690 -93 133 118 203 375 153 563
-16 61 -56 147 -86 185 l-18 24 84 94 c46 52 96 114 112 138 l28 43 23 -31
c13 -17 35 -53 49 -81z m-5427 -10 c21 -7 50 -21 64 -30 l26 -17 -76 -83 c-62
-68 -83 -85 -119 -94 -24 -6 -49 -11 -54 -11 -12 0 -15 138 -4 215 l6 47 59
-6 c32 -4 76 -13 98 -21z m-242 -122 l-3 -137 -90 -22 c-49 -13 -93 -20 -97
-16 -4 4 -20 34 -37 66 l-29 59 29 37 c16 20 44 48 62 61 35 26 147 88 160 89
4 0 6 -62 5 -137z m412 7 l21 -29 -52 -15 c-29 -9 -54 -14 -56 -12 -6 6 48 86
58 86 4 0 17 -13 29 -30z m894 -67 c9 -25 14 -48 12 -50 -1 -2 -84 -28 -182
-59 -98 -30 -285 -88 -414 -129 -129 -40 -350 -108 -490 -150 -140 -42 -320
-97 -400 -121 -157 -48 -403 -99 -421 -88 -34 20 27 214 73 234 21 9 187 53
723 190 255 66 497 120 750 169 342 65 328 65 349 4z m-1594 -85 c11 -24 20
-48 20 -54 0 -10 -139 -49 -147 -41 -4 4 95 137 103 137 3 0 14 -19 24 -42z
m5545 -32 c35 -34 45 -51 55 -101 33 -161 -43 -356 -168 -431 -55 -33 -123
-50 -148 -36 -12 6 -5 13 27 27 57 26 124 96 161 169 27 52 32 75 36 152 5
107 -10 166 -64 243 l-33 50 46 -16 c25 -9 65 -34 88 -57z m-258 -118 c30 -28
31 -86 2 -145 -36 -75 -119 -113 -158 -74 -12 12 -21 32 -21 45 0 24 54 160
72 184 17 20 79 15 105 -10z m-583 -34 c19 -42 17 -47 -16 -39 -20 5 -23 11
-20 41 5 43 14 43 36 -2z m111 -188 c26 -47 47 -88 47 -92 0 -4 -27 -17 -59
-30 -33 -12 -78 -31 -101 -43 -32 -16 -43 -18 -46 -9 -10 32 -16 151 -10 202
l7 56 57 0 58 0 47 -84z m-4313 -174 c-36 -49 -121 -123 -167 -143 -68 -30
-138 -35 -185 -14 -44 20 -80 62 -58 70 7 2 74 20 148 39 74 19 162 44 195 54
84 28 90 27 67 -6z m-553 -179 c14 -31 49 -82 78 -114 l54 -58 -47 -98 c-72
-148 -70 -146 -107 -126 -45 23 -143 119 -157 154 -12 27 -10 32 11 55 13 14
57 51 97 81 39 31 72 57 72 59 0 10 -24 54 -30 54 -4 0 -52 -33 -106 -74 -55
-41 -102 -72 -105 -68 -8 8 -42 162 -37 167 3 4 173 21 223 23 27 2 32 -3 54
-55z m795 -120 c-42 -72 -149 -174 -239 -226 -44 -26 -82 -47 -85 -47 -5 0
-30 117 -30 143 0 10 20 16 66 21 36 4 88 15 115 25 54 21 177 105 186 127 3
8 8 13 10 10 3 -3 -7 -27 -23 -53z m-504 -102 l75 -18 19 -88 c15 -73 16 -89
5 -96 -47 -29 -285 -42 -295 -16 -6 18 96 237 110 237 6 -1 45 -9 86 -19z"/>
<path d="M2998 4058 c-15 -18 -28 -37 -28 -42 -2 -14 78 -46 83 -33 2 8 12 7
35 -2 37 -15 38 -18 15 -51 -9 -14 -17 -26 -18 -27 0 -1 -31 9 -68 23 -50 18
-73 21 -87 14 -22 -12 -112 -144 -114 -168 -1 -12 34 -35 117 -77 l118 -60 19
25 c11 14 18 30 17 35 -2 6 -38 30 -80 54 -81 46 -81 46 -45 95 14 17 17 17
77 -14 l64 -32 39 39 c63 60 93 134 70 170 -9 13 -124 69 -162 78 -20 4 -31
-1 -52 -27z"/>
<path d="M3273 3946 c-32 -27 -32 -26 20 -53 l38 -19 -88 -124 c-49 -69 -92
-130 -96 -137 -5 -8 7 -20 34 -34 38 -19 43 -19 51 -5 5 9 56 86 114 172 58
86 104 157 102 159 -9 8 -129 65 -137 65 -6 0 -23 -11 -38 -24z"/>
<path d="M3528 3830 c-15 -22 -23 -40 -18 -40 21 0 8 -25 -75 -145 -47 -68
-85 -127 -85 -132 0 -13 72 -46 80 -36 35 39 220 332 220 347 0 7 -76 46 -87
46 -4 -1 -20 -19 -35 -40z"/>
<path d="M1855 791 l-120 -6 105 -61 c58 -34 129 -74 158 -88 l53 -27 1462 -2
c804 -1 2153 0 2997 1 l1536 2 119 72 c66 39 130 79 142 88 l23 18 -23 6 c-28
7 -6288 4 -6452 -3z"/>
<path d="M3032 434 c-26 -18 -27 -27 -6 -48 14 -14 96 -16 753 -16 560 0 740
3 749 12 18 18 14 46 -7 58 -13 7 -264 10 -743 10 -639 0 -726 -2 -746 -16z"/>
<path d="M5583 440 c-25 -10 -30 -39 -11 -58 9 -9 188 -12 743 -12 719 0 732
0 750 20 17 19 17 21 0 40 -18 20 -30 20 -739 19 -405 0 -731 -4 -743 -9z"/>
<path d="M5016 354 c-25 -24 -20 -63 9 -76 56 -25 101 35 57 75 -23 21 -46 22
-66 1z"/>
</g>
</svg>
