<svg version="1.1" id="Layer_1" xmlns="http://www.w3.org/2000/svg" xmlns:xlink="http://www.w3.org/1999/xlink" x="0px" y="0px"
	 width="100%" viewBox="0 0 1024 1024" enable-background="new 0 0 1024 1024" xml:space="preserve">
<path fill="#000000" opacity="1.000000" stroke="none" 
	d="
M711.597168,727.406616 
	C713.245728,728.815186 714.668945,729.957520 715.996826,731.023376 
	C714.419678,734.939392 711.372681,736.223450 708.945190,738.076416 
	C700.872375,744.238647 692.473022,749.971313 684.939575,756.834290 
	C676.842712,764.210693 674.749023,773.515076 676.910767,783.706543 
	C681.720886,806.383728 696.810303,821.158752 715.789307,832.682190 
	C722.016785,836.463318 728.764771,839.270935 735.644226,842.190918 
	C734.567200,844.675964 732.718811,844.071106 731.239075,844.073364 
	C687.078674,844.140930 642.917969,844.121826 598.757996,844.287720 
	C593.724731,844.306641 593.674316,841.562561 593.680420,837.885925 
	C593.768372,784.726562 593.786682,731.567078 593.818298,678.407654 
	C593.819641,676.074768 593.817505,673.741211 593.766785,671.409058 
	C593.547668,661.328918 586.935791,654.403137 576.850342,654.255737 
	C562.021912,654.038879 547.188538,654.131409 532.357300,654.133362 
	C515.692871,654.135559 499.028198,654.132080 482.364197,654.229065 
	C470.674744,654.297119 464.122345,661.027039 464.132385,672.579895 
	C464.180267,727.738892 464.149292,782.898010 464.315491,838.056641 
	C464.329346,842.653625 462.906494,844.158325 458.342072,844.152039 
	C376.353394,844.040161 294.364410,844.114563 212.375824,843.974121 
	C194.993240,843.944336 185.723434,834.025208 185.733276,816.698425 
	C185.799713,699.714294 185.836945,582.730164 185.856110,465.746033 
	C185.858444,451.514771 188.459259,452.089722 172.250061,452.141785 
	C164.417892,452.166931 156.584198,452.212311 148.753540,452.094055 
	C137.315399,451.921326 127.603851,445.147766 124.487976,434.646637 
	C122.094635,426.580627 123.625450,414.737427 134.554184,407.600525 
	C161.334763,390.111603 187.954758,372.376923 214.660492,354.773193 
	C258.613190,325.800690 302.536011,296.782471 346.557281,267.914459 
	C396.570435,235.117096 446.695435,202.490311 496.730713,169.726608 
	C507.635712,162.585861 517.890076,162.279282 529.169983,169.755768 
	C568.739929,195.983353 608.661560,221.679901 648.417358,247.627655 
	C657.188171,253.352158 665.826050,259.280243 675.519043,265.781158 
	C675.905762,259.205872 676.447083,253.685928 676.505920,248.160858 
	C676.599854,239.335068 676.530396,230.500717 676.242615,221.679352 
	C675.868164,210.199585 681.434082,204.030273 692.832703,203.954971 
	C707.496826,203.858078 722.162048,203.849442 736.826416,203.897552 
	C747.556458,203.932755 753.119568,209.160049 753.025940,219.752899 
	C752.752136,250.742630 753.558105,281.739624 752.442932,312.720520 
	C752.327576,315.925415 753.781006,317.513885 756.193054,319.072083 
	C785.578125,338.054840 814.952515,357.054474 844.265808,376.147919 
	C860.036560,386.420349 875.682373,396.884491 891.388428,407.256317 
	C900.489441,413.266388 903.726379,421.894318 901.974670,432.333313 
	C900.347961,442.027740 892.335510,449.562927 881.851562,451.365356 
	C871.278992,453.182983 860.567932,451.955872 849.920227,452.123779 
	C839.618164,452.286255 839.959961,450.836945 840.006042,462.124451 
	C840.144714,496.119141 840.189636,530.114197 840.236023,564.109192 
	C840.237915,565.508606 840.774048,567.103760 839.330505,568.327087 
	C837.148010,567.903687 837.498840,565.794617 836.845459,564.463806 
	C831.259888,553.086792 822.761353,546.045898 809.567261,545.991150 
	C801.902344,545.959351 794.234253,545.990295 786.571960,546.174316 
	C772.666870,546.507935 759.252686,559.118225 758.259583,573.002380 
	C757.994873,576.703308 756.624634,578.474548 753.129578,579.797913 
	C731.267700,588.075684 712.603210,600.530762 700.060730,620.953491 
	C680.132629,653.402222 683.622620,695.537292 708.766052,724.108337 
	C709.646423,725.108704 710.503845,726.129272 711.597168,727.406616 
M422.555145,332.944946 
	C412.597595,325.411743 405.877472,325.820129 396.998016,334.444550 
	C393.890869,337.462463 390.723694,340.418884 387.565796,343.384064 
	C366.799133,362.882996 345.977081,382.323242 325.273285,401.888641 
	C308.319946,417.909821 291.510956,434.083679 274.623566,450.174713 
	C272.108368,452.571320 270.591553,455.429779 270.198395,458.886993 
	C269.405334,465.860687 272.515137,471.890503 278.585968,475.126556 
	C284.621857,478.343903 291.649200,477.219208 297.399384,471.796387 
	C334.121857,437.164673 370.831421,402.519073 407.435242,367.762207 
	C410.282684,365.058411 412.020660,364.644409 415.252350,367.323059 
	C437.697754,385.927582 460.308685,404.332794 482.913177,422.744690 
	C490.376740,428.823944 497.831757,428.438416 504.906311,421.818176 
	C508.311707,418.631500 511.714691,415.441437 515.074951,412.207306 
	C542.682190,385.636475 570.271118,359.046417 597.904907,332.503143 
	C599.208679,331.250793 600.178589,329.071198 603.237366,329.946411 
	C602.462280,335.679352 601.801941,341.417419 600.888428,347.114899 
	C599.589661,355.215179 604.312073,362.218506 612.244324,363.671661 
	C619.760437,365.048523 625.972656,360.590942 627.826294,352.474609 
	C628.159607,351.015137 628.483032,349.550232 628.726685,348.073914 
	C632.220581,326.906525 635.568970,305.714081 639.236694,284.576965 
	C641.150391,273.548492 635.177063,267.606506 624.144592,269.852783 
	C614.357971,271.845337 604.516418,273.571198 594.688721,275.357697 
	C581.587952,277.739227 568.459290,279.971405 555.377136,282.450012 
	C547.207947,283.997742 542.173584,290.742432 543.295349,298.142151 
	C544.406311,305.469879 551.511536,310.564392 559.498413,309.629578 
	C563.134827,309.203979 566.729614,308.419556 570.366943,308.006165 
	C572.334839,307.782501 574.503845,306.726532 576.364624,308.413361 
	C575.839294,310.428955 574.313416,311.309082 573.141541,312.440735 
	C566.310974,319.037018 559.423157,325.573853 552.580627,332.157837 
	C533.972473,350.063049 515.333740,367.936951 496.821198,385.940582 
	C493.834473,388.845123 491.793579,389.530518 488.139099,386.496643 
	C466.606903,368.621155 444.826782,351.044281 422.555145,332.944946 
M253.161560,708.397888 
	C253.157043,709.229309 253.152130,710.060791 253.148056,710.892212 
	C253.106079,719.454163 254.352234,720.702026 262.898346,720.696472 
	C274.538269,720.688843 286.178223,720.701538 297.818115,720.682068 
	C303.711212,720.672180 304.626373,719.908875 304.586273,714.164673 
	C304.491119,700.535278 304.887543,686.904053 304.172363,673.273376 
	C303.966095,669.341919 302.473114,668.120117 298.712830,668.160461 
	C285.411560,668.303101 272.106018,668.344910 258.806122,668.150818 
	C254.421890,668.086853 252.971298,669.732117 253.051086,674.003784 
	C253.259155,685.141235 253.146164,696.284668 253.161560,708.397888 
M262.132416,594.495544 
	C253.890884,595.447815 253.056152,596.516235 253.047974,604.935608 
	C253.035843,617.424500 253.060822,629.918884 252.675903,642.398804 
	C252.549576,646.494812 254.535370,646.651550 257.525177,646.642761 
	C271.349426,646.602295 285.176056,646.519897 298.997101,646.743225 
	C303.222870,646.811523 304.539185,645.214966 304.515717,641.195068 
	C304.440002,628.210938 304.833160,615.229370 304.133911,602.243286 
	C303.741852,594.962341 303.483917,594.408691 295.975952,594.396484 
	C284.992035,594.378723 274.007935,594.436035 262.132416,594.495544 
M326.187469,674.682617 
	C326.197693,687.998535 326.345062,701.316589 326.140930,714.629272 
	C326.072906,719.064819 327.311951,720.883850 332.053680,720.778687 
	C344.364929,720.505676 356.686340,720.717712 369.003387,720.665649 
	C374.769440,720.641357 376.819366,718.670349 376.876404,712.853210 
	C377.003693,699.871094 376.873932,686.885803 377.086090,673.905640 
	C377.155945,669.630432 375.707397,668.013428 371.313690,668.084839 
	C358.001160,668.301208 344.680908,668.311951 331.368439,668.101074 
	C327.027039,668.032349 325.700958,669.829895 326.187469,674.682617 
M337.594421,646.625305 
	C348.749115,646.629639 359.906250,646.500183 371.057190,646.707397 
	C375.239044,646.785156 377.126617,645.593140 377.063446,641.094788 
	C376.881042,628.111511 377.055176,615.123657 377.007416,602.137817 
	C376.985535,596.191345 375.227112,594.428345 369.207336,594.396973 
	C356.887695,594.332825 344.566467,594.479248 332.247833,594.352234 
	C327.845276,594.306824 325.981598,595.850586 326.081116,600.492126 
	C326.334503,612.307678 326.216827,624.131653 326.215271,635.952209 
	C326.213837,646.554016 326.194824,646.554016 337.594421,646.625305 
z"/>
<path fill="#000000" opacity="1.000000" stroke="none" 
	d="
M885.543701,764.303833 
	C881.148682,793.393066 862.916748,809.747009 837.044128,819.141785 
	C830.329224,821.580017 823.380615,823.490662 816.229675,824.276489 
	C812.741150,824.659729 811.878296,826.595154 811.936340,829.712524 
	C812.057190,836.209473 812.277710,842.723572 811.954590,849.205566 
	C811.414856,860.032837 801.948181,865.701660 792.526489,861.092651 
	C788.092041,858.923279 785.623901,855.447449 785.607361,850.414551 
	C785.586487,844.081909 785.504761,837.747559 785.619141,831.417053 
	C785.689392,827.525513 784.669128,825.534790 780.145142,824.984192 
	C759.207520,822.436096 739.338989,816.781372 722.510071,803.208862 
	C716.770752,798.580017 711.534790,793.466736 707.398376,787.344666 
	C703.706055,781.879822 704.318848,777.396118 709.533752,773.356018 
	C716.642456,767.848511 723.907715,762.537720 731.208435,757.285217 
	C735.662903,754.080505 739.153870,754.571045 742.935547,759.132080 
	C748.598450,765.962219 754.439697,772.509277 762.206726,777.087646 
	C768.013306,780.510315 774.204956,782.821655 780.733154,784.365540 
	C784.051331,785.150391 785.763611,784.349487 785.736816,780.539062 
	C785.633850,765.874573 785.616516,751.208252 785.740784,736.544067 
	C785.771912,732.872131 783.534485,731.621338 780.737671,730.657898 
	C770.662537,727.187561 760.440979,724.095337 750.871094,719.308044 
	C732.925049,710.330750 720.283447,697.044250 716.545288,676.642212 
	C712.007935,651.878357 724.299438,627.008728 747.624512,613.637024 
	C757.424744,608.018738 768.024231,604.699097 779.080566,602.702026 
	C785.236084,601.590088 785.865295,600.870361 785.551758,594.464111 
	C785.348755,590.316589 784.615662,586.201782 785.568970,582.029480 
	C787.028992,575.639343 791.791199,571.778320 798.475342,571.799255 
	C805.876953,571.822327 810.363159,575.291260 811.702332,582.097839 
	C812.612427,586.723572 812.171692,591.412476 812.037354,596.058044 
	C811.926819,599.878601 813.024292,601.580444 817.167236,602.182312 
	C836.099670,604.932617 853.784607,610.844543 868.265686,624.085815 
	C869.616943,625.321411 870.996216,626.546570 872.201965,627.917603 
	C878.195435,634.732849 877.836243,638.851807 870.908203,644.703491 
	C865.182129,649.539917 859.584351,654.531555 853.779419,659.270081 
	C848.898987,663.253906 846.990295,663.240051 842.805847,658.471863 
	C835.951416,650.661377 828.013733,644.610596 818.108887,641.240601 
	C813.119934,639.543091 811.509888,640.347595 811.444458,645.527283 
	C811.280396,658.524048 811.444092,671.524841 811.297913,684.522034 
	C811.261841,687.729248 812.960876,688.846375 815.567627,689.709045 
	C823.944153,692.481201 832.363831,695.152832 840.616150,698.263306 
	C853.018188,702.937927 864.749756,708.714661 873.405823,719.360291 
	C884.044006,732.443665 887.158081,747.490601 885.543701,764.303833 
M811.596130,744.588135 
	C811.596130,757.970642 811.596130,771.353210 811.596130,785.278992 
	C818.950867,784.382874 824.238770,781.293579 828.727173,776.645935 
	C837.593689,767.465332 836.996460,755.914368 826.987915,748.165527 
	C823.871948,745.753174 820.139648,744.115662 816.620972,742.252869 
	C814.603882,741.185059 812.732422,741.226562 811.596130,744.588135 
M785.760986,673.240845 
	C785.746033,663.936890 785.709595,654.632812 785.729492,645.328918 
	C785.735291,642.632263 785.091980,640.371094 781.822632,641.218384 
	C770.194092,644.232117 760.625366,658.249268 767.846375,669.882996 
	C770.373962,673.955322 774.477295,676.377319 778.604980,678.538757 
	C784.443237,681.595703 785.622498,680.799744 785.760986,673.240845 
z"/>
</svg>