<?xml version="1.0" encoding="UTF-8"?>
<svg version="1.1" xmlns="http://www.w3.org/2000/svg" width="1024" height="1024">
<path d="M0 0 C1.1813782 -0.00256327 2.3627564 -0.00512655 3.57993394 -0.0077675 C6.82746952 -0.01182682 10.07463804 -0.00255771 13.32213032 0.01256669 C16.83594314 0.02560403 20.34974094 0.02113219 23.86357117 0.01885986 C29.9410316 0.01729196 36.01839491 0.02665039 42.09583092 0.04357338 C50.88260917 0.06802468 59.66934079 0.0757749 68.45614938 0.07953735 C82.7144706 0.08609225 96.97274014 0.10602723 111.23103333 0.13444519 C125.07608279 0.16201071 138.92111818 0.18323207 152.76618958 0.19596863 C153.62056735 0.1967568 154.47494512 0.19754497 155.35521313 0.19835702 C159.64166451 0.20227233 163.92811599 0.20606341 168.21456754 0.20979273 C203.73694018 0.24085868 239.25924706 0.29449775 274.78157043 0.36076355 C274.78157043 16.20076355 274.78157043 32.04076355 274.78157043 48.36076355 C270.49157043 48.03076355 266.20157043 47.70076355 261.78157043 47.36076355 C261.78157043 45.38076355 261.78157043 43.40076355 261.78157043 41.36076355 C175.98157043 41.36076355 90.18157043 41.36076355 1.78157043 41.36076355 C1.78157043 37.07076355 1.78157043 32.78076355 1.78157043 28.36076355 C129.98657043 27.86576355 129.98657043 27.86576355 260.78157043 27.36076355 C261.11157043 23.07076355 261.44157043 18.78076355 261.78157043 14.36076355 C226.88430688 14.39706319 191.98714748 14.45369465 157.08996874 14.5386845 C152.96942878 14.54870188 148.84888841 14.55854602 144.72834778 14.56828308 C143.9080272 14.57022445 143.08770662 14.57216583 142.24252784 14.57416603 C128.9624578 14.60518162 115.68240504 14.62216545 102.4023056 14.63395777 C88.77426814 14.64637162 75.14632131 14.67387829 61.51834106 14.71537662 C53.11007527 14.74050536 44.70195981 14.75388129 36.29365593 14.75219312 C30.52666267 14.75216335 24.75982247 14.7668025 18.99288887 14.79292783 C15.6662393 14.80756653 12.34016734 14.81360826 9.01345253 14.80656624 C5.40318915 14.79994159 1.79384125 14.81781232 -1.81632996 14.84178162 C-3.38639203 14.83014099 -3.38639203 14.83014099 -4.98817253 14.8182652 C-12.88509316 14.9110922 -18.27322179 16.54645389 -24.03092957 22.04826355 C-28.07411863 28.17080699 -29.99094555 33.88683615 -28.78874207 41.22795105 C-27.11503818 47.48714503 -23.55435047 51.69885705 -18.21842957 55.36076355 C-12.06973483 57.67155246 -6.25514368 57.64329577 0.26187134 57.61904907 C1.41235842 57.62272478 2.5628455 57.62640048 3.74819583 57.63018757 C6.92836525 57.63842169 10.10838992 57.6378046 13.28856242 57.63346064 C16.72357701 57.63097798 20.15856296 57.64006103 23.59356689 57.64784241 C29.54280913 57.6598729 35.49202462 57.66499458 41.44127846 57.6657238 C50.05373447 57.66705133 58.6661257 57.68217973 67.27855881 57.70121897 C81.26694074 57.73204582 95.2553243 57.75621757 109.24372864 57.77409363 C110.08050039 57.77516631 110.91727214 57.77623899 111.77940061 57.77734417 C121.11241818 57.78916117 130.4454364 57.79936728 139.77845764 57.80778503 C143.1617381 57.81085896 146.54501853 57.81394775 149.92829895 57.81706238 C151.18055844 57.81821039 151.18055844 57.81821039 152.45811609 57.81938159 C166.3914661 57.83247508 180.32476921 57.85713084 194.25808448 57.89080578 C202.84567993 57.9110654 211.433175 57.92138937 220.02079453 57.91881657 C225.90824205 57.91777941 231.79561032 57.92745195 237.68303017 57.9454556 C241.07673615 57.95547322 244.47012012 57.95901184 247.86385727 57.95268822 C251.54952291 57.94654127 255.23469579 57.95878962 258.9203186 57.97549438 C260.51533485 57.96617666 260.51533485 57.96617666 262.14257365 57.9566707 C276.28324433 58.07319486 287.26382553 63.28502494 297.48860168 72.92326355 C308.96141877 85.11923946 310.38464634 100.66314925 310.289505 116.59796143 C310.29412337 118.30020235 310.30048252 120.00243927 310.30841398 121.70466799 C310.32500192 126.34549791 310.3169093 130.9859958 310.30446911 135.62682641 C310.29537756 140.64598454 310.30940857 145.66508761 310.32038879 150.68423462 C310.33813455 160.50193857 310.33435174 170.31951989 310.32273823 180.13722856 C310.31368915 188.1187729 310.31248628 196.10028298 310.3168335 204.08183098 C310.31744643 205.21962955 310.31805936 206.35742813 310.31869087 207.52970545 C310.31996982 209.84141347 310.32126667 212.15312149 310.32258123 214.4648295 C310.33397535 236.11911532 310.3208914 257.77333331 310.29937977 279.42760801 C310.28150745 297.99300696 310.28461629 316.55830586 310.30305481 335.123703 C310.324478 356.70429217 310.33287935 378.28482196 310.32060575 399.86542028 C310.31933161 402.16811747 310.31807413 404.47081468 310.3168335 406.77351189 C310.31590784 408.4727934 310.31590784 408.4727934 310.31496349 410.20640384 C310.31151512 418.17543919 310.31732781 426.14443676 310.32675171 434.11346626 C310.33798905 443.82915362 310.33489502 453.54471177 310.31362873 463.26038439 C310.3031421 468.21394129 310.29895576 473.16728303 310.31222534 478.12083817 C310.32420443 482.66143097 310.31749634 487.20161054 310.29631513 491.74216621 C310.29187238 493.37857243 310.29406256 495.01501406 310.30381829 496.65139724 C310.38851869 512.04800231 307.75458145 524.82810528 296.90266418 536.3568573 C285.90804343 546.6851374 273.36554902 548.67261864 258.78865051 548.62145996 C257.61926595 548.62528551 256.44988138 548.62911106 255.24506092 548.63305253 C252.02606259 548.64153838 248.80721161 548.64116708 245.58820963 548.63687193 C242.10621366 548.63439316 238.6242439 548.64343299 235.14225769 548.65090942 C228.33163824 548.66362569 221.52105828 548.66545404 214.71042895 548.66310916 C209.17299127 548.66132273 203.63556553 548.66308259 198.09812927 548.6673336 C196.91386249 548.66822639 196.91386249 548.66822639 195.70567113 548.66913721 C194.10156178 548.67034901 192.49745244 548.67156314 190.89334309 548.67277958 C175.86799785 548.68364286 160.84267507 548.68149812 145.81732857 548.67539474 C132.08332295 548.67022421 118.34938822 548.68148675 104.61539662 548.70049296 C90.4966501 548.71988118 76.37793712 548.72812578 62.25917721 548.7243697 C54.33917849 548.72245947 46.41924015 548.7249281 38.49925232 548.73908424 C31.75843347 548.75101141 25.01771217 548.75238783 18.27689195 548.74029408 C14.84066802 548.73441531 11.40462242 548.73327805 7.96841049 548.74529648 C4.23693904 548.75575775 0.50594476 548.74766751 -3.22550964 548.73498535 C-4.30237124 548.74235964 -5.37923285 548.74973392 -6.48872662 548.75733167 C-17.04074947 548.68204057 -26.07880613 546.28412142 -34.21842957 539.36076355 C-41.92903043 531.07776 -44.37429469 522.32868313 -44.35265064 511.17617798 C-44.35500287 510.35206553 -44.3573551 509.52795308 -44.35977861 508.67886752 C-44.36645849 505.90542058 -44.36601069 503.13202059 -44.36560059 500.35856628 C-44.36889984 498.35473751 -44.37262554 496.3509094 -44.37674206 494.34708214 C-44.38676319 488.83090942 -44.39047904 483.31474759 -44.39313138 477.79856706 C-44.39703409 471.85287911 -44.40661246 465.90719978 -44.41534424 459.96151733 C-44.43417528 446.27678954 -44.4443649 432.5920602 -44.45280492 418.90732301 C-44.45701285 412.14299573 -44.46223467 405.37866934 -44.46748945 398.61434281 C-44.48537948 375.45387035 -44.50037471 352.29339764 -44.50780964 329.13291931 C-44.50828439 327.67910035 -44.50876028 326.2252814 -44.5092373 324.77146244 C-44.50947368 324.05050742 -44.50971005 323.32955241 -44.50995359 322.58675027 C-44.51115477 318.93411016 -44.51237023 315.28147006 -44.51359558 311.62882996 C-44.51383573 310.90395586 -44.51407588 310.17908177 -44.51432331 309.4322418 C-44.52221423 285.9361188 -44.54564187 262.44004631 -44.57815152 238.94394536 C-44.612469 214.09583225 -44.63216258 189.24774868 -44.63545388 164.39961147 C-44.63587141 161.67044511 -44.63635097 158.94127877 -44.63687706 156.21211243 C-44.63700025 155.54012714 -44.63712344 154.86814186 -44.63725037 154.17579339 C-44.63958006 143.37301822 -44.65522712 132.57030182 -44.67571891 121.76754759 C-44.69600044 110.90302125 -44.70111046 100.03856868 -44.69194827 89.17402714 C-44.68740261 83.29093563 -44.68930565 77.40803452 -44.70870972 71.5249691 C-44.72633461 66.13471456 -44.72534883 60.74478942 -44.70981243 55.35453141 C-44.70743536 53.40896718 -44.71176495 51.46338019 -44.72364108 49.51785076 C-44.80068963 36.05747995 -44.54646279 23.11225307 -35.25749207 12.36076355 C-24.99719057 2.29701955 -14.04445723 -0.11314857 0 0 Z M53.78157043 160.36076355 C46.58633022 167.84944749 42.91285924 176.31219604 42.71907043 186.7162323 C42.73969543 187.58892761 42.76032043 188.46162292 42.78157043 189.36076355 C55.18026502 181.68538119 63.34263699 172.78866894 67.33625793 158.4896698 C67.88394199 156.23385261 67.88394199 156.23385261 67.78157043 153.36076355 C62.2607131 153.36076355 58.00604376 157.05264938 53.78157043 160.36076355 Z M197.78157043 153.36076355 C199.37101035 165.99407046 205.54751016 175.73196101 214.78157043 184.36076355 C217.38625956 186.2786441 219.93344518 187.80724068 222.78157043 189.36076355 C223.39430022 178.33162735 220.03674613 169.70997367 212.78157043 161.36076355 C208.53302671 157.52439198 203.69706883 153.36076355 197.78157043 153.36076355 Z M30.78157043 172.36076355 C29.96482248 174.10878501 29.15333592 175.85926544 28.34407043 177.61076355 C27.66537903 179.07256042 27.66537903 179.07256042 26.97297668 180.56388855 C23.56438442 188.56569859 22.83772145 199.43905662 25.57112122 207.76603699 C27.59510012 212.51677904 30.09402432 216.95750719 32.78157043 221.36076355 C33.73032043 220.49451355 34.67907043 219.62826355 35.65657043 218.73576355 C38.50438203 216.27263618 41.37128059 214.38083929 44.65657043 212.54826355 C52.67130286 207.87605271 59.8897312 200.90891045 63.78157043 192.36076355 C64.16029977 190.7038227 64.50402139 189.03762234 64.78157043 187.36076355 C53.01324966 189.5967445 46.6721325 193.64650354 39.12922668 202.82170105 C38.68450012 203.32959167 38.23977356 203.8374823 37.78157043 204.36076355 C37.45157043 204.36076355 37.12157043 204.36076355 36.78157043 204.36076355 C36.92465637 202.91056824 36.92465637 202.91056824 37.07063293 201.43107605 C37.98047209 190.74575575 37.45060271 182.12328557 32.78157043 172.36076355 C32.12157043 172.36076355 31.46157043 172.36076355 30.78157043 172.36076355 Z M87.78157043 191.36076355 C87.22856262 191.87896667 86.67555481 192.3971698 86.10578918 192.93107605 C82.31835704 196.83080403 79.97757366 201.49585228 77.53157043 206.29826355 C77.18980774 206.96672302 76.84804504 207.6351825 76.4959259 208.32389832 C70.15476942 221.27635023 69.42069676 237.73056813 73.40657043 251.54826355 C74.14202898 253.50778979 74.93177045 255.44804759 75.78157043 257.36076355 C76.18246887 258.28631042 76.58336731 259.2118573 76.99641418 260.16545105 C84.37480099 275.26441071 98.0369837 286.76315415 113.78157043 292.36076355 C127.56079708 296.296716 143.61657557 296.13742567 156.78157043 290.36076355 C157.70840637 289.95986511 158.63524231 289.55896667 159.59016418 289.1459198 C174.71739232 281.74323369 185.57715644 268.4473813 191.72297668 252.99357605 C196.73989577 238.20941837 195.40398675 221.94375003 189.44563293 207.65763855 C181.17539648 191.27247525 168.8531675 180.91001598 151.78157043 174.36076355 C128.28283059 167.11733756 104.86111954 174.37190231 87.78157043 191.36076355 Z M232.78157043 172.36076355 C227.00645912 182.90549805 228.40047153 194.73284967 228.78157043 206.36076355 C228.18860168 205.44552917 227.59563293 204.5302948 226.98469543 203.58732605 C222.55266266 197.09644117 217.3662398 191.88898667 209.78157043 189.36076355 C206.78297994 188.80962075 203.82576942 188.50169869 200.78157043 188.36076355 C206.96944159 203.00036117 216.38193434 210.6930896 229.78157043 218.36076355 C230.77157043 219.02076355 231.76157043 219.68076355 232.78157043 220.36076355 C240.07503627 209.01103864 243.3842125 199.8547167 240.78157043 186.36076355 C239.44016126 181.87648595 237.99804711 177.49263481 235.78157043 173.36076355 C234.79157043 173.03076355 233.80157043 172.70076355 232.78157043 172.36076355 Z M14.78157043 211.36076355 C12.93485104 224.03824261 14.37271341 235.61369528 21.78157043 246.36076355 C25.40633556 250.43021636 29.44748068 254.06477912 33.78157043 257.36076355 C34.44157043 257.36076355 35.10157043 257.36076355 35.78157043 257.36076355 C36.13219543 256.37076355 36.48282043 255.38076355 36.84407043 254.36076355 C38.17685903 251.20881328 39.82462621 249.0427834 42.15657043 246.54826355 C50.03623464 237.96892514 52.92838476 227.72160434 53.78157043 216.36076355 C47.23205023 217.25904844 43.16149256 221.25131756 39.22688293 226.39201355 C35.74118734 231.75462216 33.39779572 236.83659334 33.78157043 243.36076355 C33.12157043 243.36076355 32.46157043 243.36076355 31.78157043 243.36076355 C31.69907043 242.26763855 31.61657043 241.17451355 31.53157043 240.04826355 C30.08295665 228.96832565 25.23996132 220.12233857 16.84407043 212.79826355 C16.16344543 212.32388855 15.48282043 211.84951355 14.78157043 211.36076355 Z M246.65657043 213.98576355 C239.4978898 221.23282296 235.60051538 231.74318669 232.78157043 241.36076355 C232.56242981 240.65951355 232.34328918 239.95826355 232.11750793 239.23576355 C228.75550238 229.17708026 224.05490182 221.87463627 214.78157043 216.36076355 C214.12157043 216.36076355 213.46157043 216.36076355 212.78157043 216.36076355 C211.9358237 229.25840121 217.65188281 240.62978018 226.03157043 250.23576355 C226.51110168 250.74881042 226.99063293 251.2618573 227.48469543 251.79045105 C228.92639287 253.53612083 229.83994218 255.30872462 230.78157043 257.36076355 C242.11143574 249.67694532 248.32709428 241.58774753 251.53157043 228.23576355 C252.026972 222.53864555 252.2211305 216.93905881 250.78157043 211.36076355 C248.97253131 211.36076355 247.94252787 212.81513862 246.65657043 213.98576355 Z M212.78157043 246.36076355 C211.01911486 251.69747904 210.39636171 256.43827015 210.40657043 262.04826355 C210.40600647 262.83700867 210.4054425 263.62575378 210.40486145 264.43840027 C210.51507652 270.34665094 211.64908462 275.27109989 213.82453918 280.79045105 C215.1411445 284.32647676 215.49331801 287.61348201 215.78157043 291.36076355 C226.6725718 289.00035641 236.97240958 284.56190128 243.78157043 275.36076355 C247.49510892 268.98300306 250.89912501 262.79366921 251.78157043 255.36076355 C243.03902987 255.80909896 236.38290603 262.24577987 230.57844543 268.25920105 C227.90054399 271.39118143 225.77282113 274.76119498 223.78157043 278.36076355 C223.81637512 277.38236511 223.85117981 276.40396667 223.88703918 275.3959198 C224.11683187 264.26738851 223.06016648 256.77022862 216.18391418 247.7943573 C215.72114075 247.32127136 215.25836731 246.84818542 214.78157043 246.36076355 C214.12157043 246.36076355 213.46157043 246.36076355 212.78157043 246.36076355 Z M51.78157043 245.36076355 C44.87485925 253.32209231 41.60258617 261.0731958 41.71907043 271.67326355 C41.72809387 272.74189636 41.73711731 273.81052917 41.74641418 274.9115448 C41.75801575 275.71978699 41.76961731 276.52802917 41.78157043 277.36076355 C41.1106134 276.47324402 41.1106134 276.47324402 40.42610168 275.5677948 C33.00712879 265.87092831 25.58913024 258.15605063 13.78157043 254.36076355 C15.67703049 265.73352389 20.36923871 276.3093846 29.78157043 283.36076355 C36.14390065 287.20217047 42.48408813 289.95740157 49.78157043 291.36076355 C49.89114075 290.74330261 50.00071106 290.12584167 50.11360168 289.4896698 C50.27215637 288.64275574 50.43071106 287.79584167 50.59407043 286.92326355 C50.74489075 286.09955261 50.89571106 285.27584167 51.05110168 284.4271698 C51.66059806 281.86858877 52.42497933 279.60125675 53.33625793 277.1459198 C55.04529681 272.12244474 55.19429834 267.5037421 55.09407043 262.23576355 C55.09729309 261.38111511 55.10051575 260.52646667 55.10383606 259.6459198 C55.06048431 254.51464857 54.43442753 250.22055853 52.78157043 245.36076355 C52.45157043 245.36076355 52.12157043 245.36076355 51.78157043 245.36076355 Z M60.78157043 273.36076355 C56.84857501 283.93068874 58.16442045 294.26706704 62.78157043 304.36076355 C63.438255 305.6990414 64.10145813 307.03423821 64.78157043 308.36076355 C64.11512512 307.9018573 63.44867981 307.44295105 62.76203918 306.97013855 C51.94347379 299.76784886 42.78846683 296.77433736 29.78157043 296.36076355 C33.30656221 306.10930539 40.92207893 311.5259378 49.78157043 316.36076355 C58.35385976 320.28751099 67.64006981 319.51008181 76.78157043 318.36076355 C75.28016163 303.50471852 73.66513826 288.82314012 64.78157043 276.36076355 C64.12157043 275.37076355 63.46157043 274.38076355 62.78157043 273.36076355 C62.12157043 273.36076355 61.46157043 273.36076355 60.78157043 273.36076355 Z M203.78157043 273.36076355 C193.26576547 284.46077991 191.05927943 298.68578917 189.99250793 313.4427948 C189.78157043 315.36076355 189.78157043 315.36076355 188.78157043 318.36076355 C203.61528455 319.90555435 214.56889531 318.9577526 226.78157043 309.36076355 C232.81237118 303.77437872 232.81237118 303.77437872 235.78157043 296.36076355 C222.1225402 296.60310118 212.13577845 301.05086414 200.78157043 308.36076355 C201.13090637 307.7574823 201.48024231 307.15420105 201.84016418 306.53263855 C202.29520325 305.7334198 202.75024231 304.93420105 203.21907043 304.11076355 C203.67153137 303.3218573 204.12399231 302.53295105 204.59016418 301.72013855 C206.95177726 297.04337036 206.96432333 292.66010771 206.96907043 287.48576355 C206.98743958 286.44355652 206.98743958 286.44355652 207.00617981 285.3802948 C207.01859917 280.98383962 206.4006545 277.4436712 204.78157043 273.36076355 C204.45157043 273.36076355 204.12157043 273.36076355 203.78157043 273.36076355 Z M79.78157043 295.36076355 C81.23507776 306.68809652 85.69394233 317.12345148 94.78157043 324.36076355 C95.44157043 324.69076355 96.10157043 325.02076355 96.78157043 325.36076355 C95.74000793 325.3143573 94.69844543 325.26795105 93.62532043 325.22013855 C82.71784638 324.88945367 70.17212384 325.10039461 60.78157043 331.36076355 C60.78157043 332.02076355 60.78157043 332.68076355 60.78157043 333.36076355 C71.56839251 339.26086247 82.22338898 342.41842761 94.59407043 339.7552948 C97.99633848 338.75790372 101.22624197 337.60614124 104.46907043 336.17326355 C110.56141571 334.03270981 116.74536107 335.827758 122.78157043 337.36076355 C122.08032043 337.85705261 121.37907043 338.35334167 120.65657043 338.8646698 C110.17905481 346.03389539 110.17905481 346.03389539 101.78157043 355.36076355 C103.76157043 357.01076355 105.74157043 358.66076355 107.78157043 360.36076355 C108.44157043 360.03076355 109.10157043 359.70076355 109.78157043 359.36076355 C109.78157043 358.70076355 109.78157043 358.04076355 109.78157043 357.36076355 C110.35391418 357.10939636 110.92625793 356.85802917 111.51594543 356.5990448 C114.07776104 355.19888006 115.90659361 353.54711764 118.03157043 351.54826355 C126.59485228 343.84271601 126.59485228 343.84271601 130.78157043 342.36076355 C141.49444562 342.95033118 150.37074013 353.4161243 157.78157043 360.36076355 C159.76157043 358.71076355 161.74157043 357.06076355 163.78157043 355.36076355 C160.56568116 347.42705868 150.8540642 342.55187097 143.78157043 338.36076355 C149.04749089 335.68428332 153.80757147 334.56142566 159.78157043 335.36076355 C162.15115023 336.22960948 164.35838387 337.24180733 166.60578918 338.3881073 C174.96315269 342.12416388 186.26494352 341.28371739 194.78157043 338.36076355 C201.2443445 335.99523721 201.2443445 335.99523721 205.78157043 331.36076355 C192.6601056 326.01351999 181.77740764 324.28730619 167.78157043 326.36076355 C168.65168762 325.77681824 168.65168762 325.77681824 169.53938293 325.18107605 C179.60874299 317.96968618 183.60871443 309.40677229 185.78157043 297.36076355 C185.78157043 296.70076355 185.78157043 296.04076355 185.78157043 295.36076355 C177.20009544 296.46055547 169.69830428 303.59075241 164.34797668 310.0756073 C160.71479333 315.37588725 157.81287712 321.26684349 155.78157043 327.36076355 C152.8802349 328.22817314 150.11608814 328.90318132 147.15657043 329.48576355 C145.96354309 329.73906433 145.96354309 329.73906433 144.74641418 329.9974823 C142.42943773 330.4806613 140.1078512 330.92490545 137.78157043 331.36076355 C136.57758606 331.60181824 135.37360168 331.84287292 134.13313293 332.0912323 C130.22652955 332.4053997 127.508547 331.72542244 123.78157043 330.54826355 C122.62657043 330.19119324 121.47157043 329.83412292 120.28157043 329.4662323 C119.12657043 329.10142761 117.97157043 328.73662292 116.78157043 328.36076355 C115.55180481 328.11970886 114.32203918 327.87865417 113.05500793 327.6302948 C109.78157043 326.36076355 109.78157043 326.36076355 107.88313293 323.45451355 C107.39586731 322.26857605 106.90860168 321.08263855 106.40657043 319.86076355 C101.41908892 308.7557797 93.79499765 300.81331276 82.78157043 295.36076355 C81.79157043 295.36076355 80.80157043 295.36076355 79.78157043 295.36076355 Z M27.78157043 397.36076355 C27.78157043 401.65076355 27.78157043 405.94076355 27.78157043 410.36076355 C97.41157043 410.36076355 167.04157043 410.36076355 238.78157043 410.36076355 C239.60146203 400.62786874 239.60146203 400.62786874 237.78157043 397.36076355 C168.48157043 397.36076355 99.18157043 397.36076355 27.78157043 397.36076355 Z M27.78157043 424.36076355 C27.78157043 428.98076355 27.78157043 433.60076355 27.78157043 438.36076355 C55.14489754 438.38408906 82.50822316 438.40174101 109.87155819 438.41257572 C122.57585926 438.41773942 135.28015417 438.42478352 147.98445129 438.436203 C159.05315469 438.44614759 170.12185362 438.45261644 181.19056135 438.45485204 C187.05527871 438.45615954 192.9199833 438.4592478 198.78469658 438.46649361 C204.29785571 438.47325028 209.81099674 438.47538124 215.32415962 438.47387123 C217.35395023 438.47414772 219.3837414 438.47615493 221.41352844 438.47996902 C224.1720096 438.48490076 226.93042124 438.48376377 229.68890381 438.48101807 C230.50309011 438.48393091 231.31727641 438.48684375 232.15613502 438.48984486 C235.76635033 438.81982336 235.76635033 438.81982336 238.78157043 437.36076355 C238.8803086 435.36276783 238.91128843 433.36119197 238.90657043 431.36076355 C238.90914856 430.26763855 238.91172668 429.17451355 238.91438293 428.04826355 C239.08704798 425.44246001 239.08704798 425.44246001 237.78157043 424.36076355 C235.07564799 424.26291234 232.39525867 424.23082675 229.68890381 424.24050903 C228.83050339 424.23965461 227.97210297 424.23880018 227.08769041 424.23791987 C224.18867333 424.23626243 221.28971311 424.24179073 218.39070129 424.24723816 C216.3216146 424.24752 214.2525278 424.24736236 212.18344116 424.24679565 C206.5473078 424.24650756 200.91119553 424.25240622 195.27506709 424.25936961 C189.39202782 424.26560116 183.50898811 424.26620679 177.62594604 424.26739502 C166.47702816 424.27050893 155.32812002 424.27872311 144.17920643 424.28874451 C131.49018775 424.29990381 118.80116862 424.30541563 106.11214626 424.31043994 C80.0019489 424.32090568 53.89176021 424.33850626 27.78157043 424.36076355 Z M68.78157043 452.36076355 C68.78157043 456.65076355 68.78157043 460.94076355 68.78157043 465.36076355 C111.02157043 465.36076355 153.26157043 465.36076355 196.78157043 465.36076355 C196.78157043 461.07076355 196.78157043 456.78076355 196.78157043 452.36076355 C154.54157043 452.36076355 112.30157043 452.36076355 68.78157043 452.36076355 Z M294.78157043 498.36076355 C293.73961908 499.71983053 292.72373921 501.09890871 291.71907043 502.48576355 C284.58017462 511.70563304 274.64688512 517.60181621 262.95993602 519.16225421 C258.29495046 519.58736338 253.6109083 519.51484996 248.93026733 519.51898193 C247.74005618 519.52391991 246.54984502 519.52885789 245.32356685 519.5339455 C242.03292402 519.54661893 238.74230391 519.55492766 235.45164406 519.56137216 C231.89821115 519.56940231 228.34479944 519.58309103 224.79138184 519.59608459 C218.63914214 519.61781035 212.48690027 519.63596904 206.33464241 519.65168953 C197.43956383 519.67442376 188.54450877 519.70256162 179.64945018 519.73200881 C165.21701954 519.77964121 150.78457927 519.82291715 136.35212708 519.8634491 C122.33421581 519.90282619 108.31631309 519.94425771 94.29841614 519.9884491 C93.00183166 519.9925355 93.00183166 519.9925355 91.67905355 519.99670447 C87.34256722 520.01038431 83.00608102 520.02410451 78.66959488 520.03784478 C42.70693784 520.15174117 6.74426253 520.25856561 -29.21842957 520.36076355 C-27.86307065 524.75586537 -26.86103234 527.21984544 -23.28092957 530.17326355 C-22.59128113 530.75720886 -21.90163269 531.34115417 -21.19108582 531.9427948 C-17.95016777 534.27240519 -15.24287396 534.48664409 -11.37382984 534.49219131 C-9.86744362 534.49795303 -9.86744362 534.49795303 -8.33062536 534.50383115 C-6.67102891 534.50253142 -6.67102891 534.50253142 -4.97790527 534.50120544 C-3.80492345 534.50417657 -2.63194162 534.50714769 -1.42341489 534.51020885 C1.83802384 534.51739644 5.09943051 534.52006873 8.36087596 534.52080631 C11.87635253 534.52265592 15.39181764 534.53020285 18.9072876 534.53694153 C26.59748291 534.55053007 34.28767301 534.55655057 41.97787833 534.56095219 C46.779624 534.5637141 51.58136765 534.5679514 56.38311195 534.57245636 C69.67709953 534.58465042 82.97108549 534.594949 96.26507854 534.59833145 C97.11613273 534.59855102 97.96718691 534.59877058 98.84403061 534.5989968 C99.69712765 534.59921508 100.5502247 534.59943336 101.42917317 534.59965825 C103.15788567 534.60010172 104.88659817 534.60054828 106.61531067 534.60099792 C107.47281274 534.60121935 108.3303148 534.60144078 109.21380178 534.60166892 C123.10479614 534.60561594 136.99573801 534.62306641 150.8867121 534.64635745 C165.14760429 534.67007571 179.40847016 534.68253354 193.66938239 534.68369937 C201.67661732 534.68461594 209.68378389 534.69036356 217.69099998 534.70851898 C224.51035808 534.72392648 231.32962669 534.72903667 238.14899888 534.72078088 C241.62746096 534.71687646 245.10574287 534.71779357 248.58418274 534.73183823 C252.35831991 534.74451329 256.13199416 534.73870442 259.90612793 534.72825623 C261.00137195 534.73631263 262.09661597 534.74436903 263.2250492 534.75266957 C272.81073223 534.69057541 280.49873358 532.45087889 287.60188293 525.6068573 C294.94130816 517.76073536 296.1411465 511.57157028 295.88703918 500.92326355 C295.8522345 500.07763855 295.81742981 499.23201355 295.78157043 498.36076355 C295.45157043 498.36076355 295.12157043 498.36076355 294.78157043 498.36076355 Z " fill="#000000" transform="translate(195.2184295654297,237.6392364501953)"/>
<path d="M0 0 C116.82 0 233.64 0 354 0 C354 180.84 354 361.68 354 548 C237.18 548 120.36 548 0 548 C0 367.16 0 186.32 0 0 Z M12 12 C12 184.92 12 357.84 12 536 C120.9 536 229.8 536 342 536 C342 363.08 342 190.16 342 12 C233.1 12 124.2 12 12 12 Z " fill="#000000" transform="translate(519,238)"/>
<path d="M0 0 C48.51 0 97.02 0 147 0 C147 51.81 147 103.62 147 157 C98.49 157 49.98 157 0 157 C0 105.19 0 53.38 0 0 Z M10 10 C10 54.55 10 99.1 10 145 C12.11113358 142.20059795 12.11113358 142.20059795 14.11328125 139.32421875 C19.51619147 131.95021425 28.61443997 128.65930387 36.91796875 125.47265625 C37.54960938 125.22394775 38.18125 124.97523926 38.83203125 124.71899414 C40.59071702 124.0375034 42.36346384 123.39262919 44.13671875 122.75 C48.00995911 120.38272622 48.73007001 118.30788971 50 114 C50.62081634 108.38756949 49.39236929 104.90471102 46.8125 99.9375 C46.22082031 98.77089844 45.62914062 97.60429687 45.01953125 96.40234375 C43.53001664 93.89292939 42.21882432 91.97420959 40.34765625 89.80859375 C36.97105706 85.76903499 35.99408139 82.14869916 36.00390625 76.921875 C36.29880375 73.63408163 36.8894662 71.18893247 38.55859375 68.3359375 C40.4573117 63.94161466 40.12702781 60.45312676 39.875 55.75 C39.66045362 46.63568766 40.74419945 40.70031357 47.01953125 33.76953125 C55.521713 25.59492919 64.68272345 22.6269148 76.33984375 22.78515625 C83.9502842 23.39980269 88.79982126 25.39980751 94 31 C95.48569182 31.75789435 96.9874931 32.48464376 98.5 33.1875 C102.88733701 35.61188823 105.16258536 37.98968222 107.21484375 42.57421875 C108.50499146 48.20337068 108.26578941 53.85255172 107.99243164 59.59960938 C107.7782997 64.8150814 107.92490102 67.60253021 111 72 C112.03797585 78.25590848 111.28692892 83.69504726 108.265625 89.24609375 C107 91 107 91 105.0703125 92.87890625 C100.46500515 97.59717397 97.11418708 103.66101224 96.88671875 110.3125 C97.65648537 116.23948526 97.65648537 116.23948526 100.95703125 121.06640625 C106.03342499 124.29209932 111.59745637 126.32298144 117.1640625 128.55664062 C125.77810248 132.10685567 131.80307485 135.43827269 136 144 C136.33 144 136.66 144 137 144 C137 99.78 137 55.56 137 10 C95.09 10 53.18 10 10 10 Z M86.140625 53.50390625 C79.36165985 55.81738415 72.58916315 55.10756002 65.53125 54.79492188 C59.40539501 54.56545534 59.40539501 54.56545534 53.84375 56.8359375 C49.66859599 61.73643607 49.52112806 67.8287466 49 74 C47.35 74 45.7 74 44 74 C43.70798096 78.96432365 43.85292427 82.03701574 47 86 C47.99 86.33 48.98 86.66 50 87 C51.140625 89.66015625 51.140625 89.66015625 52.25 93.0625 C55.00489431 100.58484613 58.64854531 105.96851081 65.3125 110.5 C70.11150623 112.45213813 73.89817934 113.00632242 79 112 C86.99168428 108.59518274 91.83910783 102.26130267 95.078125 94.375 C95.72255571 92.65651811 96.35957599 90.93523464 96.98828125 89.2109375 C98 87 98 87 100.75 84.375 C103.27885355 81.70565459 103.31860004 81.18282263 103.3125 77.6875 C103.1578125 75.8621875 103.1578125 75.8621875 103 74 C101.68 74 100.36 74 99 74 C98.91363281 73.33355469 98.82726562 72.66710937 98.73828125 71.98046875 C97.62269337 64.66262162 95.33872339 58.58824426 92 52 C89.67364737 52 88.30035011 52.64502613 86.140625 53.50390625 Z M58 116 C57.01 119.3 56.02 122.6 55 126 C62.4994275 131.22687371 68.49823522 135.14306945 78 134 C83.76989623 132.61175429 87.68028876 129.9957329 92 126 C91.34 122.7 90.68 119.4 90 116 C88.700625 116.474375 87.40125 116.94875 86.0625 117.4375 C77.01102219 120.39337322 70.97229231 120.13022979 62 117 C60.68 116.67 59.36 116.34 58 116 Z " fill="#000000" transform="translate(543,263)"/>
<path d="M0 0 C48.51 0 97.02 0 147 0 C147 51.81 147 103.62 147 157 C98.49 157 49.98 157 0 157 C0 105.19 0 53.38 0 0 Z M10 10 C10 54.55 10 99.1 10 145 C12.01550434 142.11111445 12.01550434 142.11111445 13.375 139.25 C18.78500304 131.28254098 30.50623315 127.73122162 39.21166992 124.57250977 C43.73168745 122.85327474 46.39936978 121.28682437 49 117 C50.47538736 112.6325598 50.5861311 108.61301432 49.0078125 104.26953125 C47.76386338 101.77795269 46.42305916 99.39275433 45 97 C44.66613281 96.29359375 44.33226562 95.5871875 43.98828125 94.859375 C42.98470505 92.73423376 42.98470505 92.73423376 40.5 90.625 C36.12477096 86.0310095 35.77982648 81.42032429 35.63671875 75.34375 C36 73 36 73 37.51953125 70.234375 C39.32999057 66.27907074 39.21289366 62.98469136 39 58.75 C38.78555421 49.22554334 39.92847383 41.41380976 46.14453125 33.81640625 C53.30363289 26.80802254 63.11225735 22.94894378 73.0625 22.6875 C81.37704268 22.97510997 88.47207881 24.38161929 94.4375 30.5 C96.8490624 33.15275239 96.8490624 33.15275239 100.0625 34.3125 C104.61408214 36.92723868 106.1026793 41.06171456 107.59765625 45.95703125 C108.65766284 51.33939479 108.22821437 57.0014673 107.3125 62.375 C106.64604263 65.92041918 106.64604263 65.92041918 108.375 68.25 C108.91125 68.8275 109.4475 69.405 110 70 C112.15452175 75.6801028 111.27261621 81.549014 109.05078125 87.03515625 C107.58081088 89.7838369 105.60001767 91.85719485 103.4921875 94.1328125 C100.89459151 97.38320748 99.52396054 101.16274551 98 105 C97.67 105.66 97.34 106.32 97 107 C97.0237904 109.31107878 97.0237904 109.31107878 97.3125 111.875 C97.39113281 112.73867188 97.46976563 113.60234375 97.55078125 114.4921875 C98.02826667 117.15780176 98.519603 118.7339622 100 121 C102.43664428 122.44602192 102.43664428 122.44602192 105.3828125 123.55078125 C107.01089844 124.22850586 107.01089844 124.22850586 108.671875 124.91992188 C110.94973537 125.83853864 113.22836604 126.75524792 115.5078125 127.66992188 C124.96303512 131.61145631 130.61798654 136.02248318 137 144 C137 99.78 137 55.56 137 10 C95.09 10 53.18 10 10 10 Z M85.046875 53.50390625 C78.4871443 55.76794286 72.01241743 55.11199585 65.17578125 54.79492188 C59.29678699 54.60089035 59.29678699 54.60089035 53.90625 56.6953125 C51.87895473 59.14634572 51.02532901 60.86927727 50.25 63.9375 C50.02828125 64.77152344 49.8065625 65.60554688 49.578125 66.46484375 C49.00703804 68.96913723 48.48723076 71.47812967 48 74 C46.68 74 45.36 74 44 74 C43.38115658 79.99092879 43.38115658 79.99092879 46.375 85 C48.71512812 87.20201441 48.71512812 87.20201441 51 87 C51.061875 87.94875 51.12375 88.8975 51.1875 89.875 C52.32498388 97.55691169 56.15583342 104.19992496 62.3203125 108.8828125 C67.33553179 112.21851649 72.08817088 112.77110815 78 112 C84.73490162 110.06524645 88.49912688 105.89348167 92 100 C94.38333437 95.49238934 96 92.15900021 96 87 C96.78375 86.7525 97.5675 86.505 98.375 86.25 C101.02419575 85.22930976 101.02419575 85.22930976 102.3125 83.3125 C103.2478171 80.16643337 103.12541365 77.26075491 103 74 C101.35 74 99.7 74 98 74 C97.98582031 73.41734375 97.97164062 72.8346875 97.95703125 72.234375 C97.52248218 64.76482891 95.13928712 58.74193766 92 52 C89.03752546 52 87.7261033 52.4275527 85.046875 53.50390625 Z M57 116 C56.34 119.3 55.68 122.6 55 126 C61.47205427 131.13300856 66.32077691 134.52473199 74.92578125 134.24609375 C82.17818685 133.38563885 86.78241826 129.89148288 92 125 C91.01 122.03 90.02 119.06 89 116 C88.154375 116.28875 87.30875 116.5775 86.4375 116.875 C85.303125 117.24625 84.16875 117.6175 83 118 C81.39125 118.5878125 81.39125 118.5878125 79.75 119.1875 C71.69423381 120.93291601 64.57188311 118.80892438 57 116 Z " fill="#000000" transform="translate(702,263)"/>
<path d="M0 0 C0 7.59 0 15.18 0 23 C-11 22 -11 22 -15 21 C-13.62308429 13.25484914 -8.82644915 6.18643808 -2.8046875 1.171875 C-1 0 -1 0 0 0 Z " fill="#000000" transform="translate(324,420)"/>
<path d="M0 0 C6.76642336 4.51094891 6.76642336 4.51094891 9.75 9 C10.60851562 10.2684375 10.60851562 10.2684375 11.484375 11.5625 C15 17.21649485 15 17.21649485 15 21 C13.2508503 21.33776684 11.50063855 21.67003671 9.75 22 C8.77546875 22.185625 7.8009375 22.37125 6.796875 22.5625 C4 23 4 23 0 23 C0 15.41 0 7.82 0 0 Z " fill="#000000" transform="translate(332,420)"/>
<path d="M0 0 C4.68187876 1.31981745 8.00374921 3.19795672 11.875 6.125 C13.32519531 7.21167969 13.32519531 7.21167969 14.8046875 8.3203125 C15.89136719 9.15175781 15.89136719 9.15175781 17 10 C16 13 16 13 13.0625 14.6875 C10 16 10 16 8 16 C6.85121668 13.89739659 5.70588808 11.79303461 4.5625 9.6875 C4.23701172 9.09259766 3.91152344 8.49769531 3.57617188 7.88476562 C2.16262616 5.27626374 0.94051367 2.82154101 0 0 Z " fill="#000000" transform="translate(347,422)"/>
<path d="M0 0 C0 3.88091967 -1.65317733 6.39673296 -3.5 9.6875 C-3.83386719 10.29400391 -4.16773438 10.90050781 -4.51171875 11.52539062 C-5.335537 13.02003231 -6.16703451 14.51043671 -7 16 C-9.64 15.01 -12.28 14.02 -15 13 C-15 11.68 -15 10.36 -15 9 C-12.98828125 7.1484375 -12.98828125 7.1484375 -10.3125 5.375 C-9.44238281 4.78460938 -8.57226562 4.19421875 -7.67578125 3.5859375 C-5.16656392 2.09872256 -2.73602943 0.99581612 0 0 Z " fill="#000000" transform="translate(308,422)"/>
<path d="M0 0 C5.00445885 1.46471966 8.25822241 3.29041281 13 6 C12.01 12.93 11.02 19.86 10 27 C3.73 27 -2.54 27 -9 27 C-9 21.04995111 -8.70474433 18.25416906 -6.75 12.9375 C-6.33234375 11.77089844 -5.9146875 10.60429687 -5.484375 9.40234375 C-3.95079554 5.88721819 -2.2161539 3.11113913 0 0 Z " fill="#000000" transform="translate(285,440)"/>
<path d="M0 0 C5.4239429 8.0652901 7.30587321 16.58818449 9 26 C2.4 26 -4.2 26 -11 26 C-11.99 19.07 -12.98 12.14 -14 5 C-3.375 -1.125 -3.375 -1.125 0 0 Z " fill="#000000" transform="translate(372,441)"/>
<path d="M0 0 C1.68770515 0.14343968 3.37515486 0.28988569 5.0625 0.4375 C6.00222656 0.51871094 6.94195312 0.59992188 7.91015625 0.68359375 C11.28429685 1.02911257 14.64230378 1.52032911 18 2 C18 7.28 18 12.56 18 18 C11.07 18 4.14 18 -3 18 C-2.690625 15.586875 -2.38125 13.17375 -2.0625 10.6875 C-1.96718994 9.93170654 -1.87187988 9.17591309 -1.77368164 8.3972168 C-1.39005485 5.4652401 -0.93749832 2.81249496 0 0 Z " fill="#000000" transform="translate(306,449)"/>
<path d="M0 0 C2.44636251 5.87127003 2.58123615 11.71854227 3 18 C-3.93 18 -10.86 18 -18 18 C-18.020625 15.545625 -18.04125 13.09125 -18.0625 10.5625 C-18.071604 9.78849854 -18.08070801 9.01449707 -18.09008789 8.21704102 C-18.09724913 6.47778283 -18.05024702 4.73854696 -18 3 C-16.23097012 1.23097012 -13.64889747 1.33244044 -11.25 0.9375 C-10.20328125 0.76089844 -9.1565625 0.58429688 -8.078125 0.40234375 C-5.33607748 0.04392891 -2.75967048 -0.07665751 0 0 Z " fill="#000000" transform="translate(350,449)"/>
<path d="M0 0 C48.51 0 97.02 0 147 0 C147 51.48 147 102.96 147 156 C98.49 156 49.98 156 0 156 C0 104.52 0 53.04 0 0 Z M10 10 C10 54.22 10 98.44 10 144 C11.61167709 141.85109721 13.21442799 139.69455924 14.7578125 137.49609375 C17.43541343 134.51528017 20.34988621 132.84046228 23.875 131.0625 C24.85388184 130.55154785 24.85388184 130.55154785 25.85253906 130.03027344 C31.48641496 127.13881332 37.27137612 124.71202297 43.171875 122.421875 C47.26509809 120.36395621 48.5743922 118.2768234 50 114 C50.76649101 106.71833542 48.52276347 102.276924 45 96 C44.65710938 95.28328125 44.31421875 94.5665625 43.9609375 93.828125 C43.02406285 91.82612687 43.02406285 91.82612687 41 90 C37.0453158 86.0453158 36.42733453 81.94762955 35.95703125 76.53515625 C36.02167363 72.72125612 37.24827952 70.36869324 39 67 C40.20383597 63.69520188 40.00252041 60.54077329 39.88378906 57.05957031 C39.64540507 49.54557629 39.75745735 43.48946419 44 37 C44.556875 36.113125 45.11375 35.22625 45.6875 34.3125 C53.68782282 26.31217718 62.36978965 22.74059212 73.5 22.625 C80.90356237 22.69419961 86.85052935 23.00800288 92.5 28.375 C93.325 29.24125 94.15 30.1075 95 31 C96.33629475 31.84156993 97.69213361 32.65263085 99.0625 33.4375 C103.33899134 36.00339481 106.06641131 39.03957121 107.59814453 43.89672852 C108.03792527 46.1984971 108.06474616 48.24850542 107.9921875 50.58984375 C107.96705078 51.89018555 107.96705078 51.89018555 107.94140625 53.21679688 C107.89722563 55.02690286 107.84517349 56.83683426 107.78515625 58.64648438 C107.70092568 63.80369269 108.00149737 66.6525566 111 71 C112.16720367 78.03476805 111.1088423 84.16037824 107 90 C106.34 90.61875 105.68 91.2375 105 91.875 C102.25617605 94.79031295 101.27041466 98.02372114 99.9296875 101.7578125 C99 104 99 104 97 106 C96.90201348 108.31224819 96.90201348 108.31224819 97.25 110.875 C97.33765625 111.73867188 97.4253125 112.60234375 97.515625 113.4921875 C98.03204707 116.16592112 98.49032001 117.73124625 100 120 C102.74596826 121.62213238 102.74596826 121.62213238 106.07421875 122.953125 C107.31201319 123.49571925 108.54963789 124.03870085 109.78710938 124.58203125 C111.72806265 125.41599458 113.67147548 126.24326286 115.61889648 127.06201172 C125.24539823 131.13897361 131.18774421 135.28161631 137 144 C137 99.78 137 55.56 137 10 C95.09 10 53.18 10 10 10 Z M88.578125 51.875 C79.81805632 54.83614997 72.30135573 55.34503923 63.11035156 54.8515625 C57.92975005 54.54209619 57.92975005 54.54209619 53.4609375 56.8671875 C49.62061964 62.47364084 49.76895472 67.38953777 50 74 C49.195625 73.814375 48.39125 73.62875 47.5625 73.4375 C46.716875 73.293125 45.87125 73.14875 45 73 C43.63777693 74.15016254 43.63777693 74.15016254 43.6875 77.25 C44.04591254 81.55095051 44.89410102 83.07158096 48 86 C48.99 86 49.98 86 51 86 C51.226875 87.299375 51.45375 88.59875 51.6875 89.9375 C53.56512079 98.17313328 57.02859095 104.10471181 64.09765625 108.84375 C68.83667918 111.72414176 72.16382209 112.44081491 77.65625 111.671875 C83.67492809 109.94652061 88.64665264 105.14978344 92 100 C94.72214114 94.57849336 94.72214114 94.57849336 96.4609375 88.796875 C96.63882813 88.20390625 96.81671875 87.6109375 97 87 C98.2065625 86.4121875 98.2065625 86.4121875 99.4375 85.8125 C102.91831108 83.3504629 103.05121235 81.10857356 103.8359375 77.05859375 C104.18353225 74.93634999 104.18353225 74.93634999 103 73 C101.35 73.33 99.7 73.66 98 74 C98.0928125 72.2675 98.0928125 72.2675 98.1875 70.5 C98.1875 65.81987848 96.86969869 62.23629929 95 58 C94.57074219 56.98099609 94.57074219 56.98099609 94.1328125 55.94140625 C93.43455217 54.28885679 92.71907471 52.64359933 92 51 C90.72756786 50.94336774 90.72756786 50.94336774 88.578125 51.875 Z M58 115 C57.01 118.3 56.02 121.6 55 125 C56.8253125 126.423125 56.8253125 126.423125 58.6875 127.875 C59.37199219 128.40867187 60.05648437 128.94234375 60.76171875 129.4921875 C66.54688483 133.38934999 72.18860568 133.90939844 79 133 C83.64734661 131.33336535 89.07059861 129.15406753 92 125 C91.92764536 122.45766745 91.92764536 122.45766745 91.1875 119.8125 C90.97480469 118.91144531 90.76210938 118.01039063 90.54296875 117.08203125 C90.36378906 116.39496094 90.18460938 115.70789063 90 115 C89.319375 115.28875 88.63875 115.5775 87.9375 115.875 C76.56558383 120.23020194 69.13235214 119.66102221 58 115 Z " fill="#000000" transform="translate(543,434)"/>
<path d="M0 0 C48.51 0 97.02 0 147 0 C147 51.48 147 102.96 147 156 C98.49 156 49.98 156 0 156 C0 104.52 0 53.04 0 0 Z M10 10 C10 54.22 10 98.44 10 144 C11.74735046 141.67019938 13.49044228 139.33717028 15.22265625 136.99609375 C18.11557254 133.55933941 21.40196692 131.90597604 25.4375 130.0625 C26.13182129 129.72605469 26.82614258 129.38960937 27.54150391 129.04296875 C31.02670793 127.35854582 34.53992117 125.75765164 38.08984375 124.21484375 C44.49048956 121.62104141 44.49048956 121.62104141 49.34765625 116.99609375 C51.48477209 109.53741794 48.51751805 103.3738485 45 97 C43.46918229 94.25728494 41.96862211 91.96291704 39.9375 89.5625 C36.30811827 84.76234997 35.77418196 80.18064928 35.63671875 74.34375 C36 72 36 72 37.51953125 69.203125 C39.27887009 65.39663991 39.22049998 62.32729823 39 58.25 C38.75897299 49.02543134 40.02021151 41.30863038 46 34 C53.08703205 26.80449297 60.86753599 22.93885187 70.9909668 22.75830078 C86.33247259 22.70192866 86.33247259 22.70192866 91.58984375 27.4296875 C92.60081523 28.463811 93.59257484 29.51712761 94.5625 30.58984375 C96.11550633 32.25769077 96.11550633 32.25769077 99.125 33.5625 C103.59871955 35.79935977 105.41481351 38.53703376 107.25 43.125 C108.50243471 49.59591264 108.40247573 55.94608901 107.3125 62.4375 C106.65620079 65.93437649 106.65620079 65.93437649 108.375 68.3125 C108.91125 68.869375 109.4475 69.42625 110 70 C111.91041507 75.73124522 111.20004047 80.69849161 108.98046875 86.1796875 C108 88 108 88 105.625 90.25 C102.15416439 93.8861135 100.80717777 97.80415895 99.015625 102.453125 C98 105 98 105 97 106 C96.94881367 108.4630838 96.94881367 108.4630838 97.1875 111.3125 C97.24292969 112.27800781 97.29835938 113.24351562 97.35546875 114.23828125 C98.16128591 117.69108568 99.33865141 118.69536491 102 121 C104.55785433 122.42376001 104.55785433 122.42376001 107.39453125 123.5859375 C108.43287109 124.04226563 109.47121094 124.49859375 110.54101562 124.96875 C112.70928085 125.90078042 114.87854239 126.83049669 117.04882812 127.7578125 C125.57931331 131.51396924 132.36451054 135.01820252 136 144 C136.33 144 136.66 144 137 144 C137 99.78 137 55.56 137 10 C95.09 10 53.18 10 10 10 Z M90 51 C88.23559533 51.60537333 86.48861782 52.2616237 84.75 52.9375 C77.29786074 55.41318263 70.30718294 55.22771096 62.51660156 54.76342773 C56.98161132 54.41231517 56.98161132 54.41231517 52.42578125 57.22265625 C51.14091106 59.72551297 50.27290186 61.74992356 49.75 64.5 C49.60304688 65.27214844 49.45609375 66.04429687 49.3046875 66.83984375 C48.96441793 69.25226775 48.84305148 71.56729794 49 74 C47.35 73.67 45.7 73.34 44 73 C42.38851123 77.02872193 43.43381189 80.08452971 45 84 C45.81339844 84.45890625 46.62679687 84.9178125 47.46484375 85.390625 C50.60861831 87.38636478 50.93819838 88.66260024 51.9375 92.1875 C54.41011927 99.67459114 58.36318174 105.75734594 65.09375 110.08203125 C69.65996913 112.28092776 73.67667177 112.68312254 78.55078125 111.25 C86.12895448 107.93814281 91.11743919 102.73454662 94.17578125 95.04296875 C94.8222964 93.13837007 95.42827116 91.2192079 95.98046875 89.28515625 C97.22168233 86.5031258 98.24104232 86.10797107 101 85 C103.54251421 81.56760581 103.15913541 78.13752054 103 74 C100 72.66666667 100 72.66666667 97 74 C97.08701172 73.12601563 97.08701172 73.12601563 97.17578125 72.234375 C97.59139546 64.68207098 95.60298409 58.62730709 92 52 C91.34 51.67 90.68 51.34 90 51 Z M57 115 C56.34 118.3 55.68 121.6 55 125 C61.76983792 131.22825088 66.79403722 133.54333546 76.109375 133.390625 C82.4623268 132.532118 87.52994562 129.47005438 92 125 C91.01 121.7 90.02 118.4 89 115 C88.31035156 115.28875 87.62070312 115.5775 86.91015625 115.875 C78.29729883 119.27761034 72.2805172 120.49719888 63.5625 117 C62.73878906 116.62875 61.91507813 116.2575 61.06640625 115.875 C59.06705557 114.87002536 59.06705557 114.87002536 57 115 Z " fill="#000000" transform="translate(702,434)"/>
<path d="M0 0 C6.27 0 12.54 0 19 0 C19.495 2.8875 19.99 5.775 20.5 8.75 C20.65662109 9.65331055 20.81324219 10.55662109 20.97460938 11.48730469 C21.09642578 12.20821289 21.21824219 12.92912109 21.34375 13.671875 C21.46943359 14.4050293 21.59511719 15.13818359 21.72460938 15.89355469 C22 18 22 18 22 22 C20.21046815 22.83790789 18.41830305 23.67019396 16.625 24.5 C15.62726563 24.9640625 14.62953125 25.428125 13.6015625 25.90625 C11 27 11 27 9 27 C2.52787363 19.51522801 0 9.61085798 0 0 Z " fill="#000000" transform="translate(276,475)"/>
<path d="M0 0 C6.93 0 13.86 0 21 0 C21 5.28 21 10.56 21 16 C15.06 16.99 9.12 17.98 3 19 C2.505 16.421875 2.01 13.84375 1.5 11.1875 C1.34337891 10.37949951 1.18675781 9.57149902 1.02539062 8.73901367 C0.46402571 5.77959587 0 3.01877934 0 0 Z " fill="#000000" transform="translate(303,475)"/>
<path d="M0 0 C6.93 0 13.86 0 21 0 C20.53554588 6.88940276 19.91692393 12.29076624 18 19 C12.06 18.01 6.12 17.02 0 16 C0 10.72 0 5.44 0 0 Z " fill="#000000" transform="translate(332,475)"/>
<path d="M0 0 C6.6 0 13.2 0 20 0 C18.59852575 9.68291302 16.28664966 19.24707636 10 27 C4.99554115 25.53528034 1.74177759 23.70958719 -3 21 C-2.01 14.07 -1.02 7.14 0 0 Z " fill="#000000" transform="translate(361,475)"/>
<path d="M0 0 C2.17419795 0.20163933 4.34097513 0.4862995 6.5 0.8125 C8.27890625 1.06966797 8.27890625 1.06966797 10.09375 1.33203125 C11.53234375 1.66267578 11.53234375 1.66267578 13 2 C13.33 2.66 13.66 3.32 14 4 C11.21778685 10.52791645 7.35068924 17.23383983 2 22 C1.01 22.33 0.02 22.66 -1 23 C-1.02887512 19.35418313 -1.04675585 15.70839537 -1.0625 12.0625 C-1.07087891 11.02158203 -1.07925781 9.98066406 -1.08789062 8.90820312 C-1.09272461 7.42416992 -1.09272461 7.42416992 -1.09765625 5.91015625 C-1.10289307 4.99371338 -1.10812988 4.07727051 -1.11352539 3.13305664 C-1 1 -1 1 0 0 Z " fill="#000000" transform="translate(333,499)"/>
<path d="M0 0 C0 7.26 0 14.52 0 22 C-7.91400381 16.72399746 -11.6457727 10.75826018 -15 2 C-4.86206897 -1.62068966 -4.86206897 -1.62068966 0 0 Z " fill="#000000" transform="translate(324,500)"/>
<path d="M0 0 C2.97 1.32 5.94 2.64 9 4 C6.83937246 8.32125508 5.61327102 9.2228982 1.625 11.6875 C0.66851562 12.28949219 -0.28796875 12.89148438 -1.2734375 13.51171875 C-3.59995839 14.78163918 -5.41510565 15.54059935 -8 16 C-6.57250019 12.20950293 -4.83763458 8.72877544 -2.875 5.1875 C-2.33617187 4.21167969 -1.79734375 3.23585938 -1.2421875 2.23046875 C-0.83226562 1.49441406 -0.42234375 0.75835937 0 0 Z " fill="#000000" transform="translate(355,504)"/>
<path d="M0 0 C2.82144057 2.49199092 4.37080031 5.25243979 6.125 8.5625 C6.64320313 9.53316406 7.16140625 10.50382813 7.6953125 11.50390625 C8.47544804 12.99644102 9.24683714 14.49367427 10 16 C6.12930083 15.44021635 3.63382859 14.3596506 0.4375 12.125 C-0.67818359 11.35542969 -0.67818359 11.35542969 -1.81640625 10.5703125 C-3.89841371 9.0730549 -5.95571791 7.54827714 -8 6 C-7.67 5.01 -7.34 4.02 -7 3 C-3.4375 1.3125 -3.4375 1.3125 0 0 Z " fill="#000000" transform="translate(300,504)"/>
<path d="M0 0 C48.51 0 97.02 0 147 0 C147 51.81 147 103.62 147 157 C98.49 157 49.98 157 0 157 C0 105.19 0 53.38 0 0 Z M10 10 C10 54.22 10 98.44 10 144 C11.32 142.35 12.64 140.7 14 139 C17.78933069 134.7296908 21.48865034 132.44441244 26.5625 130.0625 C27.61280396 129.54937256 27.61280396 129.54937256 28.68432617 129.02587891 C31.97226706 127.422535 35.27762647 125.87410661 38.609375 124.36328125 C39.66640625 123.87214844 40.7234375 123.38101563 41.8125 122.875 C42.74707031 122.45992187 43.68164062 122.04484375 44.64453125 121.6171875 C47.7187967 119.50649779 48.64280942 117.43470236 50 114 C50.96286193 106.77853554 48.5575635 102.19635684 45 96 C44.46375 95.030625 43.9275 94.06125 43.375 93.0625 C42.12226663 91.00104567 42.12226663 91.00104567 40.5234375 89.6640625 C37.21243009 86.04742363 36.07721193 80.51796684 35.9296875 75.70703125 C36.20849498 72.73494349 36.45655007 70.56648896 38.56640625 68.3671875 C40.85323695 64.59111283 40.04715261 60.80196445 39.8125 56.5 C39.56389261 46.59580245 40.99256635 39.30826784 48.015625 31.86328125 C56.73672854 24.38132731 66.17636706 22.36528569 77.4609375 22.6640625 C82.00383396 23.09528667 85.8377284 24.19072428 90 26 C91.485 26.495 91.485 26.495 93 27 C93.31195312 27.63164063 93.62390625 28.26328125 93.9453125 28.9140625 C95.23252405 31.4598809 96.38576039 32.05053666 98.875 33.375 C103.73287032 36.23153355 106.21158468 39.63475405 108 45 C108.04747241 46.64254536 108.03790766 48.28709244 107.9921875 49.9296875 C107.96705078 51.37021484 107.96705078 51.37021484 107.94140625 52.83984375 C107.89730218 54.85565913 107.84527847 56.87131752 107.78515625 58.88671875 C107.70604788 64.25889609 107.77541988 67.51218231 111 72 C112.00972589 78.15734807 111.091616 83.56302014 108 89 C107.195625 89.763125 106.39125 90.52625 105.5625 91.3125 C102.49267559 94.53207195 101.37353462 97.55410305 99.89453125 101.6953125 C99 104 99 104 97 107 C96.93131144 109.85070846 96.93131144 109.85070846 97.4375 112.9375 C97.55996094 113.97777344 97.68242188 115.01804687 97.80859375 116.08984375 C99.47592207 120.16249816 102.17099882 121.291244 106 123 C106.77013428 123.34764404 107.54026855 123.69528809 108.33374023 124.0534668 C111.74668645 125.56110629 115.1746163 127.03006353 118.6171875 128.46875 C126.54854671 131.9161189 132.64829833 135.71932529 136 144 C136.33 144 136.66 144 137 144 C137 99.78 137 55.56 137 10 C95.09 10 53.18 10 10 10 Z M89.0859375 51.875 C80.6323274 55.38312638 73.05986334 55.26657053 64.01123047 54.67578125 C58.85484771 54.31826516 58.85484771 54.31826516 54.23388672 56.20410156 C50.46284332 60.50344233 49.85702989 64.27803232 49.9375 69.75 C49.95103516 70.94882812 49.95103516 70.94882812 49.96484375 72.171875 C49.97644531 72.77515625 49.98804688 73.3784375 50 74 C49.195625 73.814375 48.39125 73.62875 47.5625 73.4375 C46.716875 73.293125 45.87125 73.14875 45 73 C44.67 73.33 44.34 73.66 44 74 C43.98726301 76.03985647 43.98726301 76.03985647 44.25 78.375 C44.31703125 79.16648437 44.3840625 79.95796875 44.453125 80.7734375 C45.09871952 83.40192949 45.83458445 84.4017171 48 86 C48.99 86 49.98 86 51 86 C51.06316406 86.60585938 51.12632812 87.21171875 51.19140625 87.8359375 C52.37631722 95.94322311 55.7540462 102.21424161 61.91015625 107.703125 C66.94054684 111.41984671 70.79810035 112.50835243 77 112 C84.01029528 109.9249526 89.04168084 105.00389349 93 99 C94.20088547 95.88773734 95.13481977 92.84304544 95.91796875 89.6015625 C97.29154116 86.29903823 98.89127108 85.61634071 102 84 C103.14352916 81.71294169 103.10334439 80.40735238 103.0625 77.875 C103.041875 76.59625 103.02125 75.3175 103 74 C102.34 73.67 101.68 73.34 101 73 C100.01 73.33 99.02 73.66 98 74 C98.0928125 72.2675 98.0928125 72.2675 98.1875 70.5 C98.1875 65.81987848 96.86969869 62.23629929 95 58 C94.57074219 56.98099609 94.57074219 56.98099609 94.1328125 55.94140625 C93.43455217 54.28885679 92.71907471 52.64359933 92 51 C90.80081562 50.93070671 90.80081562 50.93070671 89.0859375 51.875 Z M58 115 C57.01 118.3 56.02 121.6 55 125 C62.07709401 131.23458282 67.16955856 133.58609096 76.80078125 133.35546875 C81.24804855 132.86132794 84.36427209 131.54234274 88 129 C88.86625 128.46375 89.7325 127.9275 90.625 127.375 C92.70349908 123.78486523 91.54720075 120.94571464 90.578125 117.046875 C90.38734375 116.37140625 90.1965625 115.6959375 90 115 C89.278125 115.28875 88.55625 115.5775 87.8125 115.875 C86.884375 116.24625 85.95625 116.6175 85 117 C84.23429688 117.34546875 83.46859375 117.6909375 82.6796875 118.046875 C74.04102272 121.11951962 65.95673897 118.74434775 58 115 Z " fill="#000000" transform="translate(543,604)"/>
<path d="M0 0 C48.51 0 97.02 0 147 0 C147 51.81 147 103.62 147 157 C98.49 157 49.98 157 0 157 C0 105.19 0 53.38 0 0 Z M10 10 C10 54.22 10 98.44 10 144 C11.59265894 141.87645475 13.17657106 139.74495291 14.6875 137.5625 C20.95252648 130.62017336 30.14970727 127.6968065 38.66210938 124.39453125 C43.94803134 122.29139368 43.94803134 122.29139368 48.078125 118.5234375 C49.77678236 113.87372286 51.02817312 108.80410851 49.26953125 104.0078125 C48.2693333 102.28333328 47.13474611 100.63907772 46 99 C45.525625 97.989375 45.05125 96.97875 44.5625 95.9375 C43.05135834 92.8411019 43.05135834 92.8411019 40.4375 90 C36.61435326 85.29458862 35.59805764 80.89819635 35.734375 74.95703125 C36.14419387 71.93763042 37.48408419 69.6073752 39 67 C40.11367178 63.65898466 39.8661086 61.8979505 39.4375 58.4375 C38.63079445 49.38931608 39.81382609 42.45707375 45.24609375 35.03515625 C51.62628896 27.63185624 60.01617349 23.55882535 69.72265625 22.65234375 C85.6760402 22.28504862 85.6760402 22.28504862 91.6640625 27.4296875 C92.66487545 28.4612947 93.64391252 29.51457035 94.59765625 30.58984375 C96.11414488 32.26466474 96.11414488 32.26466474 99.125 33.5625 C103.59871955 35.79935977 105.41481351 38.53703376 107.25 43.125 C108.50243471 49.59591264 108.40247573 55.94608901 107.3125 62.4375 C106.65620079 65.93437649 106.65620079 65.93437649 108.375 68.3125 C108.91125 68.869375 109.4475 69.42625 110 70 C111.97850289 75.93550866 111.38957265 81.38323154 109.046875 87.07421875 C107.58063331 89.77144693 105.62333572 91.82932238 103.5625 94.0859375 C99.80680544 98.68666333 97.29708281 103.80901427 96.5 109.6875 C97.12359127 113.81879216 97.75200551 116.42965581 100 120 C104.12097726 122.85554586 108.8273074 124.5264126 113.453125 126.39453125 C131.04826648 133.61158604 131.04826648 133.61158604 135.0625 141.4375 C135.371875 142.283125 135.68125 143.12875 136 144 C136.33 144 136.66 144 137 144 C137 99.78 137 55.56 137 10 C95.09 10 53.18 10 10 10 Z M88.83203125 51.875 C80.21351362 55.08603891 72.72915304 55.31149081 63.60473633 54.76367188 C57.87705123 54.50465901 57.87705123 54.50465901 52.92578125 57.22265625 C51.13101227 59.81105533 50.22122182 61.43783844 49.6875 64.5 C49.54957031 65.27214844 49.41164063 66.04429687 49.26953125 66.83984375 C48.96889737 69.24927179 48.84355244 71.57506279 49 74 C47.35 73.67 45.7 73.34 44 73 C42.38851123 77.02872193 43.43381189 80.08452971 45 84 C45.81082031 84.45632813 46.62164063 84.91265625 47.45703125 85.3828125 C50.62365302 87.39660883 51.00869517 88.76877493 52.0625 92.3125 C54.91670971 100.92043406 59.50709391 106.97890165 67.5 111.375 C73.33176899 112.83294225 77.83831635 112.26736282 83.01953125 109.37109375 C90.27354266 104.34908585 93.13053616 98.00537393 95.76171875 89.7578125 C97 87 97 87 99.06640625 85.72265625 C99.70449219 85.48417969 100.34257813 85.24570312 101 85 C103.54251421 81.56760581 103.15913541 78.13752054 103 74 C100 72.66666667 100 72.66666667 97 74 C97.05800781 73.42894531 97.11601563 72.85789062 97.17578125 72.26953125 C97.61641399 64.35073143 95.15064604 58.17897204 92 51 C90.76490556 50.93762172 90.76490556 50.93762172 88.83203125 51.875 Z M58 115 C55.5686099 119.95475792 55.5686099 119.95475792 55.5 125.25 C59.52279195 129.94325728 63.8867362 132.65718222 70.05078125 133.3359375 C78.57684583 133.43804606 84.10983136 132.50115178 90.5 126.75 C90.995 126.1725 91.49 125.595 92 125 C91.01 121.7 90.02 118.4 89 115 C87.576875 115.66 86.15375 116.32 84.6875 117 C76.8656283 120.08903255 70.1343717 120.08903255 62.3125 117 C60.86636581 116.35227582 59.42522625 115.69251774 58 115 Z " fill="#000000" transform="translate(702,604)"/>
</svg>
