<?xml version="1.0" encoding="UTF-8"?>
<svg version="1.1" xmlns="http://www.w3.org/2000/svg" width="2048" height="2048">
<path d="M0 0 C1.71112445 1.19963121 3.44176075 2.36356312 5.18261719 3.51953125 C25.73660653 17.25181178 25.73660653 17.25181178 28.72167969 26.20703125 C29.53563138 32.02097192 28.06705351 35.16272245 24.76074219 39.73828125 C18.42481783 47.40936208 10.90611169 56.0310274 1.34667969 59.39453125 C-5.90604797 59.01939016 -10.89145987 53.54482994 -16.21582031 49.01953125 C-28.18867419 39.08674466 -42.22629202 31.74792024 -56.27832031 25.20703125 C-57.41398437 24.67464844 -58.54964844 24.14226562 -59.71972656 23.59375 C-107.01075407 2.38676547 -164.69538287 1.52689636 -213.27832031 19.20703125 C-235.59366 27.90951673 -258.19149224 39.84480102 -276.34472656 55.5625 C-279.36669266 58.13269743 -281.87943796 58.8091654 -285.88769531 58.72265625 C-296.11003293 56.51783833 -305.43407357 44.59546886 -312.27832031 37.20703125 C-314.02097224 33.7217274 -313.71254186 30.01781143 -313.27832031 26.20703125 C-301.29492458 0.06144057 -254.64470546 -17.7793718 -230.02490234 -27.01318359 C-156.13009801 -53.39202899 -65.0160403 -45.99674945 0 0 Z " fill="#000000" transform="translate(1166.2783203125,152.79296875)"/>
<path d="M0 0 C0.56444824 0.39171387 1.12889648 0.78342773 1.71044922 1.18701172 C6.36858109 4.55975289 10.38726089 8.25448598 12.375 13.75 C12.26668794 19.05729092 9.1910602 23.15391239 5.5 26.76953125 C4.44712462 27.73198984 3.38419733 28.68354477 2.3125 29.625 C1.7457959 30.1312793 1.1790918 30.63755859 0.59521484 31.15917969 C-0.5784451 32.20221581 -1.75636763 33.24047501 -2.93847656 34.27392578 C-4.63295969 35.76452219 -6.29783838 37.28316172 -7.9609375 38.80859375 C-8.99341819 39.72810703 -10.02721445 40.64614587 -11.0625 41.5625 C-11.97773437 42.38234375 -12.89296875 43.2021875 -13.8359375 44.046875 C-17.46814565 46.29585867 -19.48215171 46.43761934 -23.6875 45.8125 C-26.3203125 44.125 -26.3203125 44.125 -28.8125 41.8125 C-51.26744824 22.3250313 -79.5401848 15.92684543 -108.6875 17.8125 C-128.92534209 20.31635707 -147.36821029 28.90505573 -163.6875 40.8125 C-172.04395876 46.90358853 -172.04395876 46.90358853 -175.6875 46.8125 C-181.15210227 44.08351075 -185.25654902 40.72822157 -189.625 36.5 C-190.8480613 35.33759709 -192.07201402 34.17613137 -193.296875 33.015625 C-193.87888672 32.46197266 -194.46089844 31.90832031 -195.06054688 31.33789062 C-197.67204173 28.88941825 -200.39077345 26.57273483 -203.13671875 24.27734375 C-205.88763655 21.67886976 -207.54919476 19.721363 -208.125 15.9375 C-207.12427295 8.78944968 -202.14816977 5.12113276 -196.68359375 0.94140625 C-138.26904996 -40.56566855 -58.55563081 -40.93465158 0 0 Z " fill="#000000" transform="translate(1121.6875,229.1875)"/>
<path d="M0 0 C5.75671 4.45275723 10.37499892 10.7925053 12.328125 17.80078125 C13.54681966 27.74930912 12.21858466 35.58878749 6.328125 43.80078125 C3.23207896 47.12879405 0.03461401 50.16090779 -3.671875 52.80078125 C-4.331875 52.80078125 -4.991875 52.80078125 -5.671875 52.80078125 C-5.671875 81.51078125 -5.671875 110.22078125 -5.671875 139.80078125 C-1.051875 140.46078125 3.568125 141.12078125 8.328125 141.80078125 C52.96810929 148.25885664 94.04043332 159.88002481 133.328125 182.80078125 C134.36453125 183.40148437 135.4009375 184.0021875 136.46875 184.62109375 C154.21818812 195.45587346 170.87794229 208.91762578 185.35546875 223.828125 C187.27124817 225.74390442 189.25788113 227.49214601 191.328125 229.23828125 C196.1163044 233.35059437 200.18724416 238.05116838 204.328125 242.80078125 C204.92496094 243.47109375 205.52179687 244.14140625 206.13671875 244.83203125 C207.88732973 246.80500621 209.61094533 248.79865473 211.328125 250.80078125 C211.98039062 251.55101562 212.63265625 252.30125 213.3046875 253.07421875 C220.69649667 261.80999322 226.99543748 271.28425635 233.328125 280.80078125 C233.988125 281.79078125 234.648125 282.78078125 235.328125 283.80078125 C237.0437775 286.44024663 238.69423845 289.10988477 240.328125 291.80078125 C240.70582031 292.41163574 241.08351563 293.02249023 241.47265625 293.65185547 C272.96258111 344.84735637 289.60265159 405.19759405 294.328125 464.80078125 C294.42116409 465.91555344 294.51420319 467.03032562 294.61006165 468.17887878 C295.58181463 482.14156193 295.30953441 496.0962944 295.12856048 510.0801416 C295.05418294 515.86898606 294.99916921 521.65777377 294.95571899 527.44692993 C294.94613098 528.71837799 294.94613098 528.71837799 294.93634927 530.01551187 C294.91041004 533.49827511 294.88504953 536.98104244 294.85979152 540.46381068 C294.78755716 550.29072335 294.69671614 560.11671855 294.55322266 569.94287109 C294.43863781 577.79881384 294.36347131 585.65403863 294.33382189 593.51077616 C294.31672125 597.65235074 294.28031402 601.79162492 294.19565964 605.93241501 C294.11653375 609.82229095 294.09003717 613.70912272 294.10223389 617.59975052 C294.09765167 619.01719612 294.07451248 620.43473743 294.03032303 621.85150146 C293.81347765 629.15118205 294.35827908 634.37608817 299.18782294 639.9311434 C301.47802781 642.33032182 303.87746846 644.56486554 306.328125 646.80078125 C307.44867013 647.99526042 308.55653612 649.20202583 309.640625 650.4296875 C314.37559916 655.59824214 319.15330339 660.68706402 324.140625 665.61328125 C327.09259697 668.53170809 329.95711219 671.44673613 332.640625 674.61328125 C335.99703498 678.55482808 339.65152369 682.16190091 343.328125 685.80078125 C347.51041965 689.94459185 351.60166938 694.08487018 355.3984375 698.58984375 C357.10478732 700.54489233 358.85237705 702.43701649 360.6328125 704.32421875 C361.52697876 705.27361328 361.52697876 705.27361328 362.43920898 706.2421875 C363.64312095 707.51674742 364.85088745 708.78767906 366.06274414 710.0546875 C370.328125 714.58044954 370.328125 714.58044954 370.328125 716.80078125 C370.988125 716.80078125 371.648125 716.80078125 372.328125 716.80078125 C373.80859375 718.26953125 373.80859375 718.26953125 375.515625 720.30078125 C378.62735161 723.97471057 381.80965255 727.56941165 385.04296875 731.13671875 C386.328125 732.80078125 386.328125 732.80078125 386.328125 734.80078125 C386.988125 734.80078125 387.648125 734.80078125 388.328125 734.80078125 C390.203125 736.84765625 390.203125 736.84765625 392.328125 739.55078125 C393.029375 740.4325 393.730625 741.31421875 394.453125 742.22265625 C396.02120183 744.37876189 397.24138984 746.37826746 398.328125 748.80078125 C398.988125 748.80078125 399.648125 748.80078125 400.328125 748.80078125 C401.68194649 750.2881636 402.95952386 751.84508676 404.203125 753.42578125 C407.80037668 757.92956345 411.48508549 762.32525643 415.265625 766.67578125 C420.38355729 772.60324811 425.19399759 778.712272 429.92089844 784.95507812 C432.69434462 788.59270012 435.51560713 792.1933477 438.328125 795.80078125 C439.53534699 797.35271623 440.74238137 798.90479717 441.94921875 800.45703125 C443.5376825 802.49991178 445.12643735 804.54253045 446.71923828 806.58203125 C453.59648865 815.38829874 460.14921389 824.40420644 466.65917969 833.48339844 C468.28070567 835.73493803 469.91506663 837.97645689 471.5546875 840.21484375 C493.03783034 869.59269002 511.98003745 900.68448273 529.91748047 932.32470703 C531.16856137 934.52070263 532.43367779 936.70750044 533.70703125 938.890625 C539.7152103 949.25825168 544.83547541 959.99690127 549.92529297 970.83935547 C551.27746432 973.69383485 552.65776047 976.53245295 554.05078125 979.3671875 C559.2375913 989.95638031 564.06651799 1000.65880956 568.578125 1011.55078125 C569.28473267 1013.25258545 569.28473267 1013.25258545 570.00561523 1014.98876953 C576.52135783 1030.9050353 582.24530896 1047.04123654 587.265625 1063.48828125 C587.52103058 1064.32161987 587.77643616 1065.1549585 588.0395813 1066.0135498 C597.65942094 1097.49937487 606.27583372 1129.8241918 608.328125 1162.80078125 C608.39515625 1163.86941406 608.4621875 1164.93804688 608.53125 1166.0390625 C611.57786293 1218.24160323 611.57786293 1218.24160323 595.29296875 1238.30859375 C588.39782128 1245.67801062 580.03645916 1250.79475645 569.7824707 1251.14453125 C541.64801067 1251.54338061 520.56248552 1232.35813336 501.47802734 1213.89208984 C500.41382568 1212.85689209 500.41382568 1212.85689209 499.328125 1211.80078125 C498.15757568 1210.66310303 498.15757568 1210.66310303 496.96337891 1209.50244141 C494.57631968 1207.17298264 492.19984046 1204.83335381 489.828125 1202.48828125 C488.70506958 1201.38492432 488.70506958 1201.38492432 487.55932617 1200.25927734 C486.87459229 1199.57559082 486.1898584 1198.8919043 485.484375 1198.1875 C484.87400391 1197.58123779 484.26363281 1196.97497559 483.63476562 1196.3503418 C482.328125 1194.80078125 482.328125 1194.80078125 482.328125 1192.80078125 C481.668125 1192.80078125 481.008125 1192.80078125 480.328125 1192.80078125 C478.77734375 1191.2265625 478.77734375 1191.2265625 477.015625 1189.11328125 C474.89167816 1186.60275831 472.77311156 1184.19254704 470.390625 1181.92578125 C468.328125 1179.80078125 468.328125 1179.80078125 468.328125 1177.80078125 C467.668125 1177.80078125 467.008125 1177.80078125 466.328125 1177.80078125 C464.83984375 1176.140625 464.83984375 1176.140625 463.015625 1173.73828125 C459.44235292 1169.15149927 455.71881777 1164.7391506 451.890625 1160.36328125 C447.34569971 1155.15476824 442.89137262 1149.89115563 438.5390625 1144.51953125 C435.9724091 1141.36336381 433.3725695 1138.23617872 430.765625 1135.11328125 C430.32323486 1134.58323486 429.88084473 1134.05318848 429.42504883 1133.50708008 C428.39314833 1132.27130679 427.36069999 1131.035991 426.328125 1129.80078125 C424.91620187 1130.98250831 424.91620187 1130.98250831 425.24633789 1134.34130859 C425.25995793 1135.93982364 425.27850605 1137.53830089 425.30078125 1139.13671875 C425.31537266 1140.90779143 425.32934461 1142.6788693 425.34277344 1144.44995117 C425.35111206 1145.38422943 425.35945068 1146.31850769 425.36804199 1147.28109741 C425.50542623 1164.89097148 425.23363191 1182.27581352 423.328125 1199.80078125 C423.13476562 1201.60119873 423.13476562 1201.60119873 422.9375 1203.43798828 C418.8594976 1240.21080853 411.30961735 1276.09384673 398.328125 1310.80078125 C397.78164307 1312.27466309 397.78164307 1312.27466309 397.22412109 1313.77832031 C385.2444247 1345.78262329 369.32389032 1376.64828133 348.70898438 1403.95703125 C346.823895 1406.47403884 345.01824801 1409.04554627 343.203125 1411.61328125 C338.96741302 1417.42735327 334.33696233 1422.88512451 329.62158203 1428.31201172 C328.50601816 1429.59602615 327.39869785 1430.88719418 326.29296875 1432.1796875 C314.22717996 1445.97258721 301.17411493 1459.02351287 286.328125 1469.80078125 C289.23680397 1471.73990056 291.02534274 1472.36550893 294.359375 1473.17578125 C295.38401855 1473.43343262 296.40866211 1473.69108398 297.46435547 1473.95654297 C298.57439941 1474.2351416 299.68444336 1474.51374023 300.828125 1474.80078125 C322.08164452 1480.34220637 342.57173593 1488.21911788 362.328125 1497.80078125 C362.94816406 1498.10048828 363.56820312 1498.40019531 364.20703125 1498.70898438 C386.41694442 1509.61519453 408.53865256 1526.66732554 418.328125 1549.80078125 C421.33293112 1558.74449828 420.06546892 1569.6763862 416.05859375 1578.015625 C410.4970686 1586.96679302 402.36116405 1593.52649287 392.328125 1596.80078125 C383.90762098 1598.45220256 375.6980298 1599.09107624 367.13302612 1599.05474854 C365.97811806 1599.05786852 364.82320999 1599.0609885 363.63330472 1599.06420302 C359.80219523 1599.07211634 355.9712471 1599.06588554 352.14013672 1599.05957031 C349.3777738 1599.06118389 346.61541753 1599.06577391 343.85305786 1599.07019043 C337.15280038 1599.07904538 330.45258792 1599.07718006 323.75232874 1599.07136515 C318.30412165 1599.06683399 312.8559271 1599.06624202 307.40771866 1599.06841278 C306.63000411 1599.06871925 305.85228956 1599.06902571 305.0510079 1599.06934147 C303.47073689 1599.06998096 301.89046587 1599.07062939 300.31019486 1599.07128665 C285.52134242 1599.07697832 270.73251484 1599.07044995 255.94366647 1599.05968592 C243.27151391 1599.05074793 230.599398 1599.05230674 217.92724609 1599.06152344 C203.18538375 1599.07224056 188.44354314 1599.07643281 173.70167744 1599.07029891 C172.1280849 1599.06966186 170.55449236 1599.06903311 168.98089981 1599.06841278 C168.20680339 1599.06810423 167.43270697 1599.06779568 166.63515308 1599.06747778 C161.1964492 1599.06575543 155.75775919 1599.06865592 150.31905746 1599.07337189 C143.6870499 1599.07899661 137.05508965 1599.07743077 130.42308746 1599.0668104 C127.04344494 1599.06157556 123.66394595 1599.06054683 120.28429413 1599.0661087 C116.61253703 1599.07159324 112.94099977 1599.06469461 109.26925659 1599.05474854 C108.21291798 1599.05920998 107.15657938 1599.06367142 106.06823051 1599.06826806 C89.46463549 1598.98134195 76.72301034 1594.46544737 64.4375 1583.04296875 C57.80847986 1575.84479031 55.14306301 1567.42400496 55.328125 1557.80078125 C54.36495361 1557.96682861 54.36495361 1557.96682861 53.38232422 1558.13623047 C4.08879757 1566.54878226 -45.51635997 1566.5448625 -95.05566406 1560.13232422 C-98.92297029 1559.64223446 -102.79633426 1559.22029855 -106.671875 1558.80078125 C-106.75824219 1559.63480469 -106.84460938 1560.46882813 -106.93359375 1561.328125 C-108.21401424 1571.58323589 -110.80674272 1578.85019923 -118.671875 1585.80078125 C-119.21199219 1586.35507813 -119.75210938 1586.909375 -120.30859375 1587.48046875 C-131.15988727 1598.0815228 -145.06669545 1598.95503345 -159.41755676 1598.93449402 C-160.58452691 1598.93675958 -161.75149706 1598.93902513 -162.95382994 1598.94135934 C-166.17537928 1598.94657671 -169.39689332 1598.94734728 -172.61844552 1598.94616497 C-176.09980612 1598.9459602 -179.58115852 1598.95148689 -183.06251526 1598.95622253 C-189.87640961 1598.96451312 -196.69029532 1598.96727665 -203.5041943 1598.96783491 C-209.04500516 1598.9683108 -214.58581319 1598.97036918 -220.12662315 1598.97353554 C-235.85017024 1598.98233753 -251.57371051 1598.98695559 -267.29726008 1598.98620506 C-268.14412763 1598.98616511 -268.99099519 1598.98612515 -269.86352539 1598.98608398 C-270.71143179 1598.9860431 -271.55933819 1598.98600222 -272.43293872 1598.9859601 C-286.17284592 1598.98555369 -299.91272572 1598.99512313 -313.652625 1599.00922235 C-327.77469831 1599.02359894 -341.89675825 1599.03049184 -356.01883906 1599.02962857 C-363.941682 1599.02929706 -371.8644962 1599.03202408 -379.78733253 1599.04280663 C-386.53290968 1599.05192848 -393.27844506 1599.05407304 -400.02402572 1599.0472972 C-403.46235073 1599.04404058 -406.90059566 1599.04394417 -410.33891296 1599.05265045 C-414.07442718 1599.06038273 -417.8097325 1599.05571716 -421.54524231 1599.04801941 C-422.62055531 1599.05316297 -423.69586831 1599.05830654 -424.80376655 1599.06360596 C-439.41347433 1598.99729547 -449.63122056 1596.28530851 -460.40234375 1586.2421875 C-463.63524539 1582.76445337 -465.74671018 1579.1155147 -467.671875 1574.80078125 C-468.084375 1573.91390625 -468.496875 1573.02703125 -468.921875 1572.11328125 C-472.3253803 1561.61913992 -470.84468992 1551.85458094 -466.671875 1541.80078125 C-464.60193296 1538.22988597 -462.24820096 1535.01971483 -459.671875 1531.80078125 C-458.929375 1530.79015625 -458.186875 1529.77953125 -457.421875 1528.73828125 C-439.40037409 1507.98448827 -408.83263164 1494.29768613 -383.671875 1484.80078125 C-382.70926758 1484.43645996 -381.74666016 1484.07213867 -380.75488281 1483.69677734 C-366.88857162 1478.49418621 -352.91410888 1473.85862442 -338.671875 1469.80078125 C-338.671875 1469.14078125 -338.671875 1468.48078125 -338.671875 1467.80078125 C-339.36667969 1467.57648438 -340.06148437 1467.3521875 -340.77734375 1467.12109375 C-344.34350754 1465.49442255 -347.06306631 1463.23406731 -349.984375 1460.67578125 C-350.5832251 1460.15661133 -351.1820752 1459.63744141 -351.79907227 1459.10253906 C-362.11103093 1450.02663467 -371.70267604 1440.19614021 -380.671875 1429.80078125 C-381.62102212 1428.72925036 -382.57146543 1427.65886568 -383.5234375 1426.58984375 C-400.7564589 1407.03634239 -415.52978519 1384.84840449 -427.671875 1361.80078125 C-428.12385254 1360.94597168 -428.57583008 1360.09116211 -429.04150391 1359.21044922 C-455.81950943 1308.14895021 -469.96589134 1253.10392615 -474.671875 1195.80078125 C-474.75602158 1194.85733353 -474.84016815 1193.9138858 -474.92686462 1192.94184875 C-475.58364314 1185.18289874 -475.80559409 1177.50308008 -475.76953125 1169.71875 C-475.76740883 1167.94846184 -475.76740883 1167.94846184 -475.76524353 1166.14241028 C-475.75970823 1162.42433994 -475.7471684 1158.70633296 -475.734375 1154.98828125 C-475.72935162 1152.44596442 -475.72479019 1149.90364663 -475.72070312 1147.36132812 C-475.70976011 1141.17445806 -475.69308802 1134.98762418 -475.671875 1128.80078125 C-479.61555566 1132.69713851 -479.61555566 1132.69713851 -483.3203125 1136.81640625 C-483.76455566 1137.34065186 -484.20879883 1137.86489746 -484.66650391 1138.4050293 C-485.12202637 1138.94812744 -485.57754883 1139.49122559 -486.046875 1140.05078125 C-486.52946777 1140.6228833 -487.01206055 1141.19498535 -487.50927734 1141.78442383 C-490.17930924 1144.96586197 -492.77714574 1148.18555201 -495.296875 1151.48828125 C-498.43610037 1155.59169728 -501.86170778 1159.37774096 -505.34375 1163.19140625 C-507.74083091 1165.8780674 -510.02707787 1168.63099703 -512.296875 1171.42578125 C-515.04058493 1174.80376388 -517.78724015 1178.17534034 -520.609375 1181.48828125 C-521.15464844 1182.13152344 -521.69992187 1182.77476563 -522.26171875 1183.4375 C-523.671875 1184.80078125 -523.671875 1184.80078125 -525.671875 1184.80078125 C-526.08240112 1185.69349731 -526.08240112 1185.69349731 -526.5012207 1186.60424805 C-527.63142149 1188.72487714 -528.76569385 1190.20165615 -530.40234375 1191.9453125 C-530.95067871 1192.53248047 -531.49901367 1193.11964844 -532.06396484 1193.72460938 C-532.95269287 1194.65950195 -532.95269287 1194.65950195 -533.859375 1195.61328125 C-534.47506348 1196.26619141 -535.09075195 1196.91910156 -535.72509766 1197.59179688 C-544.98997589 1207.36398739 -554.33131299 1217.15639838 -564.671875 1225.80078125 C-565.48914063 1226.54199219 -566.30640625 1227.28320312 -567.1484375 1228.046875 C-582.2040815 1241.33980586 -600.24355734 1252.11659727 -620.8671875 1251.18359375 C-631.90785241 1250.07272603 -640.33896359 1245.06797026 -647.359375 1236.61328125 C-658.459991 1221.44159652 -659.90667002 1202.83683944 -659.921875 1184.61328125 C-659.92254974 1183.88591766 -659.92322449 1183.15855408 -659.92391968 1182.40914917 C-659.85521248 1135.37040454 -647.37664681 1089.91934696 -632.05712891 1045.80224609 C-630.7960563 1042.16972728 -629.56416848 1038.52790019 -628.33984375 1034.8828125 C-627.65959367 1032.87605126 -626.97866421 1030.8695201 -626.296875 1028.86328125 C-625.86942993 1027.58855957 -625.86942993 1027.58855957 -625.43334961 1026.28808594 C-623.39881919 1020.40078444 -620.89526886 1014.80770212 -618.24658203 1009.17211914 C-616.70044855 1005.86195523 -615.2116992 1002.5323062 -613.7421875 999.1875 C-608.70868415 987.73322096 -603.68169607 976.31551311 -597.91699219 965.20849609 C-596.3666806 962.21061907 -594.83671284 959.20257477 -593.3046875 956.1953125 C-583.28332951 936.57213361 -572.70892481 917.34429731 -561.296875 898.48828125 C-560.73798584 897.56354004 -560.17909668 896.63879883 -559.60327148 895.68603516 C-556.34380146 890.35517605 -552.91175227 885.19458413 -549.296875 880.09838867 C-547.08916225 876.97687655 -544.96955531 873.80115279 -542.859375 870.61328125 C-542.43760986 869.97946533 -542.01584473 869.34564941 -541.58129883 868.69262695 C-539.46649476 865.51355333 -537.36055982 862.32891861 -535.265625 859.13671875 C-528.68876857 849.14542014 -521.73215669 839.45494435 -514.671875 829.80078125 C-513.6861738 828.44923634 -512.7004958 827.09767451 -511.71484375 825.74609375 C-506.09508168 818.05170123 -500.4242421 810.39672659 -494.671875 802.80078125 C-493.90488281 801.78757812 -493.13789062 800.774375 -492.34765625 799.73046875 C-487.20730991 792.99255906 -481.93144267 786.38059866 -476.56396484 779.82226562 C-473.45807527 776.02181773 -470.40444958 772.1894744 -467.40356445 768.30566406 C-463.05036185 762.67478044 -458.52493957 757.32770725 -453.66015625 752.13232422 C-449.85549535 748.05648584 -446.34668461 743.79013553 -442.8515625 739.44921875 C-439.98650305 735.96801748 -436.95352124 732.65680559 -433.9140625 729.328125 C-431.61629426 726.73813187 -429.45489919 724.07041124 -427.296875 721.36328125 C-423.24470019 716.34765229 -418.81772476 711.8498407 -414.22265625 707.34375 C-411.53971809 704.66902911 -409.0607356 701.89019731 -406.59765625 699.015625 C-399.43986569 690.78343992 -391.8843429 682.95573878 -384.12890625 675.2890625 C-381.42247786 672.54821213 -378.91248216 669.6904882 -376.4140625 666.76171875 C-373.70143256 663.70848954 -370.76587047 660.88674975 -367.859375 658.01953125 C-365.27627825 655.39953311 -362.89483589 652.64564655 -360.50390625 649.8515625 C-357.67483274 646.68468917 -354.63319938 643.74079549 -351.58984375 640.78125 C-348.02660572 637.10189831 -347.42058414 634.9254813 -347.40686035 629.92280579 C-347.39858719 628.69438965 -347.39031403 627.46597351 -347.38179016 626.20033264 C-347.38261491 624.8357848 -347.3836126 623.47123706 -347.38476562 622.10668945 C-347.37874069 620.67049776 -347.37181626 619.2343096 -347.36405945 617.79812622 C-347.34914539 614.69777196 -347.34041416 611.59748238 -347.33634949 608.49709511 C-347.3296103 603.56067697 -347.30781124 598.62439428 -347.28381348 593.68803406 C-347.23478844 583.16314847 -347.20269614 572.63823333 -347.171875 562.11328125 C-347.13865077 550.84666989 -347.10191883 539.5801112 -347.04774427 528.31357831 C-347.02855246 524.22805472 -347.01311195 520.14259802 -347.00740051 516.05703163 C-346.98382529 499.81440426 -346.77474035 483.62587825 -345.76367188 467.41088867 C-345.68494591 466.13904126 -345.60621994 464.86719385 -345.52510834 463.55680561 C-344.65778263 450.85014432 -342.82296393 438.34570935 -340.671875 425.80078125 C-340.39537109 424.12508057 -340.39537109 424.12508057 -340.11328125 422.41552734 C-333.4410219 382.18065308 -319.81319473 343.80741303 -300.671875 307.80078125 C-300.33510742 307.16446777 -299.99833984 306.5281543 -299.65136719 305.87255859 C-285.83849702 280.00073155 -268.18374284 254.74226892 -247.08764648 234.29003906 C-245.56825762 232.83699331 -245.56825762 232.83699331 -244.671875 230.80078125 C-244.011875 230.80078125 -243.351875 230.80078125 -242.671875 230.80078125 C-242.671875 230.14078125 -242.671875 229.48078125 -242.671875 228.80078125 C-241.23828125 227.390625 -241.23828125 227.390625 -239.234375 225.73828125 C-236.16487734 223.14018986 -233.32664576 220.45571992 -230.546875 217.55078125 C-215.11736213 201.98961725 -195.54748094 189.70867229 -176.671875 178.80078125 C-175.94871094 178.38086914 -175.22554687 177.96095703 -174.48046875 177.52832031 C-139.01007743 157.20740293 -97.30637621 144.80058812 -56.59375 141.71875 C-55.44310059 141.62928101 -54.29245117 141.53981201 -53.10693359 141.44763184 C-50.29543857 141.22939793 -47.48376611 141.01384022 -44.671875 140.80078125 C-44.66357783 129.39584574 -44.6873358 117.99147244 -44.7521534 106.58670425 C-44.78124026 101.29108161 -44.79923456 95.99590278 -44.79199219 90.70019531 C-44.78541048 85.59054597 -44.80781794 80.4817745 -44.85042953 75.37230682 C-44.86158144 73.42188389 -44.86224219 71.47137215 -44.85229874 69.52094269 C-44.84016219 66.79065417 -44.86513864 64.06306015 -44.89892578 61.33300781 C-44.88670486 60.52452393 -44.87448395 59.71604004 -44.8618927 58.88305664 C-44.8534371 56.34295892 -44.8534371 56.34295892 -45.671875 52.80078125 C-48.47029159 50.31484634 -48.47029159 50.31484634 -51.671875 48.80078125 C-58.75754129 42.2068249 -63.72817975 35.22163511 -64.171875 25.36328125 C-63.71203686 15.06003294 -59.12432933 7.70626646 -51.671875 0.80078125 C-37.00978209 -11.22273461 -15.34666125 -9.72437812 0 0 Z M46.328125 319.80078125 C19.83152491 349.86500223 13.92157774 389.89990961 14.01245117 428.59179688 C14.01569394 431.48733535 13.991724 434.38192463 13.96679688 437.27734375 C13.96453075 439.13150915 13.96381717 440.98567725 13.96484375 442.83984375 C13.95102913 444.12865952 13.95102913 444.12865952 13.93693542 445.44351196 C13.80829581 449.76354191 13.80829581 449.76354191 15.71203613 453.44952393 C17.76364179 455.16492908 19.91419462 456.60595659 22.16015625 458.05859375 C23.11599609 458.67935791 24.07183594 459.30012207 25.05664062 459.93969727 C26.07435547 460.59510498 27.09207031 461.2505127 28.140625 461.92578125 C29.18798828 462.60374756 30.23535156 463.28171387 31.31445312 463.98022461 C33.39432055 465.32580365 35.4751882 466.6698381 37.55712891 468.01220703 C39.75987692 469.43399839 41.95825873 470.86178497 44.15234375 472.296875 C52.28679698 477.58977261 60.57427416 482.6153524 68.87231445 487.64648438 C75.79334236 491.84896296 82.64376698 496.13150632 89.42138672 500.5625 C91.69621694 502.03982892 93.98284375 503.49812549 96.26953125 504.95703125 C127.87915908 525.1885956 127.87915908 525.1885956 131.078125 539.05078125 C131.5586569 546.25875979 129.98841241 552.18453745 125.328125 557.80078125 C118.91671884 564.83121973 111.24057937 568.64451674 102.78466797 572.62451172 C99.11191869 574.38313883 95.48866484 576.2369176 91.85742188 578.0793457 C81.75858628 583.19306137 71.56920254 588.05258711 61.25976562 592.72583008 C54.40760062 595.83441406 47.60651775 599.03466515 40.828125 602.30078125 C25.21322781 609.80807192 9.49001747 617.0683083 -6.421875 623.92578125 C-7.29730957 624.30428223 -8.17274414 624.6827832 -9.07470703 625.07275391 C-9.88536621 625.41870605 -10.69602539 625.7646582 -11.53125 626.12109375 C-12.23733398 626.42289551 -12.94341797 626.72469727 -13.67089844 627.03564453 C-22.51362189 630.41693971 -31.17754857 629.36891286 -39.921875 626.30078125 C-40.5511792 626.08220459 -41.1804834 625.86362793 -41.82885742 625.63842773 C-47.51229813 623.50705003 -52.8742979 620.73130176 -58.28135681 617.99205017 C-65.06775479 614.56704078 -71.96347218 611.41400484 -78.89724731 608.30081177 C-82.49751667 606.68358326 -86.09235142 605.05435414 -89.6875 603.42578125 C-90.38706314 603.10907974 -91.08662628 602.79237823 -91.80738831 602.46607971 C-104.82342774 596.56671675 -117.67873914 590.36445336 -130.43603516 583.92675781 C-133.89166967 582.1864885 -137.35305111 580.45776663 -140.81469727 578.72949219 C-142.71375561 577.77988188 -144.61139234 576.82742305 -146.50756836 575.87207031 C-150.76269446 573.73132257 -155.02062147 571.62025615 -159.3515625 569.63671875 C-168.13109355 565.57068225 -175.97269918 561.35078125 -179.84375 551.95703125 C-181.61502803 545.20612255 -182.08367023 536.9193423 -179.171875 530.42578125 C-173.76043443 521.59461087 -165.26465587 516.18492834 -156.671875 510.80078125 C-156.07874512 510.42727539 -155.48561523 510.05376953 -154.87451172 509.66894531 C-151.59846505 507.60628106 -148.31534099 505.55527343 -145.02734375 503.51171875 C-133.12735117 496.11273138 -121.28681817 488.64163811 -109.671875 480.80078125 C-102.33175161 475.87217612 -94.97702144 470.96788297 -87.546875 466.17578125 C-86.97952637 465.80662598 -86.41217773 465.4374707 -85.82763672 465.05712891 C-82.92560623 463.18402273 -80.00344673 461.40705353 -76.9765625 459.7421875 C-76.3798877 459.40461426 -75.78321289 459.06704102 -75.16845703 458.71923828 C-73.52930795 457.79862031 -71.87447693 456.90608302 -70.21875 456.015625 C-66.31882674 452.62412732 -65.86227338 448.29161964 -65.48245239 443.32270813 C-65.39202497 440.53605095 -65.36847653 437.75687056 -65.37109375 434.96875 C-65.36680862 433.93752518 -65.3625235 432.90630035 -65.35810852 431.84382629 C-65.35238545 429.66452769 -65.35184998 427.48520998 -65.35620117 425.3059082 C-65.35932909 422.03627155 -65.33598775 418.76756981 -65.31054688 415.49804688 C-65.25972727 399.00485498 -66.62933993 383.10609148 -71.359375 367.23828125 C-71.73739258 365.94603638 -71.73739258 365.94603638 -72.12304688 364.62768555 C-79.04982991 341.87153418 -91.03707327 318.31550739 -112.68359375 306.5703125 C-125.18184292 300.06406322 -137.1657763 297.66237178 -151.203125 300.51953125 C-154.12991754 301.45489794 -156.87912704 302.52217375 -159.671875 303.80078125 C-160.4453125 304.15140625 -161.21875 304.50203125 -162.015625 304.86328125 C-180.50332343 314.23732553 -193.22438636 332.45831532 -199.671875 351.80078125 C-200.19394531 353.36699219 -200.19394531 353.36699219 -200.7265625 354.96484375 C-210.41749774 386.30122558 -205.81098279 418.83100124 -190.72265625 447.5703125 C-187.11972999 454.20377896 -183.06917995 460.18545011 -178.140625 465.91015625 C-176.671875 467.80078125 -176.671875 467.80078125 -176.671875 469.80078125 C-177.20965576 470.05657959 -177.74743652 470.31237793 -178.30151367 470.57592773 C-209.87957747 485.69957314 -238.1387314 507.73203326 -250.37060547 541.74365234 C-262.05868554 575.59122913 -258.70608813 611.30070726 -243.75170898 643.62817383 C-242.19184592 646.76659152 -240.45377652 649.79442024 -238.67993164 652.81616211 C-236.18502716 657.7280242 -237.66022031 662.19342161 -239.171875 667.17578125 C-245.03138095 683.62747104 -253.80188904 698.56722132 -263.12084961 713.25756836 C-275.95325826 733.50650715 -287.38906448 754.66203528 -298.671875 775.80078125 C-299.0853418 776.56986816 -299.49880859 777.33895508 -299.92480469 778.13134766 C-322.1674681 819.50639333 -342.63001552 862.23751531 -357.671875 906.80078125 C-358.41027656 908.88163995 -359.15791017 910.9590544 -359.90551758 913.03662109 C-363.43117453 922.87791012 -366.67491208 932.78603599 -369.671875 942.80078125 C-370.20554687 944.56736084 -370.20554687 944.56736084 -370.75 946.36962891 C-378.7899677 973.14930535 -384.52337844 1000.33222816 -389.671875 1027.80078125 C-389.807005 1028.52005798 -389.94213501 1029.23933472 -390.08135986 1029.98040771 C-406.25904428 1116.74817582 -398.66474066 1209.95758764 -365.671875 1291.80078125 C-365.3507373 1292.60064453 -365.02959961 1293.40050781 -364.69873047 1294.22460938 C-360.50635177 1304.55223351 -355.29974972 1314.18141744 -349.77197266 1323.85009766 C-348.38821291 1326.3037684 -347.09471593 1328.80081037 -345.796875 1331.30078125 C-337.1914676 1347.14255397 -326.01538802 1361.84932038 -314.671875 1375.80078125 C-313.46724609 1377.32058594 -313.46724609 1377.32058594 -312.23828125 1378.87109375 C-311.43261719 1379.87914062 -310.62695312 1380.8871875 -309.796875 1381.92578125 C-309.05695313 1382.85648438 -308.31703125 1383.7871875 -307.5546875 1384.74609375 C-306.93335938 1385.42414063 -306.31203125 1386.1021875 -305.671875 1386.80078125 C-305.011875 1386.80078125 -304.351875 1386.80078125 -303.671875 1386.80078125 C-303.671875 1387.46078125 -303.671875 1388.12078125 -303.671875 1388.80078125 C-303.011875 1388.80078125 -302.351875 1388.80078125 -301.671875 1388.80078125 C-301.671875 1389.46078125 -301.671875 1390.12078125 -301.671875 1390.80078125 C-301.011875 1390.80078125 -300.351875 1390.80078125 -299.671875 1390.80078125 C-299.445 1391.3525 -299.218125 1391.90421875 -298.984375 1392.47265625 C-297.28461574 1395.48770542 -295.12382684 1397.61308494 -292.671875 1400.05078125 C-291.785 1400.9428125 -290.898125 1401.83484375 -289.984375 1402.75390625 C-287.93698397 1405.02171198 -287.93698397 1405.02171198 -285.671875 1404.80078125 C-285.671875 1405.46078125 -285.671875 1406.12078125 -285.671875 1406.80078125 C-285.011875 1406.80078125 -284.351875 1406.80078125 -283.671875 1406.80078125 C-283.671875 1407.46078125 -283.671875 1408.12078125 -283.671875 1408.80078125 C-282.14350231 1410.19677521 -280.54537401 1411.51665774 -278.921875 1412.80078125 C-277.89964844 1413.61417969 -276.87742187 1414.42757813 -275.82421875 1415.265625 C-275.29296387 1415.68827637 -274.76170898 1416.11092773 -274.21435547 1416.54638672 C-272.81864153 1417.681426 -271.46318694 1418.86553394 -270.11328125 1420.0546875 C-259.79898427 1429.11226479 -248.17113107 1436.35689892 -236.671875 1443.80078125 C-235.99415039 1444.24228516 -235.31642578 1444.68378906 -234.61816406 1445.13867188 C-192.33338305 1472.56014826 -142.9235602 1487.24965271 -93.671875 1495.80078125 C-92.70926758 1495.9694873 -91.74666016 1496.13819336 -90.75488281 1496.31201172 C-69.03883603 1500.04659288 -47.17937588 1501.19110881 -25.171875 1501.11328125 C-24.08958618 1501.11145844 -23.00729736 1501.10963562 -21.89221191 1501.10775757 C-3.65070702 1501.0563556 14.24064956 1500.29267135 32.328125 1497.80078125 C33.57851562 1497.6291748 34.82890625 1497.45756836 36.1171875 1497.28076172 C95.49263641 1488.82338808 153.85970779 1467.4955023 202.328125 1431.80078125 C203.29234375 1431.11242188 204.2565625 1430.4240625 205.25 1429.71484375 C214.74732866 1422.92720491 223.64704622 1415.55268331 232.234375 1407.6484375 C234.328125 1405.80078125 234.328125 1405.80078125 237.328125 1403.80078125 C237.328125 1403.14078125 237.328125 1402.48078125 237.328125 1401.80078125 C237.988125 1401.80078125 238.648125 1401.80078125 239.328125 1401.80078125 C243.15156221 1398.36032565 243.15156221 1398.36032565 245.328125 1393.80078125 C245.988125 1393.80078125 246.648125 1393.80078125 247.328125 1393.80078125 C248.72875227 1392.45482554 248.72875227 1392.45482554 250.203125 1390.61328125 C252.44181865 1387.96501371 254.70986282 1385.37342243 257.10546875 1382.8671875 C263.82047513 1375.82766816 269.67790406 1368.55337066 275.15332031 1360.51513672 C276.29502348 1358.84908526 277.46357342 1357.20153102 278.6328125 1355.5546875 C312.28468822 1307.98793583 330.82378828 1253.88126767 340.328125 1196.80078125 C340.48265137 1195.888125 340.63717773 1194.97546875 340.79638672 1194.03515625 C341.80467501 1187.97408467 342.63196473 1181.90540184 343.328125 1175.80078125 C343.43253906 1174.90262695 343.53695312 1174.00447266 343.64453125 1173.07910156 C347.7709156 1135.19732629 347.08122174 1095.58994906 342.328125 1057.80078125 C342.18890625 1056.63514648 342.0496875 1055.46951172 341.90625 1054.26855469 C336.95602856 1013.486522 327.76944323 972.907873 315.328125 933.80078125 C314.93222168 932.55264648 314.53631836 931.30451172 314.12841797 930.01855469 C308.25631038 911.64186623 301.62181534 893.65774726 294.328125 875.80078125 C293.81873814 874.54438119 293.30962797 873.28786892 292.80078125 872.03125 C285.50974196 854.05855174 277.53870823 836.53313359 268.9609375 819.14013672 C266.94648588 815.02026989 264.99616955 810.87212979 263.04785156 806.72070312 C257.28411323 794.47328237 250.94724071 782.60459375 244.328125 770.80078125 C243.80992187 769.87297852 243.29171875 768.94517578 242.7578125 767.98925781 C236.73205854 757.21043069 230.58479247 746.50957465 224.328125 735.86328125 C218.98286155 726.76126481 213.86674932 717.55577926 208.88208008 708.25170898 C206.19901344 703.24384134 203.47558543 698.27247314 200.63037109 693.35498047 C195.50210503 684.47991291 191.19902197 675.2911949 187.328125 665.80078125 C186.90402344 664.78242187 186.47992187 663.7640625 186.04296875 662.71484375 C184.42802934 656.13153882 186.91528109 651.05879664 190.015625 645.36328125 C206.50646951 613.72891984 210.69085442 578.50910089 200.140625 544.30078125 C194.10107026 527.04748607 183.80941261 513.04981063 171.328125 499.80078125 C170.66683594 499.0634375 170.00554688 498.32609375 169.32421875 497.56640625 C158.03740839 485.48716328 142.41446722 476.3316189 127.328125 469.80078125 C126.668125 469.80078125 126.008125 469.80078125 125.328125 469.80078125 C127.32654333 466.34339494 129.51103523 463.20640342 131.953125 460.05078125 C151.63221249 433.02821074 157.55974895 400.89542691 153.07421875 368.140625 C150.41145803 351.37606274 142.82414685 335.08335757 132.328125 321.80078125 C131.72484375 321.0221875 131.1215625 320.24359375 130.5 319.44140625 C125.56864884 313.46765566 120.04193893 309.59339295 113.328125 305.80078125 C112.32652344 305.19943359 112.32652344 305.19943359 111.3046875 304.5859375 C88.50654701 291.84014166 62.81684069 302.07478061 46.328125 319.80078125 Z M-56.00048828 476.13769531 C-61.10729893 479.31696731 -66.23528468 482.4619657 -71.359375 485.61328125 C-72.46667969 486.29487305 -73.57398438 486.97646484 -74.71484375 487.67871094 C-89.3847745 496.70668867 -104.06710193 505.7044658 -118.921875 514.42578125 C-128.29832554 519.93804326 -137.55486522 525.6157362 -146.68798828 531.52294922 C-148.47445184 532.67361994 -150.27238418 533.80333694 -152.07421875 534.9296875 C-152.99332031 535.52652344 -153.91242188 536.12335938 -154.859375 536.73828125 C-155.99439453 537.46337891 -155.99439453 537.46337891 -157.15234375 538.203125 C-158.9216096 539.75136248 -158.9216096 539.75136248 -159.0234375 542.3828125 C-158.90442064 544.93346001 -158.90442064 544.93346001 -156.859375 546.55078125 C-153.62435276 548.39936539 -151.06348631 548.92618506 -147.40511799 548.93220901 C-146.09206022 548.93797073 -146.09206022 548.93797073 -144.75247604 548.94384885 C-143.7900435 548.94298237 -142.82761096 548.94211588 -141.83601379 548.94122314 C-140.30317821 548.94567983 -140.30317821 548.94567983 -138.73937625 548.95022655 C-135.29865475 548.95893151 -131.85796798 548.96042332 -128.41723633 548.96191406 C-125.95689825 548.966541 -123.49656089 548.97156549 -121.03622437 548.97695923 C-114.3397961 548.99009805 -107.64338148 548.99656781 -100.94694352 549.00096989 C-96.76498363 549.00373246 -92.58302606 549.00796989 -88.40106773 549.01247406 C-76.82103654 549.02466788 -65.24100721 549.03496638 -53.66096973 549.03834915 C-52.91971717 549.03856872 -52.17846461 549.03878828 -51.41474984 549.0390145 C-50.67172587 549.03923278 -49.9287019 549.03945106 -49.16316205 549.03967595 C-47.65752145 549.04011942 -46.15188084 549.04056598 -44.64624023 549.04101562 C-43.52596625 549.04134777 -43.52596625 549.04134777 -42.38306048 549.04168662 C-30.2865236 549.04563303 -18.19004703 549.06308174 -6.09353343 549.08637515 C6.32769888 549.11010058 18.74890096 549.12255158 31.1701563 549.12371707 C38.14340549 549.12463326 45.11657616 549.1303712 52.0898037 549.14853668 C58.65036218 549.16556689 65.21079804 549.16718134 71.77138138 549.15839767 C74.17880082 549.15762633 76.58622822 549.16198276 78.99362755 549.17185593 C82.28171144 549.18454949 85.56926538 549.17871222 88.85734558 549.16827393 C89.80862451 549.17633033 90.75990344 549.18438673 91.74000901 549.19268727 C97.59877468 549.14922949 102.01061653 548.33143947 107.328125 545.80078125 C108.81826692 543.43584768 108.81826692 543.43584768 108.328125 540.80078125 C104.13795117 536.00928407 98.70716766 533.08614513 93.328125 529.80078125 C92.32652344 529.18847656 91.32492187 528.57617188 90.29296875 527.9453125 C84.04572938 524.16774203 77.75796516 520.46406047 71.4453125 516.796875 C48.65902192 503.54815978 48.65902192 503.54815978 40.14306641 497.68334961 C25.53725957 487.7184268 10.0364928 478.841987 -5.296875 470.05078125 C-6.51044678 469.3539624 -6.51044678 469.3539624 -7.74853516 468.64306641 C-28.43638504 456.90108017 -36.92124164 464.23428814 -56.00048828 476.13769531 Z " fill="#000000" transform="translate(1049.671875,291.19921875)"/>
<path d="M0 0 C8.49663534 6.60224203 13.17785195 17.29371993 14.70703125 27.75 C14.82976142 29.0817529 14.93384371 30.41535169 15.01953125 31.75 C15.07238281 32.41257812 15.12523437 33.07515625 15.1796875 33.7578125 C15.71017275 46.25881262 11.91742086 59.30131954 4.1328125 69.1328125 C-1.95068228 75.61071854 -7.39498729 78.90281796 -16.35546875 79.3125 C-24.70736843 79.01283693 -30.90836086 76.25007626 -36.73046875 70.25 C-45.36463331 59.41136789 -49.2694059 45.4852365 -47.98046875 31.75 C-45.912094 18.66106601 -41.24486353 7.17341007 -30.54296875 -1.0625 C-20.4932871 -7.76228777 -9.75887358 -6.15944683 0 0 Z " fill="#000000" transform="translate(942.98046875,659.25)"/>
<path d="M0 0 C8.64675361 5.55777542 13.83533944 14.9035428 16.6484375 24.6484375 C19.78525475 40.00348696 17.46992937 54.64170999 8.83203125 67.8203125 C4.41344208 73.90855645 -1.50460686 78.44628623 -8.79296875 80.59375 C-16.89328551 81.73285704 -23.27670609 79.41135197 -29.85546875 74.7578125 C-36.73646336 69.06568083 -40.56036088 61.23027959 -43.16796875 52.8203125 C-43.55984375 51.6446875 -43.95171875 50.4690625 -44.35546875 49.2578125 C-47.26838072 36.69279391 -45.565031 23.05724916 -38.98046875 12.0078125 C-29.24907794 -2.12102688 -15.7433219 -8.51525587 0 0 Z " fill="#000000" transform="translate(1136.16796875,658.1796875)"/>
<path d="M0 0 C1.1446875 -0.01260864 2.289375 -0.02521729 3.46875 -0.03820801 C4.6959375 -0.03011108 5.923125 -0.02201416 7.1875 -0.01367188 C8.4559375 -0.01749878 9.724375 -0.02132568 11.03125 -0.02526855 C13.71149486 -0.02798903 16.39027705 -0.02263873 19.0703125 -0.00390625 C22.49701508 0.01888417 25.92246444 0.00575499 29.34912109 -0.01819611 C32.62862502 -0.03616609 35.90797969 -0.02356626 39.1875 -0.01367188 C41.02828125 -0.02581726 41.02828125 -0.02581726 42.90625 -0.03820801 C44.0509375 -0.02559937 45.195625 -0.01299072 46.375 0 C47.37917969 0.00318237 48.38335938 0.00636475 49.41796875 0.00964355 C52.93811561 0.65524172 54.62083247 2.07377017 57.1875 4.51757812 C59.45301731 8.67712646 60.03179221 13.37973548 60.84375 18.00195312 C60.99154907 18.81698303 61.13934814 19.63201294 61.29162598 20.47174072 C61.76188873 23.0694861 62.22505431 25.66843083 62.6875 28.26757812 C63.15114771 30.85220863 63.61633278 33.43654939 64.08337402 36.02056885 C64.37280763 37.62412886 64.66014544 39.2280692 64.94494629 40.8324585 C65.88937274 46.09403916 66.99122575 51.30760546 68.1875 56.51757812 C68.83408569 56.70404907 69.48067139 56.89052002 70.14685059 57.0826416 C76.85408836 59.02917125 83.39824988 61.32001076 89.9375 63.76757812 C90.98719971 64.15800293 92.03689941 64.54842773 93.1184082 64.95068359 C100.20832881 67.63666539 106.88591748 70.66762575 113.48046875 74.40039062 C116.70661091 75.73181437 117.94350428 75.74823682 121.1875 74.51757812 C123.81414604 72.73613166 123.81414604 72.73613166 126.375 70.45507812 C127.82519531 69.22724609 127.82519531 69.22724609 129.3046875 67.97460938 C130.25601562 67.16378906 131.20734375 66.35296875 132.1875 65.51757812 C135.49975625 62.82438574 138.84476207 60.17280258 142.1875 57.51757812 C142.76000488 57.05996094 143.33250977 56.60234375 143.92236328 56.13085938 C145.7995214 54.63110107 147.6806535 53.13644772 149.5625 51.64257812 C150.15780518 51.16578613 150.75311035 50.68899414 151.36645508 50.19775391 C156.83078862 45.87625201 160.07856491 43.78217105 167.1875 44.51757812 C172.19900323 47.38627983 175.97054246 51.08764979 179.9375 55.20507812 C183.68198705 59.35506808 183.68198705 59.35506808 188.1875 62.51757812 C188.1875 63.17757813 188.1875 63.83757812 188.1875 64.51757812 C188.8475 64.51757812 189.5075 64.51757812 190.1875 64.51757812 C190.1875 65.17757813 190.1875 65.83757812 190.1875 66.51757812 C190.76419434 66.76975098 191.34088867 67.02192383 191.93505859 67.28173828 C194.46845851 68.67173073 196.18118243 70.25243567 198.2265625 72.29101562 C198.97164062 73.03351563 199.71671875 73.77601562 200.484375 74.54101562 C201.25265625 75.31703125 202.0209375 76.09304688 202.8125 76.89257812 C203.58851563 77.66085937 204.36453125 78.42914062 205.1640625 79.22070312 C206.2778125 80.33832031 206.2778125 80.33832031 207.4140625 81.47851562 C208.09033691 82.1570459 208.76661133 82.83557617 209.46337891 83.53466797 C211.99766765 86.44935122 213.22690553 88.39688479 213.08984375 92.29492188 C211.94119249 96.3972478 210.05592701 99.52651232 207.75 103.08007812 C207.30479004 103.7797168 206.85958008 104.47935547 206.40087891 105.20019531 C202.75283254 110.84472962 198.74070548 116.12660283 194.59765625 121.41210938 C192.15919545 124.55404833 189.79658693 127.70790391 187.5 130.95507812 C186.50419922 132.34533203 186.50419922 132.34533203 185.48828125 133.76367188 C183.77293313 137.39526475 183.99502462 138.67263849 185.1875 142.51757812 C187.18399274 147.02927675 189.44843544 151.40625473 191.7109375 155.7890625 C196.6191235 165.6526286 199.86002983 176.03653695 203.1875 186.51757812 C203.74824722 186.6111409 204.30899445 186.70470367 204.88673401 186.80110168 C210.74508042 187.78037693 216.60123747 188.77202735 222.45629883 189.77075195 C224.63903408 190.14141732 226.82230052 190.50896908 229.00610352 190.87329102 C232.1526686 191.39879391 235.29712651 191.93562175 238.44140625 192.47460938 C239.4114711 192.63411575 240.38153595 192.79362213 241.3809967 192.95796204 C253.75905083 195.10885641 253.75905083 195.10885641 258.59179688 199.90234375 C260.99350957 205.34367815 260.75855948 210.47606111 260.71875 216.36132812 C260.7225769 217.60378296 260.72640381 218.84623779 260.73034668 220.12634277 C260.73375856 223.41880535 260.71771564 226.71050703 260.6953125 230.00286865 C260.68750615 232.01599233 260.69528617 234.02841857 260.70898438 236.04150391 C260.73372293 239.919273 260.73069411 243.79601576 260.71875 247.67382812 C260.72684692 248.87084351 260.73494385 250.06785889 260.74328613 251.30114746 C260.68992415 256.04695445 260.51608647 259.7098576 258.71679688 264.1328125 C253.26152913 269.27635066 245.37710133 270.04759236 238.20703125 271.30664062 C237.39054611 271.45539642 236.57406097 271.60415222 235.73283386 271.75741577 C233.15629249 272.22530625 230.57822303 272.68405539 228 273.14257812 C226.26095996 273.45708709 224.5220266 273.77218656 222.78320312 274.08789062 C216.25747039 275.2691867 209.7317057 276.44233355 203.1875 277.51757812 C203.04054688 278.12601563 202.89359375 278.73445313 202.7421875 279.36132812 C198.73730281 295.01260164 192.39705524 309.66095876 184.38671875 323.66601562 C182.96233569 327.05298511 182.82400362 328.12433145 184.1875 331.51757812 C185.85977385 334.01154653 187.75241752 336.28683279 189.6875 338.58007812 C190.78145753 339.90956656 191.87388795 341.24031292 192.96484375 342.57226562 C193.50866699 343.23323242 194.05249023 343.89419922 194.61279297 344.57519531 C198.28736378 349.10773568 201.71908059 353.82674338 205.1875 358.51757812 C205.76371094 359.24589844 206.33992188 359.97421875 206.93359375 360.72460938 C208.1875 362.51757812 208.1875 362.51757812 208.1875 364.51757812 C208.8475 364.51757812 209.5075 364.51757812 210.1875 364.51757812 C210.89242893 365.73683288 211.57575901 366.96858872 212.25 368.20507812 C212.63285156 368.88957031 213.01570313 369.5740625 213.41015625 370.27929688 C214.40301584 373.13813378 213.99956328 374.62212229 213.1875 377.51757812 C211.98046875 379.33398438 211.98046875 379.33398438 210.375 381.08007812 C209.74335937 381.76714844 209.11171875 382.45421875 208.4609375 383.16210938 C203.25209323 388.55890163 197.92226815 393.83060409 192.58496094 399.09960938 C187.06227722 404.55795773 181.57564145 409.9914572 176.57763672 415.9453125 C173.28080703 419.67407667 170.12072101 421.72597201 165.16015625 422.03710938 C158.76925681 421.9142572 154.49588732 418.36040235 149.5 414.70507812 C148.53900391 414.02598389 147.57800781 413.34688965 146.58789062 412.6472168 C139.92087896 407.8968033 133.40766792 402.95887687 127.0625 397.78710938 C126.11375 397.03816406 125.165 396.28921875 124.1875 395.51757812 C123.1975 394.71707031 122.2075 393.9165625 121.1875 393.09179688 C118.31664059 391.1966487 118.31664059 391.1966487 115.3359375 392.01367188 C114.29695313 392.50996094 113.25796875 393.00625 112.1875 393.51757812 C111.57165039 393.80777832 110.95580078 394.09797852 110.32128906 394.39697266 C108.14043487 395.43604855 105.97752537 396.50844209 103.8125 397.58007812 C93.25934207 402.70930792 82.34788945 406.7509489 71.31616211 410.72070312 C69.17730519 411.47882245 69.17730519 411.47882245 67.1875 412.51757812 C66.36610188 415.50210333 66.36610188 415.50210333 65.75 419.15820312 C65.62439697 419.83622986 65.49879395 420.51425659 65.36938477 421.21282959 C64.96723692 423.39633741 64.57746206 425.58186482 64.1875 427.76757812 C63.92523806 429.19480112 63.66222536 430.62188637 63.3984375 432.04882812 C62.00482076 439.65006603 60.73678823 447.24817453 59.70263672 454.90869141 C58.81103115 459.42418768 56.80734058 461.84482818 53.6328125 465.12304688 C49.86962009 467.26914862 46.2068446 467.09850861 41.9375 467.20507812 C40.99962646 467.23633789 40.06175293 467.26759766 39.09545898 467.29980469 C35.79294988 467.39595068 32.49089587 467.45944989 29.1875 467.51757812 C27.83675083 467.54506128 26.48600215 467.57256877 25.13525391 467.60009766 C21.55344143 467.66913041 17.97185884 467.71525106 14.38952637 467.74673462 C12.97240096 467.76054041 11.55531172 467.7788524 10.13830566 467.80184937 C-6.08454638 468.04402073 -6.08454638 468.04402073 -12.125 462.33007812 C-15.65383193 456.44869157 -16.25711935 449.23284869 -17.21484375 442.52929688 C-17.46759523 440.83716427 -17.72086538 439.14510906 -17.97460938 437.453125 C-18.36613012 434.81609588 -18.75378824 432.17868618 -19.13256836 429.53979492 C-19.50305657 426.97201017 -19.88896711 424.40692828 -20.27734375 421.84179688 C-20.38682846 421.05117355 -20.49631317 420.26055023 -20.6091156 419.44596863 C-21.24464892 415.31983325 -21.24464892 415.31983325 -23.07202148 411.62109375 C-25.36582283 410.16675484 -27.6078346 409.36915347 -30.1953125 408.53710938 C-31.27288818 408.18140869 -32.35046387 407.82570801 -33.46069336 407.45922852 C-34.60803955 407.08660889 -35.75538574 406.71398926 -36.9375 406.33007812 C-48.58154596 402.43532054 -60.52176333 398.37806924 -70.8125 391.51757812 C-75.47105794 391.70675814 -78.40043395 394.18327156 -81.875 397.01757812 C-83.03067918 397.93366328 -84.18694194 398.84901265 -85.34375 399.76367188 C-85.92382812 400.22628418 -86.50390625 400.68889648 -87.1015625 401.16552734 C-90.61992228 403.94587501 -94.23182304 406.60258083 -97.83203125 409.27539062 C-99.8977303 410.82940275 -101.93036445 412.39793336 -103.94921875 414.00976562 C-114.21125652 422.07003619 -114.21125652 422.07003619 -120.8125 422.51757812 C-127.28586262 420.51686104 -130.69914332 416.94836675 -135.125 411.95507812 C-136.52188687 410.42122528 -137.92174088 408.89007051 -139.32421875 407.36132812 C-140.0517334 406.56726562 -140.77924805 405.77320313 -141.52880859 404.95507812 C-146.10048697 400.07549325 -150.90217843 395.41915971 -155.6965332 390.75952148 C-167.19938452 379.43911031 -167.19938452 379.43911031 -168.4609375 373.42773438 C-167.61197765 369.61764348 -165.77968675 366.98601673 -163.4375 363.95507812 C-162.98560303 363.34720459 -162.53370605 362.73933105 -162.06811523 362.11303711 C-160.66527495 360.23536689 -159.24234613 358.3747403 -157.8125 356.51757812 C-157.39081543 355.96618164 -156.96913086 355.41478516 -156.53466797 354.84667969 C-155.3174736 353.25574702 -154.09625026 351.66789949 -152.875 350.08007812 C-152.47458496 349.55849121 -152.07416992 349.0369043 -151.66162109 348.49951172 C-149.88000196 346.1829141 -148.0950822 343.87132056 -146.27099609 341.58789062 C-144.68310461 339.59903599 -143.1218953 337.5913141 -141.5625 335.58007812 C-140.80851929 334.65787476 -140.80851929 334.65787476 -140.03930664 333.71704102 C-138.45847175 331.74291557 -138.45847175 331.74291557 -136.8125 328.51757812 C-137.43828878 324.31663086 -139.52175051 321.15932195 -141.73217773 317.56958008 C-148.16117244 307.08074595 -151.99486367 295.74004444 -155.90209961 284.1262207 C-156.3527478 282.83494263 -156.3527478 282.83494263 -156.8125 281.51757812 C-156.98837646 280.62079346 -157.16425293 279.72400879 -157.34545898 278.80004883 C-158.561755 276.41011184 -158.561755 276.41011184 -160.59831238 275.84059143 C-163.10315163 275.30274044 -165.5922761 274.93442785 -168.1328125 274.60351562 C-169.06543915 274.46233307 -169.9980658 274.32115051 -170.95895386 274.1756897 C-173.94908068 273.72637016 -176.94248308 273.30793842 -179.9375 272.89257812 C-182.910117 272.4653006 -185.88151652 272.03141495 -188.85177612 271.58804321 C-190.70012626 271.31371764 -192.54998414 271.04930345 -194.40139771 270.79647827 C-202.46607145 269.62734171 -209.39264087 268.08710434 -214.8125 261.51757812 C-215.80604679 258.53693774 -215.95036927 256.53611798 -215.97363281 253.42285156 C-215.98324036 252.38457214 -215.9928479 251.34629272 -216.00274658 250.27655029 C-216.00699646 249.15468323 -216.01124634 248.03281616 -216.015625 246.87695312 C-216.02132507 245.7214093 -216.02702515 244.56586548 -216.03289795 243.37530518 C-216.04235069 240.92745887 -216.04888301 238.47959981 -216.05273438 236.03173828 C-216.06242543 232.29632179 -216.09344114 228.56145886 -216.125 224.82617188 C-216.13153159 222.44726889 -216.13678145 220.06836197 -216.140625 217.68945312 C-216.1529718 216.57568298 -216.1653186 215.46191284 -216.17803955 214.31439209 C-216.16077836 208.27007759 -215.80564313 203.82323308 -212.8125 198.51757812 C-208.65939123 194.88751125 -203.34410334 194.45106296 -198.0625 193.58007812 C-196.63973755 193.33294067 -196.63973755 193.33294067 -195.18823242 193.08081055 C-186.42398562 191.57464479 -177.63906021 190.18152598 -168.85058594 188.82446289 C-167.34093262 188.5894104 -167.34093262 188.5894104 -165.80078125 188.34960938 C-164.90915283 188.21272705 -164.01752441 188.07584473 -163.09887695 187.93481445 C-160.66149434 187.54545377 -160.66149434 187.54545377 -157.8125 186.51757812 C-156.77920746 184.58481781 -156.77920746 184.58481781 -156.05078125 182.16992188 C-155.74052002 181.26209961 -155.43025879 180.35427734 -155.1105957 179.41894531 C-154.78534912 178.44086914 -154.46010254 177.46279297 -154.125 176.45507812 C-151.65787051 169.34559972 -149.0655571 162.46609523 -145.625 155.76757812 C-145.13205444 154.80078125 -145.13205444 154.80078125 -144.62915039 153.81445312 C-143.17930244 151.0148475 -141.66701834 148.27230058 -140.05859375 145.56054688 C-139.56488281 144.70074219 -139.07117188 143.8409375 -138.5625 142.95507812 C-137.90507813 141.90126953 -137.90507813 141.90126953 -137.234375 140.82617188 C-136.54190609 137.03682813 -138.74385983 134.51782914 -140.8125 131.51757812 C-142.78577132 128.66881183 -144.81901043 125.86958718 -146.875 123.08007812 C-151.32222346 116.98280238 -155.71718801 110.85666996 -160 104.64257812 C-160.68557983 103.65366577 -160.68557983 103.65366577 -161.38500977 102.64477539 C-162.54828327 100.94978296 -163.68215924 99.2347078 -164.8125 97.51757812 C-165.26238281 96.855 -165.71226562 96.19242188 -166.17578125 95.50976562 C-167.24684456 92.15858595 -167.18625337 89.69766133 -165.8125 86.51757812 C-162.96551192 82.89063472 -159.70761535 79.75802532 -156.375 76.58007812 C-155.49005859 75.70544922 -154.60511719 74.83082031 -153.69335938 73.9296875 C-147.1210724 67.51757812 -147.1210724 67.51757812 -144.8125 67.51757812 C-144.8125 66.85757812 -144.8125 66.19757813 -144.8125 65.51757812 C-144.1525 65.51757812 -143.4925 65.51757812 -142.8125 65.51757812 C-142.8125 64.85757812 -142.8125 64.19757813 -142.8125 63.51757812 C-142.1525 63.51757812 -141.4925 63.51757812 -140.8125 63.51757812 C-140.8125 62.85757812 -140.8125 62.19757813 -140.8125 61.51757812 C-139.16247172 60.16370877 -137.4950613 58.8307967 -135.8125 57.51757812 C-135.3175 56.52757812 -135.3175 56.52757812 -134.8125 55.51757812 C-134.1525 55.51757812 -133.4925 55.51757812 -132.8125 55.51757812 C-132.565 54.92332031 -132.3175 54.3290625 -132.0625 53.71679688 C-130.62187117 51.18219054 -129.1728228 50.01788248 -126.8125 48.33007812 C-126.11125 47.82089844 -125.41 47.31171875 -124.6875 46.78710938 C-121.21963498 44.43907577 -119.01287219 44.20396405 -114.8125 44.51757812 C-108.42039469 47.40338222 -102.97200696 52.09932574 -97.6875 56.64257812 C-92.50189443 61.09968631 -87.28187566 65.50113783 -81.9375 69.76757812 C-81.23608887 70.35297363 -80.53467773 70.93836914 -79.81201172 71.54150391 C-76.42287923 74.20882449 -74.68156326 75.49549143 -70.27734375 75.60742188 C-66.3359897 74.36769495 -62.87917542 72.78206986 -59.25 70.83007812 C-57.8374584 70.09926636 -56.4233643 69.37144831 -55.0078125 68.64648438 C-54.30430664 68.28570801 -53.60080078 67.92493164 -52.87597656 67.55322266 C-30.88793612 56.51757812 -30.88793612 56.51757812 -21.8125 56.51757812 C-21.77946777 55.85943115 -21.74643555 55.20128418 -21.71240234 54.52319336 C-21.14325204 45.83519493 -19.63361864 37.45038229 -17.91113281 28.93334961 C-17.43385286 26.5619571 -16.97428992 24.18755481 -16.515625 21.8125 C-16.21199512 20.28820041 -15.90734453 18.7641037 -15.6015625 17.24023438 C-15.46706696 16.53810318 -15.33257141 15.83597198 -15.19400024 15.11256409 C-13.42865209 6.56786544 -9.39626017 0.02977794 0 0 Z M-14 139.83007812 C-14.7640918 140.1378418 -15.52818359 140.44560547 -16.31542969 140.76269531 C-41.20530338 150.97798019 -62.62785668 170.37968053 -73.27734375 195.37304688 C-83.2091158 220.76117819 -83.70264138 248.45260206 -72.74853516 273.50292969 C-67.49961085 284.80030147 -61.07129037 296.02878858 -51.8125 304.51757812 C-51.1525 304.51757812 -50.4925 304.51757812 -49.8125 304.51757812 C-49.8125 305.17757812 -49.8125 305.83757812 -49.8125 306.51757812 C-28.97972187 326.53432578 -1.11311555 335.15972216 27.2578125 334.79882812 C50.79097412 334.03102514 72.49181293 324.86557868 90.1875 309.51757812 C90.99574219 308.85371094 91.80398438 308.18984375 92.63671875 307.50585938 C111.45291699 291.52538331 123.23185141 268.65153804 125.91015625 244.13867188 C128.07419335 215.88427197 120.09054066 190.51603206 102 168.90429688 C90.5090625 155.7575472 77.558478 147.03516816 61.625 140.14257812 C60.89490723 139.82095703 60.16481445 139.49933594 59.41259766 139.16796875 C47.8386637 134.37106118 36.12561832 133.02259628 23.6875 133.14257812 C21.88345703 133.12517578 21.88345703 133.12517578 20.04296875 133.10742188 C8.161071 133.14570941 -3.00429703 135.32929892 -14 139.83007812 Z " fill="#000000" transform="translate(1001.8125,1099.482421875)"/>
</svg>
