<?xml version="1.0" encoding="UTF-8"?>
<svg version="1.1" xmlns="http://www.w3.org/2000/svg" width="1024" height="1024">
<path d="M0 0 C337.92 0 675.84 0 1024 0 C1024 337.92 1024 675.84 1024 1024 C686.08 1024 348.16 1024 0 1024 C0 686.08 0 348.16 0 0 Z " fill="#FDFEFD" transform="translate(0,0)"/>
<path d="M0 0 C0.76548102 -0.00523668 1.53096203 -0.01047336 2.31963944 -0.01586872 C4.88666866 -0.0308798 7.45349874 -0.03157412 10.02056885 -0.03224182 C11.86037533 -0.03986265 13.70017863 -0.04829001 15.53997803 -0.0574646 C20.54012498 -0.07942604 25.54021077 -0.0882109 30.54040051 -0.09329104 C33.66488306 -0.09693314 36.78934955 -0.10317249 39.91382599 -0.11029243 C50.81595057 -0.13479415 61.71802752 -0.14784007 72.62017822 -0.15138245 C82.77901193 -0.15501668 92.93754331 -0.1849022 103.09628463 -0.22678703 C111.81999552 -0.26149291 120.54360626 -0.27693095 129.26738572 -0.27762848 C134.47678187 -0.27842129 139.68587024 -0.28716173 144.89519501 -0.31562614 C149.79712114 -0.34181124 154.69848443 -0.34400943 159.60044861 -0.3279705 C161.39671812 -0.32615628 163.19302001 -0.33284436 164.98921967 -0.34878922 C181.80601404 -0.48893542 181.80601404 -0.48893542 188.43560791 5.27415466 C192.09200638 9.21921617 194.68029786 12.87148662 194.69567013 18.34602547 C194.70273572 19.15248705 194.70980131 19.95894863 194.71708101 20.78984845 C194.71466593 21.67018494 194.71225084 22.55052143 194.70976257 23.45753479 C194.71499925 24.39719743 194.72023593 25.33686006 194.7256313 26.30499732 C194.74066299 29.46158862 194.74133716 32.61801827 194.74200439 35.77464294 C194.7496239 38.0348437 194.75805103 40.29504185 194.76722717 42.55523682 C194.78920339 48.70217455 194.79797563 54.84906252 194.80305362 60.9960351 C194.8066944 64.83680342 194.8129331 68.67755865 194.82005501 72.51832199 C194.83951556 83.15905983 194.85602499 93.79978305 194.85893154 104.44053841 C194.85911911 105.1214005 194.85930668 105.80226259 194.85949994 106.50375687 C194.85986618 107.88395842 194.86022988 109.26415996 194.86059105 110.64436151 C194.86077386 111.32946864 194.86095667 112.01457577 194.86114502 112.72044373 C194.86141584 113.74936408 194.86141584 113.74936408 194.86169214 114.7990707 C194.86523103 125.90487365 194.89223481 137.01048236 194.92964291 148.11621799 C194.96777065 159.52727989 194.98664876 170.93820372 194.98739105 182.34933841 C194.98818386 188.75261409 194.99692429 195.15563936 195.02538872 201.55885696 C195.05157745 207.58521957 195.05376955 213.61112436 195.03773308 219.63751793 C195.03591909 221.8457597 195.04260466 224.05402782 195.05855179 226.26221275 C195.2098431 248.57757265 195.2098431 248.57757265 189.43560791 255.27415466 C184.09815407 259.57787418 178.67303885 260.42341948 172.0294342 260.42805481 C171.26889116 260.43243706 170.50834813 260.43681932 169.72475833 260.44133437 C167.1684928 260.45472147 164.61226175 260.46090104 162.05596924 260.46702576 C160.22616419 260.47492682 158.39636069 260.48319578 156.56655884 260.49180603 C150.55026742 260.51802664 144.53396904 260.53333418 138.51763916 260.54759216 C136.44657575 260.55295192 134.3755124 260.55832942 132.30444908 260.56372452 C123.68910354 260.58535371 115.07375987 260.60409023 106.45839405 260.61534691 C94.11182509 260.63158476 81.7655709 260.66475825 69.41912061 260.72174776 C60.73790285 260.7604526 52.05676926 260.77998028 43.37546748 260.78526747 C38.19063199 260.7889203 33.00613222 260.80093438 27.82139015 260.83337021 C22.94165791 260.8634601 18.06246439 260.86975931 13.18265915 260.85798645 C11.39444533 260.85776579 9.60620645 260.8660646 7.81807899 260.88364029 C-8.90499719 261.03902807 -8.90499719 261.03902807 -15.56439209 255.27415466 C-21.42234226 249.26204791 -21.86027029 242.8875291 -21.83181763 234.91273499 C-21.8386143 233.51081172 -21.8386143 233.51081172 -21.84554827 232.08056676 C-21.85819457 228.95315107 -21.85657175 225.82590948 -21.85491943 222.69847107 C-21.86090449 220.45443498 -21.86770998 218.21040095 -21.87527466 215.96636963 C-21.89294306 209.87339588 -21.89763037 203.7804783 -21.89890623 197.6874814 C-21.90080579 192.60046145 -21.90816388 187.51345456 -21.91525042 182.42643964 C-21.93060483 171.11020394 -21.93658805 159.794003 -21.93523972 148.47776039 C-21.9351598 147.79923261 -21.93507989 147.12070483 -21.93499756 146.4216156 C-21.9349158 145.74225631 -21.93483404 145.06289702 -21.9347498 144.36295108 C-21.93393689 133.35295045 -21.95307768 122.34308661 -21.98127429 111.33312555 C-22.01002002 100.01919865 -22.02344762 88.70535921 -22.02208674 77.39138734 C-22.02157679 71.04301922 -22.02727864 64.69480596 -22.04844284 58.34646988 C-22.06780425 52.37594462 -22.06796379 46.40572232 -22.05340958 40.43518639 C-22.05131787 38.24545919 -22.05604381 36.05571313 -22.06813049 33.8660183 C-22.08357723 30.87350348 -22.07427813 27.88203409 -22.05886841 24.88954163 C-22.06915553 24.02590992 -22.07944266 23.16227821 -22.09004152 22.27247584 C-22.01791675 15.92127985 -20.585353 10.46433652 -16.11710489 5.7457968 C-10.81333109 1.14592148 -6.90736309 -0.0233512 0 0 Z " fill="#FDFDFD" transform="translate(420.56439208984375,503.72584533691406)"/>
<path d="M0 0 C3.36322192 0.01068846 6.7259059 0.00006921 10.08911133 -0.01269531 C22.56347997 -0.02107893 34.71428381 0.52593995 47.06762695 2.26074219 C48.11829346 2.39609375 49.16895996 2.53144531 50.25146484 2.67089844 C120.69564277 12.0707234 193.35117616 50.52060492 237.06762695 107.26074219 C237.83977539 108.20433594 238.61192383 109.14792969 239.4074707 110.12011719 C256.92421458 131.92611114 270.25961077 158.55195292 277.88012695 185.44824219 C278.062771 186.08681152 278.24541504 186.72538086 278.43359375 187.38330078 C282.20998054 201.55042017 283.62272474 215.39646048 283.50512695 230.01074219 C283.5014209 230.84113007 283.49771484 231.67151794 283.49389648 232.52706909 C283.28460387 265.54496016 273.28050817 294.764815 252.06762695 320.26074219 C251.34961914 321.13214844 250.63161133 322.00355469 249.8918457 322.90136719 C229.75774239 346.31140322 200.16499907 362.13287308 170.31762695 368.94824219 C169.42430664 369.16029297 168.53098633 369.37234375 167.6105957 369.59082031 C160.36667272 371.28178024 153.40549002 372.38796762 145.93896484 372.37426758 C145.26494629 372.3744136 144.59092773 372.37455963 143.89648438 372.37471008 C141.69438324 372.37401988 139.49236935 372.36626982 137.2902832 372.35839844 C135.75329128 372.35653108 134.21629876 372.35510868 132.67930603 372.35411072 C128.65325245 372.35031056 124.6272355 372.34050189 120.60119629 372.32940674 C116.48519384 372.31913859 112.36918542 372.31460156 108.25317383 372.30957031 C100.19130626 372.29887715 92.1294754 372.28130087 84.06762695 372.26074219 C84.06762695 366.65074219 84.06762695 361.04074219 84.06762695 355.26074219 C86.94094727 355.24672363 86.94094727 355.24672363 89.87231445 355.23242188 C96.26661388 355.19661623 102.66056811 355.14264608 109.05462646 355.07683945 C112.92388376 355.03766009 116.79292354 355.00532949 120.66235352 354.98974609 C124.41038506 354.97438129 128.1578173 354.93959737 131.90557861 354.89243317 C133.32133718 354.87782015 134.73718141 354.86971301 136.15301514 354.86885834 C149.57921138 354.85263269 163.81672887 353.21355996 175.06762695 345.26074219 C175.67735352 344.84308594 176.28708008 344.42542969 176.9152832 343.99511719 C186.57881763 336.60410624 192.1775908 324.06022023 194.06762695 312.26074219 C195.79967374 288.69354817 185.51329983 268.21578734 170.62866211 250.55322266 C159.17698048 237.3699893 146.04885648 226.62556588 132.06762695 216.26074219 C131.32528809 215.70950684 130.58294922 215.15827148 129.81811523 214.59033203 C106.17316749 197.10201271 81.07428304 181.96671838 55.06762695 168.26074219 C54.08084961 167.73867188 53.09407227 167.21660156 52.07739258 166.67871094 C14.43475655 146.90730722 -26.05933553 131.8211697 -67.99487305 124.44824219 C-69.17162598 124.24102539 -70.34837891 124.03380859 -71.56079102 123.8203125 C-82.08585128 122.06341996 -92.50777491 121.21482991 -103.1784668 121.22558594 C-104.95833984 121.21688477 -104.95833984 121.21688477 -106.77416992 121.20800781 C-109.19872965 121.20142291 -111.62350668 121.22287546 -114.04760742 121.27050781 C-122.61368333 121.16266997 -122.61368333 121.16266997 -126.37036133 118.59326172 C-128.34354133 116.51358178 -129.79011131 114.8935695 -130.93237305 112.26074219 C-130.7063595 108.48591297 -129.66979831 105.89151452 -126.93237305 103.26074219 C-124.40234375 102.77490234 -124.40234375 102.77490234 -121.3581543 102.79980469 C-120.22869385 102.80189941 -119.0992334 102.80399414 -117.93554688 102.80615234 C-116.10866333 102.84554932 -116.10866333 102.84554932 -114.24487305 102.88574219 C-112.98118896 102.9029834 -111.71750488 102.92022461 -110.41552734 102.93798828 C-82.70560228 103.45632095 -53.76025894 106.47667064 -27.36254883 115.44580078 C-24.34362065 116.45817593 -21.30801222 117.41342455 -18.2722168 118.37402344 C8.41516955 126.92197122 34.01590248 137.68370385 59.06762695 150.26074219 C60.0548877 150.75574219 61.04214844 151.25074219 62.05932617 151.76074219 C93.70927365 167.72865788 124.48288158 186.92943479 152.06762695 209.26074219 C153.56616211 210.44603516 153.56616211 210.44603516 155.0949707 211.65527344 C180.67725492 232.14262868 206.44156423 259.5411546 211.7512207 293.26464844 C213.30319034 307.96045973 211.92655667 323.01591239 205.06762695 336.26074219 C228.59072747 321.97760019 246.34745705 303.90899916 257.06762695 278.26074219 C257.57165039 277.15859375 258.07567383 276.05644531 258.5949707 274.92089844 C260.21918844 270.88404959 261.2512424 266.93447268 262.19262695 262.69824219 C262.36149414 261.96927734 262.53036133 261.2403125 262.7043457 260.48925781 C270.83866132 224.90963321 263.23875869 185.80000657 246.02319336 154.03808594 C245.11877079 152.3558692 244.25402193 150.6524973 243.3918457 148.94824219 C236.57435063 135.67121121 227.82289231 123.53036282 218.06762695 112.26074219 C217.37411133 111.45636719 216.6805957 110.65199219 215.96606445 109.82324219 C203.34427363 95.50324678 189.64325498 83.3173292 174.06762695 72.26074219 C174.03024414 72.855 173.99286133 73.44925781 173.9543457 74.06152344 C171.95082175 99.32163922 158.50433271 122.03342141 139.5793457 138.48339844 C128.54688861 147.54220346 114.20023981 157.20002498 99.4934082 156.65917969 C96.11548108 156.10435108 94.31131845 154.80359255 92.06762695 152.26074219 C90.58910661 149.3037015 90.87716528 146.31516271 90.88012695 143.07324219 C90.87948242 142.3271167 90.87883789 141.58099121 90.87817383 140.81225586 C90.93455584 134.52630191 91.45763811 128.32655366 92.06762695 122.07324219 C94.98098932 91.50965372 92.5623349 61.95324866 77.50512695 34.63574219 C76.94112183 33.60416992 76.94112183 33.60416992 76.36572266 32.55175781 C73.66555868 27.81508462 71.58696029 24.96134515 66.24951172 23.47705078 C65.18015381 23.28965332 64.1107959 23.10225586 63.0090332 22.90917969 C61.81729492 22.69777344 60.62555664 22.48636719 59.39770508 22.26855469 C58.1544043 22.05972656 56.91110352 21.85089844 55.63012695 21.63574219 C54.42163086 21.41917969 53.21313477 21.20261719 51.96801758 20.97949219 C37.44007408 18.45830649 23.0834992 18.02826084 8.38012695 18.01074219 C7.48375519 18.00840576 6.58738342 18.00606934 5.66384888 18.00366211 C-9.39831609 17.9888915 -24.03636711 18.89782633 -38.93237305 21.26074219 C-38.03776367 21.74542969 -37.1431543 22.23011719 -36.22143555 22.72949219 C-28.52780908 26.96611298 -21.57724194 31.46579839 -14.93237305 37.26074219 C-13.73741211 38.29134766 -13.73741211 38.29134766 -12.51831055 39.34277344 C4.06484741 53.95174592 27.85195041 76.01067101 31.5012207 98.99121094 C31.51181288 105.65368809 31.51181288 105.65368809 29.19262695 108.82324219 C24.53484887 111.97409207 20.58622129 111.95938776 15.06762695 111.26074219 C4.72788144 108.21582966 -4.96240586 102.89102097 -14.63061523 98.21337891 C-36.40801666 87.69052313 -58.15627289 77.92153716 -81.10546875 70.21191406 C-82.8561119 69.62287307 -84.60296113 69.02225051 -86.34326172 68.40332031 C-91.97813464 66.42351686 -97.62299562 65.19871783 -103.49487305 64.13574219 C-104.38883789 63.966875 -105.28280273 63.79800781 -106.20385742 63.62402344 C-111.43356611 62.65229995 -116.64771246 61.86505577 -121.93237305 61.26074219 C-122.52018555 59.46636719 -122.52018555 59.46636719 -123.11987305 57.63574219 C-126.80330273 48.12579647 -132.92417817 45.31227481 -141.93237305 41.26074219 C-119.9286173 16.52837348 -67.61247053 7.26254912 -36.93237305 2.26074219 C-35.86881592 2.07237793 -34.80525879 1.88401367 -33.70947266 1.68994141 C-22.49652614 -0.08703824 -11.32861105 -0.04275258 0 0 Z " fill="#040404" transform="translate(543.932373046875,313.7392578125)"/>
<path d="M0 0 C0.76548102 -0.00523668 1.53096203 -0.01047336 2.31963944 -0.01586872 C4.88666866 -0.0308798 7.45349874 -0.03157412 10.02056885 -0.03224182 C11.86037533 -0.03986265 13.70017863 -0.04829001 15.53997803 -0.0574646 C20.54012498 -0.07942604 25.54021077 -0.0882109 30.54040051 -0.09329104 C33.66488306 -0.09693314 36.78934955 -0.10317249 39.91382599 -0.11029243 C50.81595057 -0.13479415 61.71802752 -0.14784007 72.62017822 -0.15138245 C82.77901193 -0.15501668 92.93754331 -0.1849022 103.09628463 -0.22678703 C111.81999552 -0.26149291 120.54360626 -0.27693095 129.26738572 -0.27762848 C134.47678187 -0.27842129 139.68587024 -0.28716173 144.89519501 -0.31562614 C149.79712114 -0.34181124 154.69848443 -0.34400943 159.60044861 -0.3279705 C161.39671812 -0.32615628 163.19302001 -0.33284436 164.98921967 -0.34878922 C181.80601404 -0.48893542 181.80601404 -0.48893542 188.43560791 5.27415466 C192.09200638 9.21921617 194.68029786 12.87148662 194.69567013 18.34602547 C194.70273572 19.15248705 194.70980131 19.95894863 194.71708101 20.78984845 C194.71466593 21.67018494 194.71225084 22.55052143 194.70976257 23.45753479 C194.71499925 24.39719743 194.72023593 25.33686006 194.7256313 26.30499732 C194.74066299 29.46158862 194.74133716 32.61801827 194.74200439 35.77464294 C194.7496239 38.0348437 194.75805103 40.29504185 194.76722717 42.55523682 C194.78920339 48.70217455 194.79797563 54.84906252 194.80305362 60.9960351 C194.8066944 64.83680342 194.8129331 68.67755865 194.82005501 72.51832199 C194.83951556 83.15905983 194.85602499 93.79978305 194.85893154 104.44053841 C194.85911911 105.1214005 194.85930668 105.80226259 194.85949994 106.50375687 C194.85986618 107.88395842 194.86022988 109.26415996 194.86059105 110.64436151 C194.86077386 111.32946864 194.86095667 112.01457577 194.86114502 112.72044373 C194.86141584 113.74936408 194.86141584 113.74936408 194.86169214 114.7990707 C194.86523103 125.90487365 194.89223481 137.01048236 194.92964291 148.11621799 C194.96777065 159.52727989 194.98664876 170.93820372 194.98739105 182.34933841 C194.98818386 188.75261409 194.99692429 195.15563936 195.02538872 201.55885696 C195.05157745 207.58521957 195.05376955 213.61112436 195.03773308 219.63751793 C195.03591909 221.8457597 195.04260466 224.05402782 195.05855179 226.26221275 C195.2098431 248.57757265 195.2098431 248.57757265 189.43560791 255.27415466 C184.09815407 259.57787418 178.67303885 260.42341948 172.0294342 260.42805481 C171.26889116 260.43243706 170.50834813 260.43681932 169.72475833 260.44133437 C167.1684928 260.45472147 164.61226175 260.46090104 162.05596924 260.46702576 C160.22616419 260.47492682 158.39636069 260.48319578 156.56655884 260.49180603 C150.55026742 260.51802664 144.53396904 260.53333418 138.51763916 260.54759216 C136.44657575 260.55295192 134.3755124 260.55832942 132.30444908 260.56372452 C123.68910354 260.58535371 115.07375987 260.60409023 106.45839405 260.61534691 C94.11182509 260.63158476 81.7655709 260.66475825 69.41912061 260.72174776 C60.73790285 260.7604526 52.05676926 260.77998028 43.37546748 260.78526747 C38.19063199 260.7889203 33.00613222 260.80093438 27.82139015 260.83337021 C22.94165791 260.8634601 18.06246439 260.86975931 13.18265915 260.85798645 C11.39444533 260.85776579 9.60620645 260.8660646 7.81807899 260.88364029 C-8.90499719 261.03902807 -8.90499719 261.03902807 -15.56439209 255.27415466 C-21.42234226 249.26204791 -21.86027029 242.8875291 -21.83181763 234.91273499 C-21.8386143 233.51081172 -21.8386143 233.51081172 -21.84554827 232.08056676 C-21.85819457 228.95315107 -21.85657175 225.82590948 -21.85491943 222.69847107 C-21.86090449 220.45443498 -21.86770998 218.21040095 -21.87527466 215.96636963 C-21.89294306 209.87339588 -21.89763037 203.7804783 -21.89890623 197.6874814 C-21.90080579 192.60046145 -21.90816388 187.51345456 -21.91525042 182.42643964 C-21.93060483 171.11020394 -21.93658805 159.794003 -21.93523972 148.47776039 C-21.9351598 147.79923261 -21.93507989 147.12070483 -21.93499756 146.4216156 C-21.9349158 145.74225631 -21.93483404 145.06289702 -21.9347498 144.36295108 C-21.93393689 133.35295045 -21.95307768 122.34308661 -21.98127429 111.33312555 C-22.01002002 100.01919865 -22.02344762 88.70535921 -22.02208674 77.39138734 C-22.02157679 71.04301922 -22.02727864 64.69480596 -22.04844284 58.34646988 C-22.06780425 52.37594462 -22.06796379 46.40572232 -22.05340958 40.43518639 C-22.05131787 38.24545919 -22.05604381 36.05571313 -22.06813049 33.8660183 C-22.08357723 30.87350348 -22.07427813 27.88203409 -22.05886841 24.88954163 C-22.06915553 24.02590992 -22.07944266 23.16227821 -22.09004152 22.27247584 C-22.01791675 15.92127985 -20.585353 10.46433652 -16.11710489 5.7457968 C-10.81333109 1.14592148 -6.90736309 -0.0233512 0 0 Z M-3.56439209 86.27415466 C-3.56439209 138.08415466 -3.56439209 189.89415466 -3.56439209 243.27415466 C28.40338011 243.30326874 28.40338011 243.30326874 60.37115479 243.32298279 C73.3993977 243.32892636 86.42763417 243.33592963 99.45587158 243.34959412 C108.9424436 243.35953926 118.4290104 243.36600769 127.91558748 243.36824316 C132.94193546 243.36955055 137.96826853 243.37263822 142.99461174 243.37988472 C147.71982688 243.38664227 152.44502089 243.38877217 157.1702404 243.38726234 C158.90977086 243.38753879 160.64930198 243.38954548 162.38882828 243.39336014 C164.75319776 243.39829325 167.11748616 243.39715438 169.4818573 243.39440918 C170.52804408 243.39877844 170.52804408 243.39877844 171.59536594 243.40323597 C174.79327242 243.66170551 174.79327242 243.66170551 177.43560791 242.27415466 C177.53235357 240.26187421 177.55747799 238.24614098 177.55586243 236.23153687 C177.55723992 234.92030066 177.55861742 233.60906446 177.56003666 232.25809383 C177.55648938 230.78550127 177.55285148 229.31290892 177.5491333 227.84031677 C177.5488272 226.27827488 177.54896006 224.71623285 177.54949856 223.15419102 C177.54972508 218.95663113 177.54391322 214.75909952 177.53688812 210.56154633 C177.53120926 206.62822374 177.53092588 202.69490818 177.5302124 198.76158142 C177.5249571 187.2449354 177.51099605 175.72829468 177.49810791 164.21165466 C177.47748291 138.49227966 177.45685791 112.77290466 177.43560791 86.27415466 C117.70560791 86.27415466 57.97560791 86.27415466 -3.56439209 86.27415466 Z " fill="#050505" transform="translate(420.56439208984375,503.72584533691406)"/>
<path d="M0 0 C0.66833018 -0.00594224 1.33666037 -0.01188449 2.02524298 -0.0180068 C4.25749578 -0.03530532 6.48953311 -0.03839072 8.72184753 -0.04138184 C10.32535252 -0.05064349 11.92885312 -0.06069353 13.53234863 -0.07147217 C17.88368897 -0.09767147 22.23496766 -0.11060022 26.58637452 -0.11949348 C29.30666252 -0.12536221 32.0269338 -0.13357314 34.74721336 -0.14250183 C43.26349075 -0.16983753 51.77972977 -0.18917835 60.29604799 -0.19690561 C70.11771795 -0.20586706 79.93883122 -0.24096892 89.76033193 -0.2989068 C97.35880792 -0.34217097 104.95712745 -0.36231573 112.55572528 -0.36498785 C117.09114834 -0.36708159 121.62604762 -0.37884513 126.16134071 -0.41462708 C130.42892332 -0.4476433 134.69558993 -0.45187484 138.96325493 -0.43434906 C140.52571699 -0.4328112 142.08822886 -0.44145645 143.6505661 -0.46126556 C157.88152507 -0.63106049 157.88152507 -0.63106049 163.74192333 4.60282135 C167.49667269 8.84696888 168.60804567 11.04267429 168.62492371 16.83947754 C168.62879089 18.11242676 168.63265808 19.38537598 168.63664246 20.69689941 C168.63035828 21.35730225 168.6240741 22.01770508 168.61759949 22.69812012 C168.60156246 24.70882345 168.61744897 26.71750894 168.63664246 28.72814941 C168.63277527 30.0023877 168.62890808 31.27662598 168.62492371 32.58947754 C168.62153992 33.75277588 168.61815613 34.91607422 168.6146698 36.11462402 C168.03190352 40.86801767 166.19147526 43.38826891 162.72648621 46.59338379 C160.22648621 48.28088379 160.22648621 48.28088379 157.22648621 48.28088379 C158.07104877 59.20195148 159.2721586 67.93633672 167.82023621 75.60900879 C169.7132328 77.13796757 171.62225003 78.64730471 173.54679871 80.13635254 C184.54490641 88.93804515 192.84245012 103.38682401 195.22648621 117.28088379 C195.22648621 119.92088379 195.22648621 122.56088379 195.22648621 125.28088379 C189.61648621 125.28088379 184.00648621 125.28088379 178.22648621 125.28088379 C177.85523621 123.19775879 177.48398621 121.11463379 177.10148621 118.96838379 C173.94452709 104.5220225 166.10797627 95.99462551 154.97648621 86.71838379 C147.9721035 80.71867012 143.02543093 72.2756074 141.22648621 63.28088379 C141.22648621 58.66088379 141.22648621 54.04088379 141.22648621 49.28088379 C97.66648621 49.28088379 54.10648621 49.28088379 9.22648621 49.28088379 C9.22648621 53.57088379 9.22648621 57.86088379 9.22648621 62.28088379 C6.47713717 75.54244973 -0.93912602 84.01991658 -10.91096497 92.71520996 C-17.21839957 98.30397006 -22.12556685 104.6249561 -25.08601379 112.59338379 C-25.39152161 113.3938916 -25.69702942 114.19439941 -26.01179504 115.01916504 C-27.64279457 119.86197902 -27.92191081 124.25845266 -27.92068481 129.36090088 C-27.9243615 130.18199065 -27.92803819 131.00308043 -27.93182629 131.84905171 C-27.94285244 134.60465571 -27.94670527 137.36022198 -27.95051575 140.11584473 C-27.95678154 142.09045023 -27.96342844 144.06505456 -27.97042847 146.03965759 C-27.99146931 152.53151631 -28.00183549 159.02337525 -28.01179504 165.51525879 C-28.01584353 167.75361391 -28.01996048 169.99196892 -28.02414513 172.23032379 C-28.04320214 182.75421889 -28.05742832 193.27810698 -28.0657571 203.80201602 C-28.0755115 215.92588721 -28.10178192 228.04957495 -28.14225799 240.17338157 C-28.17250342 249.55707566 -28.18723421 258.94071745 -28.19053811 268.32445931 C-28.1928803 273.92195288 -28.20173115 279.51925059 -28.22699928 285.11669159 C-28.25043064 290.39283617 -28.25445312 295.66865809 -28.2442379 300.94484138 C-28.24374596 302.86997875 -28.24996408 304.79513281 -28.26379395 306.72022057 C-28.38511777 324.62639971 -26.41534058 343.93223883 -13.51960754 357.69885254 C-4.41844416 365.94487306 6.84857937 372.39059849 19.3430481 372.41459656 C20.35094894 372.41886154 21.35884979 372.42312653 22.39729309 372.42752075 C23.49197906 372.42706757 24.58666504 372.42661438 25.71452332 372.42614746 C26.87604416 372.42950607 28.037565 372.43286469 29.23428345 372.43632507 C33.07414316 372.44582466 36.91395923 372.4477776 40.75382996 372.44885254 C42.74817384 372.4512534 44.74251773 372.45365598 46.73686129 372.45631295 C53.00578571 372.46444656 59.27469578 372.46689815 65.54362488 372.46618652 C72.00279606 372.46558564 78.46188375 372.47614203 84.9210338 372.49193019 C90.47447728 372.50501903 96.02789351 372.51036987 101.58135229 372.50973111 C104.89474291 372.50947657 108.20804264 372.5132276 111.52142143 372.52290916 C115.21736983 372.53269857 118.91310275 372.52983514 122.60905457 372.52380371 C123.70171631 372.52942322 124.79437805 372.53504272 125.92015076 372.54083252 C131.15127847 372.51912335 135.29554645 372.20491229 140.22648621 370.28088379 C141.54648621 370.28088379 142.86648621 370.28088379 144.22648621 370.28088379 C144.22648621 375.89088379 144.22648621 381.50088379 144.22648621 387.28088379 C137.01207956 390.11893808 130.8808264 390.72149329 123.16764832 390.70080566 C121.99234558 390.70927521 120.81704285 390.71774475 119.60612488 390.72647095 C115.73858165 390.74977881 111.87143799 390.75086419 108.00382996 390.74963379 C105.98233571 390.75409424 103.96085108 390.76025868 101.93936163 390.76650095 C95.58459361 390.78568603 89.22995688 390.78863845 82.87516785 390.78186035 C76.36138737 390.77523903 69.84817594 390.79801741 63.33451074 390.83517408 C57.70861536 390.86607937 52.08290093 390.87720834 46.45692259 390.87333727 C43.11173713 390.87128922 39.76734267 390.87874412 36.42217827 390.90122986 C12.91965164 391.0417795 -5.75398404 388.39041362 -23.52742004 371.52697754 C-30.06721894 364.98717864 -34.65171684 358.59616111 -38.77351379 350.28088379 C-39.36325989 349.15166504 -39.36325989 349.15166504 -39.96492004 347.99963379 C-45.97735365 335.75290555 -45.06670275 321.93838709 -45.048172 308.64807129 C-45.05252569 306.57712623 -45.05771102 304.50618279 -45.06365967 302.4352417 C-45.07698808 296.84026537 -45.07763537 291.24535684 -45.07509637 285.65036774 C-45.07402277 280.96853281 -45.07891978 276.28671139 -45.08370179 271.60487938 C-45.09477502 260.55611526 -45.09524626 249.50738514 -45.08918762 238.45861816 C-45.08314491 227.08190864 -45.09547149 215.70532271 -45.11675769 204.32863426 C-45.13439881 194.53804426 -45.14037121 184.7474935 -45.13711995 174.9568882 C-45.13531145 169.11935689 -45.13790032 163.28191381 -45.15183449 157.44439697 C-45.1644496 151.95478677 -45.1624339 146.46536881 -45.1494236 140.97576141 C-45.14706654 138.96831954 -45.14976107 136.96086397 -45.15804672 134.95343781 C-45.23277556 115.43188979 -42.36368845 99.57991291 -28.38288879 84.82775879 C-24.74718582 81.27913852 -21.01890312 77.83204299 -17.20271301 74.47790527 C-10.33881105 68.3545548 -8.83335443 63.4214643 -8.21101379 54.53088379 C-8.12722473 53.36041504 -8.04343567 52.18994629 -7.95710754 50.98400879 C-7.86622864 49.64596191 -7.86622864 49.64596191 -7.77351379 48.28088379 C-8.37937317 48.1532666 -8.98523254 48.02564941 -9.60945129 47.89416504 C-13.20265839 46.8758735 -15.87153764 44.67579354 -17.8943634 41.54748535 C-19.88979032 36.40293009 -19.27456274 30.4759813 -19.33601379 25.03088379 C-19.3856427 23.73279785 -19.43527161 22.43471191 -19.48640442 21.09729004 C-19.60145075 10.34867565 -19.60145075 10.34867565 -15.55085754 5.48400879 C-10.95268118 0.88899008 -6.36501288 0.03170442 0 0 Z " fill="#040404" transform="translate(241.7735137939453,365.7191162109375)"/>
<path d="M0 0 C0.69677573 0.00223072 1.39355146 0.00446144 2.11144161 0.00675976 C3.21422404 0.00441978 3.21422404 0.00441978 4.3392849 0.00203252 C6.82138116 -0.00198015 9.30341708 0.00121318 11.78551388 0.00434887 C13.55741569 0.00299495 15.32931723 0.00121507 17.10121822 -0.00096118 C21.92752549 -0.00553659 26.75381148 -0.00374552 31.58011913 -0.0005821 C36.6192064 0.00194095 41.65829178 -0.00039588 46.69737911 -0.00196826 C55.16133102 -0.00379012 63.62527422 -0.00138323 72.08922482 0.00337231 C81.88957925 0.00881496 91.68991287 0.00705232 101.4902668 0.00154591 C109.88853636 -0.00298477 118.28679965 -0.003636 126.68507004 -0.00101542 C131.70804657 0.0005476 136.73101331 0.00074042 141.75398922 -0.00255191 C146.4751181 -0.00542996 151.19622004 -0.00345616 155.917346 0.00234234 C157.65526313 0.0036703 159.3931825 0.00327523 161.13109875 0.00107968 C163.49322986 -0.00163045 165.85527321 0.00174759 168.21739864 0.00675976 C168.91417438 0.00452904 169.61095011 0.00229832 170.32884026 0 C175.05027026 0.01959354 175.05027026 0.01959354 176.16442013 1.13374341 C176.16442013 17.96374341 176.16442013 34.79374341 176.16442013 52.13374341 C116.10442013 52.13374341 56.04442013 52.13374341 -5.83557987 52.13374341 C-5.83557987 0.02421717 -5.83557987 0.02421717 0 0 Z " fill="#FCFCFC" transform="translate(421.83557987213135,520.8662565946579)"/>
<path d="M0 0 C0.95729004 -0.00064453 1.91458008 -0.00128906 2.90087891 -0.00195312 C9.88781338 0.05016166 16.28066276 0.7076433 23.125 2.1875 C23.125 7.7975 23.125 13.4075 23.125 19.1875 C21.76375 19.043125 20.4025 18.89875 19 18.75 C18.23429688 18.66878906 17.46859375 18.58757813 16.6796875 18.50390625 C14.92235547 18.28625504 13.17225622 18.00358865 11.43359375 17.66796875 C-11.01254047 14.40837665 -31.74305685 20.36017063 -52.875 27.1875 C-50.12717697 27.98742181 -47.37707701 28.77745239 -44.625 29.5625 C-43.48804688 29.89507813 -43.48804688 29.89507813 -42.328125 30.234375 C-31.54347586 33.29002559 -21.01355075 34.57548955 -9.8125 34.5625 C-8.0648938 34.56443359 -8.0648938 34.56443359 -6.28198242 34.56640625 C4.02051737 34.44189619 13.15537539 32.7397239 23.125 30.1875 C23.125 36.1275 23.125 42.0675 23.125 48.1875 C19.350625 48.8990625 19.350625 48.8990625 15.5 49.625 C14.71931152 49.77251709 13.93862305 49.92003418 13.13427734 50.07202148 C11.78366869 50.32592494 10.43245492 50.57662041 9.08081055 50.82495117 C7.46149154 51.12512452 5.84547634 51.44305938 4.23046875 51.765625 C-22.37817482 55.38038413 -48.27848361 46.77677687 -73.60351562 39.77929688 C-77.24005704 38.77931064 -80.88100789 37.79643333 -84.52441406 36.82177734 C-86.53876144 36.27822993 -88.54736815 35.71348482 -90.5546875 35.14453125 C-105.98031489 31.2048926 -122.61013137 32.07113093 -137.875 36.1875 C-137.875 30.5775 -137.875 24.9675 -137.875 19.1875 C-129.4372199 15.81238796 -121.60424366 16.00449412 -112.625 16 C-111.35269531 15.98775391 -110.08039063 15.97550781 -108.76953125 15.96289062 C-102.28695884 15.95285568 -96.33895526 16.29732415 -90.02001953 17.74072266 C-84.13560433 18.96636343 -79.36749154 17.97960708 -73.75 16.125 C-72.72628296 15.79435547 -72.72628296 15.79435547 -71.68188477 15.45703125 C-67.76009877 14.18145426 -63.86411229 12.83760988 -59.97265625 11.47265625 C-50.63456613 8.22481904 -41.35571418 5.41547979 -31.6875 3.3125 C-30.75607178 3.10947266 -29.82464355 2.90644531 -28.86499023 2.69726562 C-19.2490448 0.70210581 -9.80997413 -0.00689266 0 0 Z " fill="#050505" transform="translate(362.875,524.8125)"/>
<path d="M0 0 C15.19755752 5.61935607 30.21253437 11.41286779 44.64746094 18.80615234 C46.20596089 19.5970474 47.774451 20.36857952 49.35253906 21.11962891 C61.16289187 26.75167509 61.16289187 26.75167509 63.01953125 31.73828125 C63.1371791 35.02806379 62.701976 37.78487237 62 41 C61.81824219 42.14082031 61.63648438 43.28164063 61.44921875 44.45703125 C57.49947978 66.43502663 45.19623752 84.78046813 27.59375 98.2109375 C14.85152838 107 14.85152838 107 11 107 C11.144375 105.948125 11.28875 104.89625 11.4375 103.8125 C12.87882851 92.02051099 13.24397476 80.2556922 13.29956055 68.38867188 C13.30806889 66.65361283 13.32159574 64.91856984 13.34057617 63.18359375 C13.48738516 48.13639974 12.16450501 33.71499413 7.0625 19.4375 C6.82337891 18.72271484 6.58425781 18.00792969 6.33789062 17.27148438 C4.82670154 12.88146016 2.9864555 8.82504681 0.76733398 4.74633789 C0 3 0 3 0 0 Z " fill="#FBFBFB" transform="translate(640,345)"/>
<path d="M0 0 C17.49 0 34.98 0 53 0 C53 17.49 53 34.98 53 53 C35.51 53 18.02 53 0 53 C0 35.51 0 18.02 0 0 Z " fill="#0A0A0A" transform="translate(432,607)"/>
<path d="M0 0 C16.83 0 33.66 0 51 0 C51 17.49 51 34.98 51 53 C34.17 53 17.34 53 0 53 C0 35.51 0 18.02 0 0 Z " fill="#080808" transform="translate(531,674)"/>
<path d="M0 0 C16.83 0 33.66 0 51 0 C51 17.49 51 34.98 51 53 C34.17 53 17.34 53 0 53 C0 35.51 0 18.02 0 0 Z " fill="#080808" transform="translate(531,607)"/>
<path d="M0 0 C6.94607522 4.73051674 10.38167735 10.14503206 13 18 C13.88716839 26.74079022 12.637972 34.14657653 7.3046875 41.26171875 C1.13408761 48.0194 -5.77317898 51.07841545 -14.875 51.625 C-22.53673229 51.32879901 -29.4667721 48.4496012 -34.98046875 43.06640625 C-36.52220105 41.11354533 -37.783709 39.16798537 -39 37 C-39.61875 35.948125 -40.2375 34.89625 -40.875 33.8125 C-43.06205785 26.40080396 -43.24904643 18.83242071 -40.0625 11.6875 C-36.06914097 4.76116542 -29.86229721 -1.24283372 -22.08984375 -3.59765625 C-14.01182811 -5.152863 -7.19527015 -3.98561533 0 0 Z " fill="#050505" transform="translate(473,677)"/>
<path d="M0 0 C51.15 0 102.3 0 155 0 C155 4.95 155 9.9 155 15 C103.85 15 52.7 15 0 15 C0 10.05 0 5.1 0 0 Z " fill="#F8F8F8" transform="translate(239,383)"/>
<path d="M0 0 C3.375 0.6875 3.375 0.6875 4.375 1.6875 C4.47383039 4.84052108 4.50796947 7.97228336 4.50097656 11.12573242 C4.5028447 12.11776169 4.50471283 13.10979095 4.50663757 14.13188171 C4.51065374 16.29648261 4.51271752 18.46108778 4.51309967 20.62569237 C4.51650926 25.2395481 4.53787591 29.85326219 4.55833054 34.46706867 C4.59633348 43.0622916 4.62762745 51.65736912 4.62548828 60.25268555 C4.624697 66.22574789 4.64825263 72.19829959 4.6873703 78.17122841 C4.69777815 80.43995169 4.69939315 82.70873431 4.69171906 84.97746849 C4.52449861 106.76905505 4.52449861 106.76905505 15.125 125.25 C15.90359375 125.99378906 16.6821875 126.73757813 17.484375 127.50390625 C19.62453445 129.97570197 20.18800689 131.44450513 20.375 134.6875 C18.8125 137.0625 18.8125 137.0625 16.375 138.6875 C13.16697868 138.90136809 11.29695208 138.35028583 8.6796875 136.46875 C-0.17071789 128.37241502 -5.67059854 116.88156566 -6.90412521 104.99859428 C-7.01027727 102.24162528 -7.03084767 99.49892554 -7.01318359 96.73999023 C-7.01844055 95.70771805 -7.02369751 94.67544586 -7.02911377 93.6118927 C-7.04219399 90.23980059 -7.03362422 86.86818965 -7.0234375 83.49609375 C-7.02546028 81.14005951 -7.02837342 78.78402588 -7.03213501 76.42799377 C-7.0365409 71.51174913 -7.03017802 66.59566881 -7.01611328 61.67944336 C-6.99893753 55.36745767 -7.00892653 49.05585234 -7.02683067 42.74388027 C-7.03764313 37.88929852 -7.03423532 33.03480787 -7.0264473 28.18022346 C-7.02444264 25.85131854 -7.02691381 23.52240541 -7.03388596 21.19351006 C-7.04146779 17.95226766 -7.02994582 14.71165425 -7.01318359 11.47045898 C-7.01925629 10.50375275 -7.02532898 9.53704651 -7.03158569 8.54104614 C-7.02312622 7.66229324 -7.01466675 6.78354034 -7.00595093 5.87815857 C-7.00481985 5.11260871 -7.00368877 4.34705885 -7.00252342 3.55831051 C-6.18942035 -0.4710071 -3.52165669 -0.30359109 0 0 Z " fill="#050505" transform="translate(231.625,581.3125)"/>
<path d="M0 0 C0.82178741 -0.00692368 1.64357483 -0.01384735 2.49026489 -0.02098083 C5.13678785 -0.0382175 7.78311101 -0.04457087 10.4296875 -0.046875 C11.32941284 -0.04821442 12.22913818 -0.04955383 13.15612793 -0.05093384 C26.41880396 -0.04663989 39.29330496 0.40944777 52.3046875 3.203125 C53.56023437 3.45449219 54.81578125 3.70585938 56.109375 3.96484375 C64.71058078 5.87734715 64.71058078 5.87734715 67.3046875 9.203125 C67.72648809 12.01512894 67.64582149 13.56349877 66.3046875 16.078125 C62.24065448 18.36414358 56.3330351 16.2411904 51.93359375 15.23046875 C26.64368918 9.61105552 -2.54312434 9.56371586 -27.72338867 15.74145508 C-35.87889847 17.65083592 -35.87889847 17.65083592 -38.6328125 16.140625 C-40.20644857 13.27105334 -40.23052171 11.41438025 -39.6953125 8.203125 C-35.44212689 4.80399273 -30.53001104 4.0861936 -25.3203125 3.078125 C-24.4953125 2.90925781 -23.6703125 2.74039063 -22.8203125 2.56640625 C-15.18799002 1.02782696 -7.78664034 0.04422323 0 0 Z " fill="#080808" transform="translate(302.6953125,711.796875)"/>
<path d="M0 0 C5.94 0 11.88 0 18 0 C18 17.49 18 34.98 18 53 C12.06 53 6.12 53 0 53 C0 35.51 0 18.02 0 0 Z " fill="#101010" transform="translate(499,607)"/>
<path d="M0 0 C5.61 0 11.22 0 17 0 C18 1 18 1 18.12025452 3.09437561 C18.1169236 4.47670631 18.1169236 4.47670631 18.11352539 5.88696289 C18.11344986 6.92796646 18.11337433 7.96897003 18.11329651 9.04151917 C18.10813522 10.1737944 18.10297394 11.30606964 18.09765625 12.47265625 C18.0962413 13.62543564 18.09482635 14.77821503 18.09336853 15.96592712 C18.08775005 19.66481064 18.07519442 23.36363464 18.0625 27.0625 C18.05748738 29.56315017 18.05292406 32.06380129 18.04882812 34.56445312 C18.03777462 40.70965851 18.0204976 46.85481915 18 53 C12.06 53 6.12 53 0 53 C0 35.51 0 18.02 0 0 Z " fill="#0F0F0F" transform="translate(499,674)"/>
<path d="M0 0 C4.48634774 2.47010975 6.95199456 5.79439683 8.875 10.5 C9.8046186 16.28429349 8.21433393 20.80246604 4.875 25.5 C0.05599118 29.33553763 -3.86348987 30.87230198 -10.06640625 30.78125 C-14.65050615 30.15495931 -17.45831056 27.23876397 -20.4375 23.9375 C-23.58185936 19.3956476 -23.78538084 14.85642235 -23.125 9.5 C-18.3817927 0.18925974 -10.01008617 -4.2954434 0 0 Z " fill="#0D0D0D" transform="translate(291.125,625.5)"/>
<path d="M0 0 C3.28133541 2.11463838 4.93976587 3.35514469 6.8125 6.8125 C7.53748874 11.2505152 7.87974746 15.67800507 5.82421875 19.7890625 C3.06137217 23.26186656 0.0382942 25.38462089 -4.30078125 26.21875 C-8.90314602 26.41494317 -11.5816182 25.99622756 -15.1875 23 C-17.96299332 20.39797501 -19.02643229 18.37036806 -19.42578125 14.5078125 C-19.62594793 7.57572418 -19.62594793 7.57572418 -17.5 3.875 C-11.861936 -1.15354356 -7.37860493 -2.74889203 0 0 Z " fill="#0A0A0A" transform="translate(371.1875,624.1875)"/>
<path d="M0 0 C3.375 0.3125 3.375 0.3125 7 1 C9 4 9 4 8.75 6.6875 C8 10 8 10 6.98046875 13.30859375 C5.10906046 20.74722807 5.60189674 28.64168976 5.52148438 36.26171875 C5.49505859 37.48246094 5.46863281 38.70320312 5.44140625 39.9609375 C5.42122437 41.62842041 5.42122437 41.62842041 5.40063477 43.32958984 C5.26842529 44.2108252 5.13621582 45.09206055 5 46 C1.53076119 48.31282587 0.07794425 48.42478586 -4 48 C-5.66259766 46.82568359 -5.66259766 46.82568359 -7 45 C-7.38818359 42.47900391 -7.38818359 42.47900391 -7.3984375 39.4765625 C-7.40456055 38.37860352 -7.41068359 37.28064453 -7.41699219 36.14941406 C-7.40313477 34.98635742 -7.38927734 33.82330078 -7.375 32.625 C-7.36194824 30.85721191 -7.36194824 30.85721191 -7.34863281 29.05371094 C-7.1736805 18.68563551 -6.90380885 8.33218309 0 0 Z " fill="#0A0A0A" transform="translate(232,477)"/>
<path d="M0 0 C3.49384502 1.22931584 5.39579206 2.33537127 7.875 5.0625 C9.5524836 9.44259606 9.90476475 13.3828275 9 18 C6.72155001 21.97654007 4.37009421 24.54330193 0 26 C-3.76148148 26.50153086 -7.39710084 26.81497616 -10.8515625 25.05859375 C-14.10718571 22.50060409 -16.04618515 20.00602237 -17 16 C-17.46725516 11.71682772 -17.30749558 9.57106322 -15.25 5.75 C-10.59015748 0.05463692 -7.26272579 -0.92044962 0 0 Z " fill="#0A0909" transform="translate(336,669)"/>
<path d="M0 0 C3.24168949 1.62084474 5.19736744 2.94198435 7.375 5.8125 C8.645452 10.25908198 8.37897786 13.90517508 6.875 18.25 C4.53854761 21.67679683 2.91986436 22.66872531 -1 24 C-4.56000983 24.63952272 -7.56744278 24.82356263 -10.7734375 22.98046875 C-13.34908319 20.90110601 -15.16527734 18.75208399 -17 16 C-17.4775733 11.14467144 -17.51341394 8.95601216 -15.1875 4.625 C-10.73635991 -0.71636811 -6.55951019 -0.83651607 0 0 Z " fill="#0C0C0B" transform="translate(267,578)"/>
<path d="M0 0 C2.97 0 5.94 0 9 0 C9 3.63 9 7.26 9 11 C12.63 11 16.26 11 20 11 C20 13.97 20 16.94 20 20 C16.37 20 12.74 20 9 20 C9 23.63 9 27.26 9 31 C6.03 31 3.06 31 0 31 C0 27.37 0 23.74 0 20 C-3.63 20 -7.26 20 -11 20 C-11 17.03 -11 14.06 -11 11 C-7.37 11 -3.74 11 0 11 C0 7.37 0 3.74 0 0 Z " fill="#EFF0F0" transform="translate(454,618)"/>
<path d="M0 0 C3.77062132 2.07014504 7.005306 4.12142833 9 8 C9.56172694 12.33332214 9.29780107 14.45574287 7.1875 18.3125 C5.01107817 20.98638967 3.42651267 22.74186914 -0.05078125 23.37109375 C-4.27084768 23.49499898 -7.12711602 23.39887404 -10.5 20.6875 C-13.96231892 16.96550716 -14.34993816 14.03448006 -14.28515625 9 C-13.82829681 5.79572554 -12.30378028 4.17579249 -10 2 C-6.73065722 -0.28853994 -3.9301848 -0.47162218 0 0 Z " fill="#0B0A0A" transform="translate(330,590)"/>
<path d="M0 0 C3.19163753 1.52328155 5.76213211 3.25782385 8 6 C8.89301622 10.74666278 8.6887291 14.81932155 6.25 19 C2.9079525 21.97070889 1.10093393 22.85728634 -3.375 23.4375 C-8.1853299 22.85694294 -9.61392593 21.38607407 -13 18 C-14.85726616 14.28546768 -14.58501089 10.04420575 -14 6 C-9.77546995 0.55257968 -6.76988121 -0.458975 0 0 Z " fill="#090908" transform="translate(269,674)"/>
<path d="M0 0 C7.73303512 3.39626543 15.14284767 8.28569533 19 16 C18.79310345 22.20689655 18.79310345 22.20689655 16 25 C12.8125 25.6875 12.8125 25.6875 9 25 C7.14870969 22.94906073 5.67471111 20.73791106 4.10546875 18.46484375 C0.30159323 14.0116982 -4.89252755 11.70679928 -10 9 C-11 8 -11 8 -11.25 5.125 C-11 2 -11 2 -10 0.0625 C-6.63231498 -1.72658267 -3.50896252 -0.99907961 0 0 Z " fill="#070707" transform="translate(515,464)"/>
<path d="M0 0 C2.6258382 1.78870171 3.34201385 3.11189509 5 6 C5.71773857 10.46592888 5.32766948 12.41019494 3.125 16.375 C0.99403138 19.007373 0.29199253 19.84516396 -2.98828125 20.23828125 C-7.11276575 20.36998748 -9.38721453 20.37022455 -13 18.1875 C-15.57248533 15.37384417 -15.94866316 13.45347543 -16.375 9.6875 C-15.87765929 4.79698299 -14.42915508 3.42915508 -11 0 C-7.46077805 -1.76961098 -3.72473277 -1.03393444 0 0 Z " fill="#F9F9F7" transform="translate(464,691)"/>
<path d="M0 0 C6.95174643 2.45355756 12.76794563 8.66047143 16.1875 15.125 C16.91320584 18.22171423 16.73680909 19.8840764 16.1875 23.125 C14.5625 25.1875 14.5625 25.1875 12.1875 26.125 C9.26171875 26.015625 9.26171875 26.015625 6.1875 25.125 C4.24609375 22.76171875 4.24609375 22.76171875 2.625 19.8125 C0.2527594 15.55156904 -1.97993511 13.11083544 -5.8125 10.125 C-6.875 7.125 -6.875 7.125 -6.8125 4.125 C-4.79778382 0.98204277 -3.75200103 0.1667556 0 0 Z " fill="#0B0A0A" transform="translate(674.8125,546.875)"/>
<path d="M0 0 C4.455 1.98 4.455 1.98 9 4 C6.53363821 8.93272358 3.20628654 12.28926463 -0.546875 16.2890625 C-2.45417804 18.39681459 -3.99737776 20.40231664 -5.5625 22.75 C-8 25 -8 25 -10.19140625 25.16796875 C-13.65569216 24.83989031 -16.69904496 24.10031835 -20 23 C-18.58261511 19.74792908 -16.87473588 17.68638933 -14.3125 15.25 C-10.86489092 11.89641662 -7.66538932 8.41813999 -4.54296875 4.76171875 C-3.09760261 3.11143995 -1.55120975 1.55120975 0 0 Z " fill="#F5F4F1" transform="translate(482,343)"/>
<path d="M0 0 C-1.41738489 3.25207092 -3.12526412 5.31361067 -5.6875 7.75 C-10.54688401 12.48546529 -15.22837434 17.34256152 -19 23 C-20.6266848 22.71788123 -22.25132896 22.42397625 -23.875 22.125 C-24.77992188 21.96257812 -25.68484375 21.80015625 -26.6171875 21.6328125 C-29 21 -29 21 -31 19 C-22.23529076 8.48391264 -14.76569669 -0.45391834 0 0 Z " fill="#F5F4F1" transform="translate(477,341)"/>
<path d="M0 0 C7.5632731 1.51265462 13.09641241 4.03217102 17.9296875 10.19921875 C19.59551396 13.00194137 19.70090832 14.84591258 19 18 C17.375 20.4375 17.375 20.4375 15 22 C10.66341707 22.19273702 8.41698469 20.72584545 5.25 18 C4.67765625 17.46375 4.1053125 16.9275 3.515625 16.375 C2.02904223 14.90212254 2.02904223 14.90212254 0 14 C0 9.38 0 4.76 0 0 Z " fill="#0A0A0A" transform="translate(628,525)"/>
<path d="M0 0 C4.43090471 1.20842856 6.98112756 2.51668565 10 6 C9.39865234 6.56654297 9.39865234 6.56654297 8.78515625 7.14453125 C3.37723954 12.38076807 -1.31096488 18.12009882 -6 24 C-9.94465818 23.39354978 -13.33992527 22.61473885 -17 21 C-15.30935414 16.71563036 -12.18644695 13.77624401 -9.0625 10.5 C-4.27350227 5.46868498 -4.27350227 5.46868498 0 0 Z " fill="#F5F4F2" transform="translate(495,350)"/>
<path d="M0 0 C9.57 0 19.14 0 29 0 C29 2.97 29 5.94 29 9 C19.43 9 9.86 9 0 9 C0 6.03 0 3.06 0 0 Z " fill="#EDEDEC" transform="translate(542,696)"/>
<path d="M0 0 C9.57 0 19.14 0 29 0 C29 2.97 29 5.94 29 9 C19.43 9 9.86 9 0 9 C0 6.03 0 3.06 0 0 Z " fill="#EDEEEE" transform="translate(542,629)"/>
<path d="M0 0 C3.45925163 1.2491742 6.14693203 2.67527795 9 5 C7.02279334 9.25339426 4.30689063 12.35363518 1.1875 15.8125 C0.40536133 16.72805664 0.40536133 16.72805664 -0.39257812 17.66210938 C-1.85952118 19.28655193 -3.22332202 20.72082669 -5 22 C-7.7109375 21.953125 -7.7109375 21.953125 -10 21 C-11.3921875 20.4740625 -11.3921875 20.4740625 -12.8125 19.9375 C-13.534375 19.628125 -14.25625 19.31875 -15 19 C-13.61806472 15.94483917 -11.99523692 13.67040839 -9.75 11.1875 C-9.13511719 10.50042969 -8.52023437 9.81335938 -7.88671875 9.10546875 C-6.95279297 8.06326172 -6.95279297 8.06326172 -6 7 C-4.85032199 5.66998034 -3.7041601 4.33690838 -2.5625 3 C-1.716875 2.01 -0.87125 1.02 0 0 Z " fill="#F7F5F3" transform="translate(508,358)"/>
<path d="M0 0 C3.125 1.25 3.125 1.25 5.125 4.25 C4.92951488 9.52809812 3.86546336 12.50953664 0.125 16.25 C-3.11578284 18.51854799 -5.97589946 18.74775752 -9.875 18.25 C-11.8125 16.5625 -11.8125 16.5625 -12.875 14.25 C-12.39856259 8.86535835 -9.63665399 5.87637716 -6.078125 2.0234375 C-3.875 0.25 -3.875 0.25 0 0 Z " fill="#0D0D0D" transform="translate(653.875,628.75)"/>
<path d="M0 0 C4.26153461 -0.2142671 5.61872511 -0.26395954 9.25 2.25 C12.654018 5.654018 13.78385035 7.27080281 14.375 12 C14 15 14 15 12.3125 17.375 C10 19 10 19 7.5 19.5 C4.24421632 18.84884326 3.08247219 17.52871623 1 15 C-0.44207941 12.11584117 -0.09394887 9.58278472 -0.0625 6.375 C-0.05347656 5.18648437 -0.04445313 3.99796875 -0.03515625 2.7734375 C-0.02355469 1.85820313 -0.01195312 0.94296875 0 0 Z " fill="#090909" transform="translate(628,595)"/>
<path d="M0 0 C3.32759923 1.55194754 5.48580485 3.30621949 8 6 C6.42219077 9.71045247 4.09296752 12.29906384 1.375 15.25 C0.55773437 16.14203125 -0.25953125 17.0340625 -1.1015625 17.953125 C-1.72804688 18.62859375 -2.35453125 19.3040625 -3 20 C-7.95 18.02 -7.95 18.02 -13 16 C-10.95652069 11.91304138 -8.46513887 9.02837068 -5.375 5.75 C-4.859375 5.19570313 -4.34375 4.64140625 -3.8125 4.0703125 C-2.54574965 2.7097288 -1.27342185 1.35434163 0 0 Z " fill="#F5F3F0" transform="translate(520,367)"/>
<path d="M0 0 C3.375 -0.5 3.375 -0.5 7 0 C10.54539738 3.54539738 11.93316081 5.94728284 12.25 10.9375 C12.19976384 13.45387503 12.12921769 14.7567667 10.9375 17 C7.7930558 18.62293894 5.45914297 18.49416328 2 18 C-1.48484634 14.51515366 -1.58953659 10.00123074 -2.08203125 5.3046875 C-2 3 -2 3 0 0 Z " fill="#0C0B0B" transform="translate(702,599)"/>
<path d="M0 0 C3.26906178 2.27018179 3.93276599 3.74002849 4.9375 7.625 C5.288125 8.73875 5.63875 9.8525 6 11 C8.47636012 12.37466625 8.47636012 12.37466625 11 13 C11.33 13.66 11.66 14.32 12 15 C5.73 15 -0.54 15 -7 15 C-9.39120141 10.21759717 -9.41582744 8.23942569 -9 3 C-6.89524812 -0.74178112 -4.00297686 -0.57185384 0 0 Z " fill="#0A0A0A" transform="translate(472,476)"/>
<path d="M0 0 C2.4375 1.625 2.4375 1.625 4 4 C4.48288863 7.31123632 4.29618989 9.296549 3 12.375 C0.2897489 14.57707902 -1.70878117 14.51582761 -5.125 14.30859375 C-7 14 -7 14 -9 13 C-10.62932095 9.7413581 -10.52673518 6.56102656 -10 3 C-7.83165681 -1.08158719 -4.19361486 -0.51500533 0 0 Z " fill="#F8F8F7" transform="translate(287,633)"/>
<path d="M0 0 C3.34998521 1.11666174 3.79340222 1.74694925 5.6875 4.5625 C6.34298828 5.52349609 6.34298828 5.52349609 7.01171875 6.50390625 C7.33785156 6.99761719 7.66398438 7.49132812 8 8 C5.8583902 10.89560852 3.69642487 13.60197225 1 16 C-3.33835496 16.25519735 -5.79481427 14.83535661 -9 12 C-7.55575365 8.76138697 -5.74227753 6.38030837 -3.375 3.75 C-2.74335937 3.04359375 -2.11171875 2.3371875 -1.4609375 1.609375 C-0.97882812 1.07828125 -0.49671875 0.5471875 0 0 Z " fill="#F1F0ED" transform="translate(531,377)"/>
<path d="M0 0 C3.5625 0.375 3.5625 0.375 5.5625 1.9375 C6.99385511 5.42642809 6.496466 7.77255972 5.5625 11.375 C2.31423326 13.54051116 1.33155843 13.92656953 -2.4375 13.375 C-4.8125 11.8125 -4.8125 11.8125 -6.4375 9.375 C-6.24565555 3.81151096 -6.02253858 0.65700421 0 0 Z " fill="#0E0D0D" transform="translate(249.4375,454.625)"/>
<path d="M0 0 C2.9375 1 2.9375 1 4.875 2.6875 C6.32300221 5.83903422 5.867426 7.70949263 4.9375 11 C2.9375 13 2.9375 13 -0.5 13.3125 C-4.0625 13 -4.0625 13 -6 11.875 C-7.59240283 9.06487736 -7.51569325 7.17235276 -7.0625 4 C-4.88642935 0.73589403 -3.96077619 0 0 0 Z " fill="#0E0E0E" transform="translate(459.0625,449)"/>
<path d="M0 0 C1.875 1.125 1.875 1.125 3 3 C3.54624158 6.66762206 3.47898298 8.3258758 1.3125 11.375 C-1 13 -1 13 -3.5 13.5625 C-6 13 -6 13 -8.375 10.875 C-10 8 -10 8 -9.9375 4.8125 C-8.22154026 -0.33537922 -4.89798488 -0.51020676 0 0 Z " fill="#0F0E0E" transform="translate(647,566)"/>
<path d="M0 0 C3.375 0.875 3.375 0.875 5.375 2.875 C5.84883353 6.50772373 5.8341452 8.22879564 3.6875 11.25 C1.375 12.875 1.375 12.875 -1.125 13.375 C-4.4626027 12.70747946 -5.63100369 11.60751347 -7.625 8.875 C-8.28974877 5.55125617 -7.92761443 4.33497394 -6.0625 1.5 C-3.625 -0.125 -3.625 -0.125 0 0 Z " fill="#0F0E0E" transform="translate(665.625,587.125)"/>
<path d="M0 0 C2 2 2 2 2.3125 5.4375 C2 9 2 9 0.875 10.9375 C-1.88980433 12.50422245 -3.88188517 12.38976435 -7 12 C-8.875 10.9375 -8.875 10.9375 -10 9 C-10.4375 5.5 -10.4375 5.5 -10 2 C-7.00303875 -1.6885677 -4.34072074 -1.22672543 0 0 Z " fill="#0D0D0D" transform="translate(696,640)"/>
<path d="M0 0 C3.5625 0.3125 3.5625 0.3125 5.5 1.4375 C7.06672245 4.20230433 6.95226435 6.19438517 6.5625 9.3125 C5.5 11.1875 5.5 11.1875 3.5625 12.3125 C0.0625 12.75 0.0625 12.75 -3.4375 12.3125 C-5.4375 10.6875 -5.4375 10.6875 -6.4375 8.3125 C-6.12371717 3.0827861 -5.61102633 0.5100933 0 0 Z " fill="#0F0E0E" transform="translate(370.4375,684.6875)"/>
<path d="M0 0 C1.875 1.125 1.875 1.125 3 3 C3.38976435 6.11811483 3.50422245 8.11019567 1.9375 10.875 C-1.14071911 12.66235303 -3.52906068 12.43386742 -7 12 C-9 10.375 -9 10.375 -10 8 C-9.875 4.875 -9.875 4.875 -9 2 C-5.53076119 -0.31282587 -4.07794425 -0.42478586 0 0 Z " fill="#0B0A0A" transform="translate(684,616)"/>
<path d="M0 0 C2 1.625 2 1.625 3 4 C2.77962372 7.67293796 2.63033454 9.36966546 0 12 C-3.4375 12.375 -3.4375 12.375 -7 12 C-9.42061048 9.89172636 -9.9127007 8.59654522 -10.375 5.4375 C-10 3 -10 3 -8.9375 1.1875 C-5.87386726 -0.69021039 -3.49835955 -0.43729494 0 0 Z " fill="#0B0A0A" transform="translate(377,592)"/>
<path d="M0 0 C3.5625 0.25 3.5625 0.25 6.5625 2.25 C6.93283222 5.64471203 7.17171702 8.13907484 5.5 11.1875 C2.45157484 12.85921702 -0.04278797 12.62033222 -3.4375 12.25 C-5.88647847 8.57653229 -5.75287716 6.58643601 -5.4375 2.25 C-3.4375 0.25 -3.4375 0.25 0 0 Z " fill="#080807" transform="translate(558.4375,476.75)"/>
<path d="M0 0 C2 3 2 3 1.83203125 4.96875 C0.83061812 7.41351445 -0.39383201 8.69226142 -2.3125 10.5 C-2.93898438 11.09941406 -3.56546875 11.69882812 -4.2109375 12.31640625 C-4.80132812 12.87199219 -5.39171875 13.42757813 -6 14 C-6.804375 14.804375 -7.60875 15.60875 -8.4375 16.4375 C-8.953125 16.953125 -9.46875 17.46875 -10 18 C-10.99 17.34 -11.98 16.68 -13 16 C-11.3383196 11.87582937 -8.37661982 8.93445961 -5.375 5.75 C-4.859375 5.19570313 -4.34375 4.64140625 -3.8125 4.0703125 C-2.54574965 2.7097288 -1.27342185 1.35434163 0 0 Z " fill="#090808" transform="translate(503,357)"/>
<path d="M0 0 C3 0.25 3 0.25 5 2.25 C4.625 5.875 4.625 5.875 4 9.25 C-1.44736842 10.58157895 -1.44736842 10.58157895 -3.875 9.125 C-5.3568671 6.65522151 -5.3633156 5.08386167 -5 2.25 C-3 0.25 -3 0.25 0 0 Z " fill="#F1F2F2" transform="translate(365,631.75)"/>
<path d="M0 0 C5.26923077 2.63461538 5.26923077 2.63461538 7 6 C6.1875 8.75 6.1875 8.75 5 11 C0.87248551 10.39301257 -2.3321148 8.96189209 -6 7 C-4.02 4.69 -2.04 2.38 0 0 Z " fill="#F2F1F0" transform="translate(541,389)"/>
<path d="M0 0 C3.125 0.375 3.125 0.375 6 1 C7.32841008 6.43440487 7.32841008 6.43440487 5.875 8.9375 C4 10 4 10 1.4375 9.8125 C-1 9 -1 9 -3 7 C-2.67028521 3.70285207 -2.3773161 2.3773161 0 0 Z " fill="#EEEEEB" transform="translate(330,677)"/>
<path d="M0 0 C0.99 0.66 1.98 1.32 3 2 C2.4352699 5.90829085 0.57868029 7.89920223 -2.0625 10.75 C-3.16271484 11.94882812 -3.16271484 11.94882812 -4.28515625 13.171875 C-4.85105469 13.77515625 -5.41695313 14.3784375 -6 15 C-6.33 14.01 -6.66 13.02 -7 12 C-8.65 12.66 -10.3 13.32 -12 14 C-8 9.33333333 -4 4.66666667 0 0 Z " fill="#191918" transform="translate(490,349)"/>
<path d="M0 0 C0 0.99 0 1.98 0 3 C0.3403125 3.96873047 0.3403125 3.96873047 0.6875 4.95703125 C1 7 1 7 -0.1875 8.88671875 C-4.41182184 13.08372817 -6.98802524 14.87730664 -13 15 C-8.70214922 9.96836982 -4.36574458 4.97281557 0 0 Z " fill="#10100E" transform="translate(515,366)"/>
<path d="M0 0 C0.68707555 2.49064888 1 4.37886292 1 7 C-1.33373615 10.22392417 -3.89201634 12.63926113 -7.6875 13.875 C-9.45624136 13.97060764 -11.22867654 14 -13 14 C-12.56429688 13.57589844 -12.12859375 13.15179688 -11.6796875 12.71484375 C-7.54991517 8.64764373 -3.71958871 4.44536212 0 0 Z " fill="#0F0F0E" transform="translate(471,348)"/>
<path d="M0 0 C0.66 0.33 1.32 0.66 2 1 C-0.37288752 4.40025502 -2.73907842 7.41626661 -6 10 C-9.56246823 10.48441494 -12.55718902 9.96652685 -16 9 C-13.34189385 5.83694895 -10.14902107 4.45854378 -6.4375 2.75 C-5.28121094 2.20859375 -4.12492187 1.6671875 -2.93359375 1.109375 C-1.96550781 0.74328125 -0.99742187 0.3771875 0 0 Z " fill="#DEDCDB" transform="translate(447,350)"/>
<path d="M0 0 C0.99 1.32 1.98 2.64 3 4 C1.17328621 6.53926173 -0.66877878 8.9050512 -3 11 C-6.375 11.4375 -6.375 11.4375 -9 11 C-8.06558465 9.72689688 -7.12732889 8.456612 -6.1875 7.1875 C-5.66542969 6.47980469 -5.14335938 5.77210938 -4.60546875 5.04296875 C-3.16871123 3.21468607 -1.68184237 1.60103312 0 0 Z " fill="#0C0B0B" transform="translate(526,376)"/>
<path d="M0 0 C2.5 0.125 2.5 0.125 3.5 1.125 C3.54080783 3.12458364 3.54254356 5.12545254 3.5 7.125 C1.125 7.75 1.125 7.75 -1.5 8.125 C-3.5 6.125 -3.5 6.125 -3.6875 3.5625 C-3.4324847 0.24730106 -3.33009823 0.16650491 0 0 Z " fill="#F1F1F1" transform="translate(262.5,585.875)"/>
<path d="M0 0 C2.0625 0.4375 2.0625 0.4375 4 1 C3.67 2.65 3.34 4.3 3 6 C2.01 6.33 1.02 6.66 0 7 C-0.66 6.67 -1.32 6.34 -2 6 C-1.125 1.125 -1.125 1.125 0 0 Z " fill="#E7E6E6" transform="translate(265,682)"/>
<path d="M0 0 C2 3 2 3 1.8125 5.0625 C1 7 1 7 -2 9 C-2.66 8.34 -3.32 7.68 -4 7 C-4.66 6.67 -5.32 6.34 -6 6 C-4.02 4.02 -2.04 2.04 0 0 Z " fill="#1C1C1B" transform="translate(503,357)"/>
<path d="M0 0 C1.65 0.33 3.3 0.66 5 1 C4.67 2.65 4.34 4.3 4 6 C2.35 5.67 0.7 5.34 -1 5 C-0.67 3.35 -0.34 1.7 0 0 Z " fill="#E5E5E6" transform="translate(325,599)"/>
<path d="M0 0 C-1.36983503 3.16115776 -1.9890638 3.9927092 -5 6 C-6.5 4.625 -6.5 4.625 -8 3 C-8 2.34 -8 1.68 -8 1 C-5.07175348 0.02391783 -3.04386724 -0.08226668 0 0 Z " fill="#DFDDDB" transform="translate(477,341)"/>
<path d="M0 0 C1.32 0.66 2.64 1.32 4 2 C2.515 4.475 2.515 4.475 1 7 C-0.32 6.34 -1.64 5.68 -3 5 C-1.125 1.125 -1.125 1.125 0 0 Z " fill="#1A1A19" transform="translate(493,368)"/>
<path d="M0 0 C0.66 0.33 1.32 0.66 2 1 C0.02 3.31 -1.96 5.62 -4 8 C-4.99 7.01 -5.98 6.02 -7 5 C-4.88437775 2.67281553 -2.94982021 1.14186589 0 0 Z " fill="#E8E6E6" transform="translate(447,350)"/>
<path d="M0 0 C0 0.99 0 1.98 0 3 C0.3062434 4.33981486 0.63451555 5.67511887 1 7 C-2 7 -2 7 -6 6 C-4.02 4.02 -2.04 2.04 0 0 Z " fill="#2B2B2A" transform="translate(515,366)"/>
<path d="M0 0 C0.99 1.32 1.98 2.64 3 4 C2.01 4.99 1.02 5.98 0 7 C-0.33 6.01 -0.66 5.02 -1 4 C-1.66 3.67 -2.32 3.34 -3 3 C-2.01 2.01 -1.02 1.02 0 0 Z " fill="#1C1C1A" transform="translate(526,376)"/>
<path d="M0 0 C0.68707555 2.49064888 1 4.37886292 1 7 C-1.97 6.505 -1.97 6.505 -5 6 C-3.35 4.02 -1.7 2.04 0 0 Z " fill="#272726" transform="translate(471,348)"/>
</svg>
