<?xml version="1.0" standalone="no"?>
<!DOCTYPE svg PUBLIC "-//W3C//DTD SVG 20010904//EN"
 "http://www.w3.org/TR/2001/REC-SVG-20010904/DTD/svg10.dtd">
<svg version="1.0" xmlns="http://www.w3.org/2000/svg"
 width="1792.000000pt" height="1024.000000pt" viewBox="0 0 1792.000000 1024.000000"
 preserveAspectRatio="xMidYMid meet">

<g transform="translate(0.000000,1024.000000) scale(0.100000,-0.100000)"
fill="#000000" stroke="none">
<path d="M8789 8616 c-2 -2 -47 -7 -99 -10 -52 -4 -106 -9 -120 -11 -14 -2
-50 -7 -80 -10 -274 -31 -658 -144 -952 -280 -953 -441 -1659 -1254 -1923
-2214 -156 -571 -158 -1220 -4 -1834 33 -132 102 -344 159 -487 241 -606 670
-1152 1216 -1548 40 -29 75 -52 78 -52 8 0 8 278 0 318 -5 23 -26 45 -88 93
-106 82 -390 367 -493 497 -181 226 -329 461 -418 662 -142 320 -246 694 -262
943 l-6 97 86 0 86 0 6 -57 c47 -415 172 -813 357 -1135 168 -293 399 -576
634 -779 51 -43 95 -79 99 -79 4 0 6 73 3 163 l-4 163 -121 120 c-196 195
-340 390 -468 637 -133 256 -228 554 -265 830 -18 136 -22 127 69 127 l80 0 6
-57 c56 -498 293 -1013 610 -1328 l90 -90 3 768 2 767 573 0 574 0 16 -82 c43
-216 190 -406 394 -507 129 -64 179 -75 343 -76 162 0 233 16 360 80 191 98
338 293 379 501 l16 84 593 0 592 0 0 -755 c0 -440 4 -755 9 -755 18 0 198
199 261 289 213 299 376 710 413 1039 l11 102 73 0 73 0 0 -33 c0 -111 -57
-386 -115 -555 -135 -395 -352 -738 -632 -1001 l-93 -88 0 -166 c0 -92 3 -167
6 -167 16 0 212 180 307 282 236 253 414 520 531 799 111 265 203 623 232 902
l5 57 81 0 81 0 -6 -117 c-3 -65 -9 -131 -12 -148 -62 -330 -120 -518 -237
-780 -96 -214 -236 -438 -406 -652 -107 -133 -365 -393 -489 -493 l-93 -74 0
-169 c0 -150 2 -168 16 -163 28 11 242 176 336 260 700 624 1108 1438 1201
2399 15 160 14 498 -2 677 -25 270 -77 511 -164 765 -169 495 -424 901 -807
1285 -510 512 -1141 848 -1849 986 -80 15 -90 17 -211 33 -162 23 -625 42
-641 27z m462 -347 c46 -5 112 -10 145 -13 34 -3 115 -15 180 -26 726 -123
1339 -461 1977 -1089 114 -112 207 -211 207 -220 0 -9 -56 -56 -126 -106 -69
-49 -175 -129 -237 -177 l-112 -87 -160 157 c-260 256 -418 386 -650 539 -411
269 -838 408 -1337 435 -177 10 -229 10 -370 -5 -89 -9 -174 -19 -188 -22 -14
-3 -52 -10 -85 -16 -600 -107 -1182 -440 -1678 -959 l-123 -130 -31 23 c-142
102 -453 340 -453 346 0 4 62 72 137 151 189 197 457 428 668 577 489 344
1018 544 1640 618 118 14 457 16 596 4z m29 -1064 c292 -31 506 -88 776 -207
270 -119 612 -365 864 -623 l85 -87 -25 -19 c-118 -89 -438 -322 -447 -326 -7
-3 -49 29 -94 71 -318 299 -652 494 -994 579 -172 43 -248 52 -470 51 -178 0
-228 -3 -325 -23 -402 -80 -775 -282 -1129 -612 -40 -38 -76 -69 -78 -69 -12
0 -466 337 -471 349 -1 4 50 59 115 122 385 373 767 600 1218 724 280 77 660
104 975 70z m-2928 -934 c28 -25 33 -36 33 -76 0 -40 -5 -51 -33 -76 -18 -16
-44 -29 -58 -29 -57 0 -104 45 -103 100 0 96 93 142 161 81z m5394 11 c50 -40
58 -104 19 -150 -31 -36 -73 -48 -119 -32 -44 14 -66 48 -66 100 0 59 42 100
102 100 26 0 52 -7 64 -18z m-2421 -38 c235 -48 480 -165 697 -336 88 -69 238
-209 233 -218 -5 -8 -435 -328 -471 -350 -19 -12 -29 -6 -115 70 -116 102
-188 151 -295 202 -267 125 -583 116 -846 -24 -90 -48 -166 -103 -266 -194
-51 -46 -76 -63 -85 -57 -7 6 -109 82 -228 171 -119 89 -222 169 -229 177 -17
20 -1 37 150 164 256 214 503 339 785 396 227 46 438 46 670 -1z m-3212 -380
l22 -69 83 -5 84 -5 -66 -48 -65 -48 15 -47 c8 -26 17 -60 21 -76 7 -33 4 -32
-82 27 l-50 34 -67 -44 c-38 -23 -70 -43 -72 -43 -2 0 9 34 25 76 16 42 28 77
27 78 -2 1 -30 22 -63 46 -57 42 -59 44 -35 51 14 4 50 7 82 8 l56 1 28 70
c15 39 29 68 31 66 2 -2 14 -34 26 -72z m5797 -1 l25 -68 84 -5 84 -5 -61 -45
c-34 -24 -62 -47 -62 -51 0 -3 11 -33 25 -67 14 -34 25 -66 25 -71 0 -6 -32
10 -71 34 l-71 44 -60 -45 c-33 -24 -64 -44 -69 -44 -7 0 10 70 31 126 8 20 2
28 -58 71 l-67 48 81 3 82 3 21 58 c11 32 21 63 21 70 0 29 18 5 40 -56z
m-2739 -485 c107 -51 170 -112 220 -213 35 -71 42 -94 46 -166 9 -148 -32
-255 -137 -359 -182 -179 -458 -186 -647 -16 -173 155 -202 400 -72 595 45 67
100 116 169 151 84 43 119 50 236 47 103 -3 116 -6 185 -39z m2801 -105 l19
-53 62 0 62 0 -47 -45 -47 -45 18 -60 c12 -37 14 -57 7 -53 -6 3 -30 19 -53
35 -23 15 -46 28 -50 28 -5 0 -28 -14 -51 -31 -24 -17 -45 -29 -48 -26 -3 3 2
29 11 59 l15 53 -47 42 -48 42 64 3 64 3 21 64 c11 36 22 58 24 50 3 -8 13
-38 24 -66z m-5916 -20 c6 -33 7 -33 65 -33 33 0 59 -3 59 -7 0 -4 -19 -24
-41 -43 l-42 -36 18 -53 c9 -29 15 -55 12 -58 -3 -3 -27 9 -52 26 -25 17 -48
31 -51 31 -3 0 -24 -13 -47 -28 -74 -50 -72 -55 -34 64 6 16 -2 27 -38 54 -25
19 -45 37 -45 42 0 4 26 8 59 8 l59 0 23 62 23 62 13 -30 c6 -16 15 -44 19
-61z"/>
<path d="M7230 4215 l0 -445 403 0 c221 0 412 -3 425 -6 l22 -6 0 451 0 451
-425 0 -425 0 0 -445z m710 0 l0 -295 -285 0 -285 0 0 295 0 295 285 0 285 0
0 -295z"/>
<path d="M7500 4210 l0 -160 155 0 155 0 0 160 0 160 -155 0 -155 0 0 -160z"/>
<path d="M9930 4209 l0 -451 23 6 c12 3 196 6 410 6 l387 0 0 445 0 445 -410
0 -410 0 0 -451z m688 6 l-3 -295 -271 0 -271 0 -6 121 c-4 67 -4 200 0 295
l6 174 274 0 274 0 -3 -295z"/>
<path d="M10190 4210 l0 -160 150 0 150 0 0 160 0 160 -150 0 -150 0 0 -160z"/>
<path d="M9772 4468 c-34 -65 -139 -186 -220 -253 l-72 -60 0 -197 0 -198 -80
0 -80 0 0 -85 0 -85 80 0 80 0 0 85 0 85 165 0 165 0 0 375 c0 206 -3 375 -8
375 -4 0 -17 -19 -30 -42z"/>
<path d="M8220 4242 l0 -143 73 3 72 3 3 52 c3 52 2 54 -59 125 -34 40 -68 80
-75 88 -12 12 -14 -7 -14 -128z"/>
<path d="M8527 4103 c-4 -3 -6 -81 -5 -172 1 -126 3 -147 7 -86 l6 80 153 3
152 3 0 -81 0 -80 80 0 80 0 0 75 0 75 80 0 80 0 0 -75 0 -75 80 0 80 0 0 140
c0 159 5 152 -85 125 -104 -32 -220 -45 -323 -35 -105 9 -241 45 -324 85 -60
29 -53 27 -61 18z"/>
<path d="M8227 3934 c-4 -4 -7 -83 -7 -176 l0 -168 -250 0 -250 0 0 -85 0 -85
185 0 185 0 0 48 c0 26 4 53 9 60 5 8 35 16 72 19 35 2 74 9 86 15 13 6 42 12
65 12 40 1 43 -1 46 -26 4 -36 31 -37 60 -3 12 14 31 25 41 25 11 0 26 3 35 6
14 5 16 -5 16 -75 l0 -81 80 0 80 0 0 -90 0 -90 80 0 80 0 0 90 0 90 75 0 75
0 0 79 c0 91 0 91 -91 91 l-59 0 0 85 0 85 -84 0 -84 0 6 -85 5 -85 -82 0 -81
0 0 85 0 85 -75 0 -74 0 -3 88 -3 87 -65 3 c-36 2 -69 0 -73 -4z"/>
<path d="M7240 3415 l0 -175 154 0 154 0 8 -90 7 -90 73 0 74 0 0 88 0 87 -72
0 -73 0 -3 178 -2 177 -160 0 -160 0 0 -175z"/>
<path d="M9150 3500 l0 -79 83 -3 82 -3 3 -92 3 -93 -81 0 -80 0 0 -85 0 -85
80 0 80 0 0 -85 0 -85 80 0 80 0 0 -60 c0 -45 4 -62 15 -67 9 -3 90 -2 180 2
l165 7 0 54 0 53 -127 3 -128 3 -3 88 -3 87 -49 0 -50 0 0 90 0 90 260 0 260
0 0 85 0 85 -100 0 -100 0 0 85 0 85 -160 0 -159 0 -3 -82 -3 -83 -77 -3 -78
-3 0 86 0 85 -85 0 -85 0 0 -80z"/>
<path d="M9990 3495 l0 -75 140 0 140 0 0 75 0 75 -140 0 -140 0 0 -75z"/>
<path d="M10440 3325 l0 -85 150 0 151 0 -3 83 -3 82 -147 3 -148 3 0 -86z"/>
<path d="M10343 3233 l-63 -4 0 -84 0 -85 80 0 81 0 -3 87 c-3 98 4 91 -95 86z"/>
<path d="M8050 3145 l0 -85 80 0 80 0 0 -85 0 -85 82 0 81 0 -6 128 c-4 70 -7
146 -7 170 l0 42 -155 0 -155 0 0 -85z"/>
<path d="M8380 3145 l0 -85 150 0 150 0 0 85 0 85 -150 0 -150 0 0 -85z"/>
<path d="M9000 3145 l0 -85 -80 0 -80 0 0 -90 0 -90 -235 0 -236 0 3 -72 3
-73 233 -3 232 -2 0 -90 0 -90 -235 0 -235 0 0 90 0 90 -75 0 -75 0 2 -427 3
-428 148 -3 147 -3 0 -90 0 -90 83 3 82 3 3 93 3 92 74 0 75 0 0 -90 0 -90 49
0 c27 0 63 -3 80 -6 l31 -6 0 96 0 96 -80 0 -80 0 0 85 0 85 -80 0 -80 0 0 85
0 85 -77 0 -78 0 4 -85 3 -85 -81 0 -81 0 0 90 0 90 75 0 75 0 0 85 0 85 80 0
80 0 0 -85 0 -85 80 0 80 0 0 85 0 85 160 0 160 0 0 165 c0 103 4 165 10 166
6 1 15 3 20 4 6 1 37 3 70 4 l60 1 0 70 0 70 -80 0 -80 0 0 -75 0 -75 -80 0
-80 0 0 165 0 165 75 0 75 0 0 85 0 85 -75 0 -75 0 0 -85z"/>
<path d="M9998 3148 l-3 -83 -77 -3 -78 -3 0 -84 0 -85 80 0 80 0 0 -60 0 -60
220 0 220 0 0 -270 0 -270 85 0 85 0 0 130 0 130 65 0 65 0 0 200 0 200 -61 0
-60 0 7 80 7 80 -96 0 -96 0 -3 -82 -3 -83 -147 -3 -148 -3 0 176 0 175 -70 0
-69 0 -3 -82z"/>
<path d="M7720 2916 l0 -156 245 0 245 0 0 60 0 60 -160 0 -160 0 0 90 0 90
-69 0 c-38 0 -76 3 -85 6 -14 5 -16 -12 -16 -150z"/>
<path d="M7240 2975 l0 -85 65 0 65 0 0 85 0 85 -65 0 -65 0 0 -85z"/>
<path d="M9320 2565 l0 -165 85 0 85 0 0 165 0 165 -85 0 -85 0 0 -165z"/>
<path d="M7237 2489 c-4 -84 -7 -295 -7 -471 l0 -318 430 0 430 0 -2 468 -3
467 -421 3 -421 2 -6 -151z m708 -211 c3 -112 5 -252 3 -313 l-3 -110 -287 -3
-288 -2 0 315 0 315 284 0 284 0 7 -202z"/>
<path d="M7500 2170 l0 -180 160 0 160 0 0 180 0 180 -160 0 -160 0 0 -180z"/>
<path d="M9650 2345 l0 -295 -85 0 -85 0 0 -175 0 -175 410 0 410 0 0 88 0 87
70 -3 70 -4 0 -84 0 -84 155 0 155 0 0 90 0 90 -70 0 -70 0 0 85 0 85 -155 0
-155 0 0 295 0 295 -325 0 -325 0 0 -295z m510 -70 l0 -225 -75 0 -74 0 -3
-87 -3 -88 -106 -3 -106 -3 -6 188 c-4 103 -7 245 -7 316 l0 127 190 0 190 0
0 -225z"/>
<path d="M9920 2290 l0 -90 80 0 80 0 0 90 0 90 -80 0 -80 0 0 -90z"/>
<path d="M9160 2310 l0 -80 80 0 80 0 0 -90 0 -90 -80 0 -80 0 0 85 0 85 -155
0 -155 0 0 -80 0 -80 133 0 c196 0 177 20 177 -191 l0 -179 80 0 80 0 0 180 0
179 81 3 81 3 0 70 c0 39 -1 76 -1 83 -1 8 -21 12 -65 12 -96 0 -96 0 -96 91
l0 79 -80 0 -80 0 0 -80z"/>
</g>
</svg>
